<svg xmlns="http://www.w3.org/2000/svg" xmlns:xlink="http://www.w3.org/1999/xlink" width="108" height="108" viewBox="0 0 108 108">
  <defs>
    <filter id="Trazado_979055" x="0" y="0" width="108" height="108" filterUnits="userSpaceOnUse">
      <feOffset dy="3" input="SourceAlpha"/>
      <feGaussianBlur stdDeviation="3" result="blur"/>
      <feFlood flood-opacity="0.161"/>
      <feComposite operator="in" in2="blur"/>
      <feComposite in="SourceGraphic"/>
    </filter>
  </defs>
  <g id="Grupo_1146651" data-name="Grupo 1146651" transform="translate(-201 -2626)">
    <g id="Grupo_1146617" data-name="Grupo 1146617" transform="translate(0 2304)">
      <g transform="matrix(1, 0, 0, 1, 201, 322)" filter="url(#Trazado_979055)">
        <g id="Trazado_979055-2" data-name="Trazado 979055" transform="translate(9 6)" fill="#faece9">
          <path d="M 45 88.5 C 39.12687683105469 88.5 33.43022537231445 87.35007476806641 28.06830024719238 85.08217620849609 C 22.88852500915527 82.89131164550781 18.23629951477051 79.75458526611328 14.2408504486084 75.75914764404297 C 10.24541282653809 71.76370239257812 7.108687400817871 67.11147308349609 4.917825222015381 61.93170166015625 C 2.649924993515015 56.56977462768555 1.5 50.87312316894531 1.5 45 C 1.5 39.12687683105469 2.649924993515015 33.43022537231445 4.917825222015381 28.06830024719238 C 7.108687400817871 22.88852500915527 10.24541282653809 18.23629951477051 14.2408504486084 14.2408504486084 C 18.23629951477051 10.24541282653809 22.88852500915527 7.108687400817871 28.06830024719238 4.917825222015381 C 33.43022537231445 2.649924993515015 39.12687683105469 1.5 45 1.5 C 50.87312316894531 1.5 56.56977462768555 2.649924993515015 61.93170166015625 4.917825222015381 C 67.11147308349609 7.108687400817871 71.76370239257812 10.24541282653809 75.75914764404297 14.2408504486084 C 79.75458526611328 18.23629951477051 82.89131164550781 22.88852500915527 85.08217620849609 28.06830024719238 C 87.35007476806641 33.43022537231445 88.5 39.12687683105469 88.5 45 C 88.5 50.87312316894531 87.35007476806641 56.56977462768555 85.08217620849609 61.93170166015625 C 82.89131164550781 67.11147308349609 79.75458526611328 71.76370239257812 75.75914764404297 75.75914764404297 C 71.76370239257812 79.75458526611328 67.11147308349609 82.89131164550781 61.93170166015625 85.08217620849609 C 56.56977462768555 87.35007476806641 50.87312316894531 88.5 45 88.5 Z" stroke="none"/>
          <path d="M 45 3 C 39.32871246337891 3 33.82865524291992 4.110054016113281 28.65262985229492 6.299339294433594 C 23.65165710449219 8.414573669433594 19.15968322753906 11.44334411621094 15.301513671875 15.301513671875 C 11.44334411621094 19.15968322753906 8.414573669433594 23.65165710449219 6.299339294433594 28.65262985229492 C 4.110054016113281 33.82865524291992 3 39.32871246337891 3 45 C 3 50.67128753662109 4.110054016113281 56.17134475708008 6.299339294433594 61.34737396240234 C 8.414573669433594 66.34834289550781 11.44334411621094 70.84031677246094 15.301513671875 74.698486328125 C 19.15968322753906 78.55665588378906 23.65165710449219 81.58542633056641 28.65262985229492 83.70066070556641 C 33.82865524291992 85.88994598388672 39.32871246337891 87 45 87 C 50.67128753662109 87 56.17134475708008 85.88994598388672 61.34737396240234 83.70066070556641 C 66.34834289550781 81.58542633056641 70.84031677246094 78.55665588378906 74.698486328125 74.698486328125 C 78.55665588378906 70.84031677246094 81.58542633056641 66.34834289550781 83.70066070556641 61.34737396240234 C 85.88994598388672 56.17134475708008 87 50.67128753662109 87 45 C 87 39.32871246337891 85.88994598388672 33.82865524291992 83.70066070556641 28.65262985229492 C 81.58542633056641 23.65165710449219 78.55665588378906 19.15968322753906 74.698486328125 15.301513671875 C 70.84031677246094 11.44334411621094 66.34834289550781 8.414573669433594 61.34737396240234 6.299339294433594 C 56.17134475708008 4.110054016113281 50.67128753662109 3 45 3 M 45 0 C 69.85281372070312 0 90 20.14718627929688 90 45 C 90 69.85281372070312 69.85281372070312 90 45 90 C 20.14718627929688 90 0 69.85281372070312 0 45 C 0 20.14718627929688 20.14718627929688 0 45 0 Z" stroke="none" fill="#f97c61"/>
        </g>
      </g>
    </g>
    <g id="Layer_x0020_1" transform="translate(81.918 2504.626)">
      <path id="Trazado_983165" data-name="Trazado 983165" d="M183.547,187.758v-5a.629.629,0,0,1,1.257,0v5h1.571l.628-7.134c.283-2.86-4.054-4.022-5.405-1.288a2.334,2.334,0,0,0-.22,1.634l.6,6.788Zm-13.921,12.853H149.734A2.736,2.736,0,0,1,147,197.877V149.734A2.736,2.736,0,0,1,149.734,147h36.359a2.736,2.736,0,0,1,2.734,2.734v.566a9.2,9.2,0,1,1,0,17.661v12.821a12.564,12.564,0,0,1,7.793,11.5v2.105a3.918,3.918,0,0,1,3.991,3.991,1.918,1.918,0,0,1-1.886,2.231Zm17.944-49.84v-1.037a1.475,1.475,0,0,0-1.477-1.477H149.734a1.475,1.475,0,0,0-1.477,1.477v48.143a1.475,1.475,0,0,0,1.477,1.477h18.132a3.61,3.61,0,0,1-.126-1.037,3.931,3.931,0,0,1,4.022-3.928v-2.105a12.569,12.569,0,0,1,8.328-11.722c-.189-3.834,5.122-5.594,7.479-2.325V167.489A9.205,9.205,0,0,1,187.57,150.771Zm-17.944,48.583h29.1c.534,0,.66-.44.629-.911-.094-1.917-1.226-2.828-3.394-2.828H172.423a3.462,3.462,0,0,0-2.765,1.006,2.287,2.287,0,0,0-.44,2.577A.486.486,0,0,0,169.626,199.354Zm18.792-32.871a7.667,7.667,0,0,0,2.985.6,8,8,0,1,0-2.985-.6Zm-31.017-.911h-4.714a1.609,1.609,0,0,1-1.6-1.6v-4.714a1.609,1.609,0,0,1,1.6-1.6H157.4a1.609,1.609,0,0,1,1.6,1.6v4.714A1.609,1.609,0,0,1,157.4,165.572Zm-4.714-6.662a.349.349,0,0,0-.346.346v4.714a.349.349,0,0,0,.346.346H157.4a.349.349,0,0,0,.346-.346v-4.714a.349.349,0,0,0-.346-.346Zm22.029,1.728h-13.1a.629.629,0,1,1,0-1.257h13.1A.629.629,0,1,1,174.717,160.639Zm5.562,3.205H161.613a.629.629,0,1,1,0-1.257h18.667A.629.629,0,1,1,180.279,163.844ZM157.4,175.691h-4.714a1.609,1.609,0,0,1-1.6-1.6v-4.714a1.609,1.609,0,0,1,1.6-1.6H157.4a1.609,1.609,0,0,1,1.6,1.6v4.714A1.609,1.609,0,0,1,157.4,175.691Zm-4.714-6.662a.349.349,0,0,0-.346.346v4.714a.349.349,0,0,0,.346.346H157.4a.349.349,0,0,0,.346-.346v-4.714a.349.349,0,0,0-.346-.346Zm22.029,1.728h-13.1a.629.629,0,1,1,0-1.257h13.1A.629.629,0,1,1,174.717,170.757Zm8.642,3.205H161.613a.629.629,0,1,1,0-1.257h21.746A.629.629,0,0,1,183.359,173.963Zm-5.279,5.217H156.773a.629.629,0,0,1,0-1.257h21.306A.629.629,0,0,1,178.079,179.179Zm-6.065,3.457H151.494a.629.629,0,0,1,0-1.257h20.521A.629.629,0,0,1,172.014,182.636Zm4.808-27.623H159a2.027,2.027,0,0,1,0-4.054h17.818A2.027,2.027,0,0,1,176.822,155.013ZM159,152.217a.786.786,0,0,0,0,1.571h17.818a.786.786,0,0,0,0-1.571Zm31.959,12.539c-2.451-2.451-5-5-5-7.668a3.028,3.028,0,0,1,5.437-1.823,3.028,3.028,0,0,1,5.437,1.823c0,2.671-2.545,5.217-5,7.668A.636.636,0,0,1,190.964,164.755Zm-1.948-9.428a1.764,1.764,0,0,0-1.791,1.76c0,2.011,2.074,4.211,4.18,6.316,2.137-2.105,4.18-4.305,4.18-6.316a1.757,1.757,0,0,0-1.76-1.76c-1.823,0-1.477,1.791-2.42,1.791S190.807,155.328,189.015,155.328ZM163.184,197.06h-7.919A2.273,2.273,0,0,1,153,194.8v-7.951a2.273,2.273,0,0,1,2.263-2.263h7.919a2.273,2.273,0,0,1,2.263,2.263V194.8A2.273,2.273,0,0,1,163.184,197.06Zm-7.919-11.187a.986.986,0,0,0-1.006.974V194.8a1.013,1.013,0,0,0,1.006,1.006h7.919a.993.993,0,0,0,1.006-1.006v-7.951a.986.986,0,0,0-1.006-.974Zm2.105,7.6-1.6-1.6a.633.633,0,0,1,.88-.911l1.163,1.194,3.991-3.991a.622.622,0,1,1,.88.88l-4.431,4.431A.607.607,0,0,1,157.37,193.478Zm19.672.88v-1.477a2.743,2.743,0,0,1,2.734-2.765h8.8a2.769,2.769,0,0,1,2.765,2.765v1.477h3.991v-2.074a11.21,11.21,0,0,0-7.165-10.4l-.534,5.971a1.29,1.29,0,0,1-1.257,1.163h-4.4a1.265,1.265,0,0,1-1.257-1.163l-.534-5.971a11.21,11.21,0,0,0-7.165,10.4v2.074Zm13.041,0v-1.477a1.509,1.509,0,0,0-1.508-1.508h-8.8a1.509,1.509,0,0,0-1.508,1.508v1.477Z" transform="translate(0 0)" fill-rule="evenodd"/>
      <path id="Trazado_983166" data-name="Trazado 983166" d="M387.93,1392.925v-7.951a.986.986,0,0,0-1.006-.974h-7.919a.986.986,0,0,0-1.006.974v7.951a1.013,1.013,0,0,0,1.006,1.006h7.919A.993.993,0,0,0,387.93,1392.925Zm-1.508-5.751-4.431,4.431a.607.607,0,0,1-.88,0l-1.6-1.6a.633.633,0,0,1,.88-.911l1.163,1.194,3.991-3.991A.622.622,0,1,1,386.422,1387.174Z" transform="translate(-223.741 -1198.127)" fill="#1d81ce" fill-rule="evenodd"/>
      <path id="Trazado_983167" data-name="Trazado 983167" d="M204.19,225.59v7.951a2.273,2.273,0,0,1-2.263,2.263h-7.919a2.273,2.273,0,0,1-2.263-2.263V225.59a2.273,2.273,0,0,1,2.263-2.263h7.919A2.273,2.273,0,0,1,204.19,225.59Zm6.316,5.437a12.569,12.569,0,0,1,8.328-11.722c-.189-3.834,5.122-5.594,7.479-2.325V206.232a9.205,9.205,0,0,1,0-16.718v-1.037A1.475,1.475,0,0,0,224.836,187H188.477A1.475,1.475,0,0,0,187,188.477V236.62a1.475,1.475,0,0,0,1.477,1.477h18.132a3.61,3.61,0,0,1-.126-1.037,3.931,3.931,0,0,1,4.022-3.928Zm.251-9.647H190.237a.629.629,0,0,1,0-1.257h20.521A.629.629,0,0,1,210.757,221.379Zm6.065-3.457H195.516a.629.629,0,0,1,0-1.257h21.306A.629.629,0,0,1,216.822,217.922Zm-19.075-9.8v4.714a1.609,1.609,0,0,1-1.6,1.6h-4.714a1.609,1.609,0,0,1-1.6-1.6v-4.714a1.609,1.609,0,0,1,1.6-1.6h4.714A1.609,1.609,0,0,1,197.747,208.118Zm-1.6-3.8h-4.714a1.609,1.609,0,0,1-1.6-1.6V198a1.609,1.609,0,0,1,1.6-1.6h4.714a1.609,1.609,0,0,1,1.6,1.6v4.714A1.609,1.609,0,0,1,196.145,204.315Zm25.957,8.391H200.356a.629.629,0,1,1,0-1.257H222.1A.629.629,0,0,1,222.1,212.706ZM213.46,209.5h-13.1a.629.629,0,1,1,0-1.257h13.1A.629.629,0,1,1,213.46,209.5Zm5.562-6.914H200.356a.629.629,0,1,1,0-1.257h18.667A.629.629,0,1,1,219.022,202.587Zm-5.562-3.205h-13.1a.629.629,0,1,1,0-1.257h13.1A.629.629,0,1,1,213.46,199.382Zm2.105-5.625H197.747a2.027,2.027,0,0,1,0-4.054h17.818A2.027,2.027,0,0,1,215.565,193.756Z" transform="translate(-38.743 -38.743)" fill="#ffdaaa" fill-rule="evenodd"/>
      <path id="Trazado_983168" data-name="Trazado 983168" d="M873.878,1694H850.341a3.462,3.462,0,0,0-2.766,1.006,2.288,2.288,0,0,0-.44,2.577.487.487,0,0,0,.409.157h29.1c.534,0,.66-.44.628-.911C877.178,1694.911,876.047,1694,873.878,1694Z" transform="translate(-677.918 -1498.385)" fill="#ffa721" fill-rule="evenodd"/>
      <path id="Trazado_983169" data-name="Trazado 983169" d="M1142,1561.985h11.816v-1.477a1.509,1.509,0,0,0-1.508-1.509h-8.8a1.509,1.509,0,0,0-1.508,1.509Z" transform="translate(-963.732 -1367.627)" fill="#fff" fill-rule="evenodd"/>
      <path id="Trazado_983170" data-name="Trazado 983170" d="M981.756,1265.234h8.8a2.769,2.769,0,0,1,2.765,2.765v1.477h3.991V1267.4a11.21,11.21,0,0,0-7.165-10.4l-.534,5.971a1.29,1.29,0,0,1-1.257,1.163h-4.4a1.265,1.265,0,0,1-1.257-1.163l-.534-5.971A11.21,11.21,0,0,0,975,1267.4v2.074h4.022V1268A2.743,2.743,0,0,1,981.756,1265.234Z" transform="translate(-801.98 -1075.118)" fill="#ffa721" fill-rule="evenodd"/>
      <path id="Trazado_983171" data-name="Trazado 983171" d="M1241.649,1131.609a.629.629,0,0,1,1.257,0v5h1.571l.628-7.134c.283-2.86-4.054-4.022-5.405-1.288a2.334,2.334,0,0,0-.22,1.634l.6,6.788h1.571Z" transform="translate(-1058.101 -948.847)" fill="#fff" fill-rule="evenodd"/>
      <path id="Trazado_983172" data-name="Trazado 983172" d="M1314.951,295.9a8,8,0,1,0-2.985-.6A7.667,7.667,0,0,0,1314.951,295.9Zm5.437-9.993c0,2.671-2.546,5.217-5,7.668a.636.636,0,0,1-.88,0c-2.451-2.451-5-5-5-7.668a9.019,9.019,0,0,1,10.873,0Z" transform="translate(-1123.547 -128.82)" fill="#ff3e1a" fill-rule="evenodd"/>
      <path id="Trazado_983173" data-name="Trazado 983173" d="M1431.18,420.076c2.137-2.106,4.18-4.305,4.18-6.316a1.757,1.757,0,0,0-1.76-1.76c-1.823,0-1.477,1.791-2.42,1.791s-.6-1.791-2.388-1.791a1.764,1.764,0,0,0-1.791,1.76C1427,415.771,1429.074,417.971,1431.18,420.076Z" transform="translate(-1239.776 -256.672)" fill="#fff" fill-rule="evenodd"/>
      <g id="Grupo_1146650" data-name="Grupo 1146650" transform="translate(152.342 152.217)">
        <path id="Trazado_983174" data-name="Trazado 983174" d="M505.754,314.571h17.818a.786.786,0,0,0,0-1.571H505.754A.786.786,0,0,0,505.754,314.571Z" transform="translate(-499.092 -313)" fill="#ffa721" fill-rule="evenodd"/>
        <path id="Trazado_983175" data-name="Trazado 983175" d="M322.405,531.06v-4.714a.349.349,0,0,0-.346-.346h-4.714a.349.349,0,0,0-.346.346v4.714a.349.349,0,0,0,.346.346h4.714A.349.349,0,0,0,322.405,531.06Z" transform="translate(-317 -519.307)" fill="#ffa721" fill-rule="evenodd"/>
        <path id="Trazado_983176" data-name="Trazado 983176" d="M322.059,848h-4.714a.349.349,0,0,0-.346.346v4.714a.349.349,0,0,0,.346.346h4.714a.349.349,0,0,0,.346-.346v-4.714A.349.349,0,0,0,322.059,848Z" transform="translate(-317 -831.188)" fill="#ffa721" fill-rule="evenodd"/>
      </g>
      <path id="Trazado_983177" data-name="Trazado 983177" d="M1365.518,287.951A7.942,7.942,0,0,0,1351,283.488a7.936,7.936,0,0,1,8.108-.5,3.064,3.064,0,0,1,3.9,2.923,4.731,4.731,0,0,1-.157,1.163,8,8,0,0,1,.566,2.985,7.744,7.744,0,0,1-1.383,4.462A7.9,7.9,0,0,0,1365.518,287.951Z" transform="translate(-1166.164 -128.82)" fill="#e63817" fill-rule="evenodd"/>
      <path id="Trazado_983178" data-name="Trazado 983178" d="M1245.105,1129.472c.283-2.86-4.054-4.022-5.405-1.288a2.334,2.334,0,0,0-.22,1.634l.063.786a1.455,1.455,0,0,1,.157-.314,2.933,2.933,0,0,1,5.311.283Z" transform="translate(-1058.101 -948.847)" fill="#e6e6e6" fill-rule="evenodd"/>
      <path id="Trazado_983179" data-name="Trazado 983179" d="M1153.816,1560.508a1.509,1.509,0,0,0-1.508-1.509h-8.8a1.509,1.509,0,0,0-1.508,1.509v1.194a1.518,1.518,0,0,1,1.508-1.445h8.8a1.5,1.5,0,0,1,1.508,1.477Z" transform="translate(-963.732 -1367.627)" fill="#e6e6e6" fill-rule="evenodd"/>
      <path id="Trazado_983180" data-name="Trazado 983180" d="M975,1268.785a11.482,11.482,0,0,1,7.291-10.433l-.126-1.351A11.21,11.21,0,0,0,975,1267.4Z" transform="translate(-801.98 -1075.118)" fill="#ff961e" fill-rule="evenodd"/>
      <path id="Trazado_983181" data-name="Trazado 983181" d="M1460.291,1267.4a11.21,11.21,0,0,0-7.165-10.4l-.126,1.383a11.378,11.378,0,0,1,7.291,10.464Z" transform="translate(-1264.959 -1075.118)" fill="#ff961e" fill-rule="evenodd"/>
      <path id="Trazado_983182" data-name="Trazado 983182" d="M877.31,1696.828c-.094-1.917-1.226-2.828-3.394-2.828H850.378a3.461,3.461,0,0,0-2.765,1.006,2.444,2.444,0,0,0-.534,2.42,2.513,2.513,0,0,1,.534-.974,3.547,3.547,0,0,1,2.765-.974h23.537c1.854,0,2.923.66,3.268,2.011A1.456,1.456,0,0,0,877.31,1696.828Z" transform="translate(-677.955 -1498.385)" fill="#ff961e" fill-rule="evenodd"/>
      <path id="Trazado_983183" data-name="Trazado 983183" d="M226.313,189.514v-1.037A1.475,1.475,0,0,0,224.836,187H188.477A1.475,1.475,0,0,0,187,188.477v.629h35.762a1.462,1.462,0,0,1,1.446,1.446v.283A10.867,10.867,0,0,1,226.313,189.514Z" transform="translate(-38.743 -38.743)" fill="#ffd39a" fill-rule="evenodd"/>
      <path id="Trazado_983184" data-name="Trazado 983184" d="M1373.105,770.036V759.288A9.448,9.448,0,0,1,1371,758v10.5A4.017,4.017,0,0,1,1373.105,770.036Z" transform="translate(-1185.536 -591.799)" fill="#ffd39a" fill-rule="evenodd"/>
    </g>
  </g>
</svg>
