<svg xmlns="http://www.w3.org/2000/svg" xmlns:xlink="http://www.w3.org/1999/xlink" width="108" height="108" viewBox="0 0 108 108">
  <defs>
    <filter id="Trazado_982549" x="0" y="0" width="108" height="108" filterUnits="userSpaceOnUse">
      <feOffset dy="3" input="SourceAlpha"/>
      <feGaussianBlur stdDeviation="3" result="blur"/>
      <feFlood flood-opacity="0.161"/>
      <feComposite operator="in" in2="blur"/>
      <feComposite in="SourceGraphic"/>
    </filter>
  </defs>
  <g id="Grupo_1146782" data-name="Grupo 1146782" transform="translate(-719.902 -654.069)">
    <g id="Grupo_1146780" data-name="Grupo 1146780" transform="translate(728.902 660.069)">
      <g id="Grupo_1146709" data-name="Grupo 1146709">
        <g id="Grupo_1146639" data-name="Grupo 1146639">
          <g transform="matrix(1, 0, 0, 1, -9, -6)" filter="url(#Trazado_982549)">
            <g id="Trazado_982549-2" data-name="Trazado 982549" transform="translate(9 6)" fill="#faece9">
              <path d="M 45 88.5 C 39.12687683105469 88.5 33.43022537231445 87.35007476806641 28.06830024719238 85.08217620849609 C 22.88852500915527 82.89131164550781 18.23629951477051 79.75458526611328 14.2408504486084 75.75914764404297 C 10.24541282653809 71.76370239257812 7.108687400817871 67.11147308349609 4.917825222015381 61.93170166015625 C 2.649924993515015 56.56977462768555 1.5 50.87312316894531 1.5 45 C 1.5 39.12687683105469 2.649924993515015 33.43022537231445 4.917825222015381 28.06830024719238 C 7.108687400817871 22.88852500915527 10.24541282653809 18.23629951477051 14.2408504486084 14.2408504486084 C 18.23629951477051 10.24541282653809 22.88852500915527 7.108687400817871 28.06830024719238 4.917825222015381 C 33.43022537231445 2.649924993515015 39.12687683105469 1.5 45 1.5 C 50.87312316894531 1.5 56.56977462768555 2.649924993515015 61.93170166015625 4.917825222015381 C 67.11147308349609 7.108687400817871 71.76370239257812 10.24541282653809 75.75914764404297 14.2408504486084 C 79.75458526611328 18.23629951477051 82.89131164550781 22.88852500915527 85.08217620849609 28.06830024719238 C 87.35007476806641 33.43022537231445 88.5 39.12687683105469 88.5 45 C 88.5 50.87312316894531 87.35007476806641 56.56977462768555 85.08217620849609 61.93170166015625 C 82.89131164550781 67.11147308349609 79.75458526611328 71.76370239257812 75.75914764404297 75.75914764404297 C 71.76370239257812 79.75458526611328 67.11147308349609 82.89131164550781 61.93170166015625 85.08217620849609 C 56.56977462768555 87.35007476806641 50.87312316894531 88.5 45 88.5 Z" stroke="none"/>
              <path d="M 45 3 C 39.32871246337891 3 33.82865524291992 4.110054016113281 28.65262985229492 6.299339294433594 C 23.65165710449219 8.414573669433594 19.15968322753906 11.44334411621094 15.301513671875 15.301513671875 C 11.44334411621094 19.15968322753906 8.414573669433594 23.65165710449219 6.299339294433594 28.65262985229492 C 4.110054016113281 33.82865524291992 3 39.32871246337891 3 45 C 3 50.67128753662109 4.110054016113281 56.17134475708008 6.299339294433594 61.34737396240234 C 8.414573669433594 66.34834289550781 11.44334411621094 70.84031677246094 15.301513671875 74.698486328125 C 19.15968322753906 78.55665588378906 23.65165710449219 81.58542633056641 28.65262985229492 83.70066070556641 C 33.82865524291992 85.88994598388672 39.32871246337891 87 45 87 C 50.67128753662109 87 56.17134475708008 85.88994598388672 61.34737396240234 83.70066070556641 C 66.34834289550781 81.58542633056641 70.84031677246094 78.55665588378906 74.698486328125 74.698486328125 C 78.55665588378906 70.84031677246094 81.58542633056641 66.34834289550781 83.70066070556641 61.34737396240234 C 85.88994598388672 56.17134475708008 87 50.67128753662109 87 45 C 87 39.32871246337891 85.88994598388672 33.82865524291992 83.70066070556641 28.65262985229492 C 81.58542633056641 23.65165710449219 78.55665588378906 19.15968322753906 74.698486328125 15.301513671875 C 70.84031677246094 11.44334411621094 66.34834289550781 8.414573669433594 61.34737396240234 6.299339294433594 C 56.17134475708008 4.110054016113281 50.67128753662109 3 45 3 M 45 0 C 69.85281372070312 0 90 20.14718627929688 90 45 C 90 69.85281372070312 69.85281372070312 90 45 90 C 20.14718627929688 90 0 69.85281372070312 0 45 C 0 20.14718627929688 20.14718627929688 0 45 0 Z" stroke="none" fill="#f97c61"/>
            </g>
          </g>
        </g>
      </g>
    </g>
    <g id="_23-customer" data-name="23-customer" transform="translate(747.638 678.804)">
      <path id="Trazado_983447" data-name="Trazado 983447" d="M59.416,7.566v3.283H57.561a6.8,6.8,0,0,1-.7,1.691l1.313,1.313-2.323,2.323L54.54,14.863a6.8,6.8,0,0,1-1.691.7v1.855H49.566V15.561a6.8,6.8,0,0,1-1.691-.7l-1.313,1.313-2.323-2.323,1.313-1.313a6.8,6.8,0,0,1-.7-1.691H43V7.566h1.855a6.8,6.8,0,0,1,.7-1.691L44.239,4.562l2.323-2.323,1.313,1.313a6.8,6.8,0,0,1,1.691-.7V1h3.283V2.855a6.8,6.8,0,0,1,1.691.7l1.313-1.313,2.323,2.323L56.863,5.875a6.8,6.8,0,0,1,.7,1.691ZM54.491,9.208a3.283,3.283,0,1,0-3.283,3.283A3.283,3.283,0,0,0,54.491,9.208Z" transform="translate(-7.707 -0.179)" fill="#ffc170"/>
      <path id="Trazado_983448" data-name="Trazado 983448" d="M29.057,20.028a8.988,8.988,0,0,1-3.882,7.412A6.529,6.529,0,0,0,21.6,28.917a9.029,9.029,0,1,1,7.461-8.889Zm-3.283,0a5.741,5.741,0,1,0-1.682,4.064,5.745,5.745,0,0,0,1.682-4.064Z" transform="translate(-1.971 -1.971)" fill="#1ea1e3"/>
      <path id="Trazado_983449" data-name="Trazado 983449" d="M35.473,14.953v6.566H31.787a14.019,14.019,0,0,1-1.65,3.973l2.61,2.61-2.413,2.413a6.661,6.661,0,0,0-1.707-2.971,6.578,6.578,0,0,0-4.646-1.921c-.205,0-.4.008-.6.025A9.046,9.046,0,1,0,19.8,27.125a6.526,6.526,0,0,0-2.388,5.064,19.293,19.293,0,0,1-.3,3.283H14.953V31.787a14.019,14.019,0,0,1-3.973-1.65l-2.61,2.61L3.725,28.1l2.61-2.61a14.019,14.019,0,0,1-1.65-3.973H1V14.953H4.685a14.019,14.019,0,0,1,1.65-3.973l-2.61-2.61L8.371,3.725l2.61,2.61a14.019,14.019,0,0,1,3.973-1.65V1h6.566V4.685a14.019,14.019,0,0,1,3.973,1.65l2.61-2.61,4.646,4.646-2.61,2.61a14.019,14.019,0,0,1,1.65,3.973Z" transform="translate(-0.179 -0.179)" fill="#80dbff"/>
      <path id="Trazado_983450" data-name="Trazado 983450" d="M35.416,54.776v6.566H19V54.776l4.1-1.026V55.6a1.646,1.646,0,0,0,1.642,1.642H29.67A1.646,1.646,0,0,0,31.312,55.6V53.75Z" transform="translate(-3.405 -9.633)" fill="#ffac5a"/>
      <path id="Trazado_983451" data-name="Trazado 983451" d="M24,57.642a1.646,1.646,0,0,0,1.642,1.642h4.925a1.646,1.646,0,0,0,1.642-1.642V56a1.646,1.646,0,0,1-1.642,1.642H25.642A1.646,1.646,0,0,1,24,56Z" transform="translate(-4.301 -10.036)" fill="#fc9942"/>
      <path id="Trazado_983452" data-name="Trazado 983452" d="M34,53.75v1.642l4.1,1.026V54.776Z" transform="translate(-6.094 -9.633)" fill="#fc9942"/>
      <path id="Trazado_983453" data-name="Trazado 983453" d="M23.1,53.75,19,54.776v1.642l4.1-1.026Z" transform="translate(-3.405 -9.633)" fill="#fc9942"/>
      <path id="Trazado_983454" data-name="Trazado 983454" d="M52.1,54.642l-1.642,1.642L48,53.821v-.205L50.462,53Z" transform="translate(-8.603 -9.499)" fill="#9c9c9c"/>
      <path id="Trazado_983455" data-name="Trazado 983455" d="M57.1,53.616v.205l-2.462,2.462L53,54.642,54.642,53Z" transform="translate(-9.499 -9.499)" fill="#9c9c9c"/>
      <path id="Trazado_983456" data-name="Trazado 983456" d="M61.208,54.776v6.566H53V54.776l1.642,1.642L57.1,53.955V53.75Z" transform="translate(-9.499 -9.633)" fill="#d9d9d9"/>
      <path id="Trazado_983457" data-name="Trazado 983457" d="M51.208,54.776v6.566H43V54.776l4.1-1.026v.205l2.462,2.462Z" transform="translate(-7.707 -9.633)" fill="#f0f0f0"/>
      <path id="Trazado_983458" data-name="Trazado 983458" d="M57.773,37.566v2.462H56.131c-7.387,0-7.387-2.462-7.387-2.462a2.411,2.411,0,0,1-2.462,2.462H44.641V37.566A12.631,12.631,0,0,1,43,31h8.208a6.557,6.557,0,0,1,6.566,6.566Z" transform="translate(-7.706 -5.556)" fill="#848484"/>
      <path id="Trazado_983459" data-name="Trazado 983459" d="M55.853,32.921A6.578,6.578,0,0,0,51.208,31H43a14.907,14.907,0,0,0,.093,1.642h8.115a6.557,6.557,0,0,1,6.566,6.566V37.566a6.578,6.578,0,0,0-1.921-4.646Z" transform="translate(-7.707 -5.556)" fill="#6e6e6e"/>
      <path id="Trazado_983460" data-name="Trazado 983460" d="M33.774,37.566a25.444,25.444,0,0,0,1.642,8.208,19.869,19.869,0,0,1-5.483.821,4.935,4.935,0,0,0,2.2-4.1V40.029c-7.387,0-7.387-2.462-7.387-2.462a2.411,2.411,0,0,1-2.462,2.462v2.462a4.879,4.879,0,0,0,1.445,3.48,5,5,0,0,0,.755.624A19.869,19.869,0,0,1,19,45.774a26.69,26.69,0,0,0,1.338-4.925,19.292,19.292,0,0,0,.3-3.283,6.576,6.576,0,0,1,5.967-6.542c.2-.016.394-.025.6-.025a6.578,6.578,0,0,1,4.646,1.921,6.661,6.661,0,0,1,1.707,2.971A6.592,6.592,0,0,1,33.774,37.566Z" transform="translate(-3.405 -5.556)" fill="#a37862"/>
      <path id="Trazado_983461" data-name="Trazado 983461" d="M34.52,45a4.935,4.935,0,0,1-2.2,4.1c.557-.007,1.088-.039,1.585-.082a4.887,4.887,0,0,0,.615-2.38Z" transform="translate(-5.792 -8.065)" fill="#966857"/>
      <path id="Trazado_983462" data-name="Trazado 983462" d="M20.338,42.491a19.292,19.292,0,0,0,.3-3.283,6.576,6.576,0,0,1,5.967-6.542c.2-.016.394-.025.6-.025a6.578,6.578,0,0,1,4.646,1.921,6.661,6.661,0,0,1,1.707,2.971,6.592,6.592,0,0,1,.213,1.674A23.875,23.875,0,0,0,34.9,45.923c.327-.087.512-.149.512-.149a25.444,25.444,0,0,1-1.642-8.208,6.592,6.592,0,0,0-.213-1.674,6.661,6.661,0,0,0-1.707-2.971A6.578,6.578,0,0,0,27.208,31c-.205,0-.4.008-.6.025a6.576,6.576,0,0,0-5.967,6.542,19.292,19.292,0,0,1-.3,3.283A26.69,26.69,0,0,1,19,45.774s.186.062.513.149a27.146,27.146,0,0,0,.825-3.432Z" transform="translate(-3.405 -5.556)" fill="#966857"/>
      <path id="Trazado_983463" data-name="Trazado 983463" d="M23,45v1.642a4.893,4.893,0,0,0,.612,2.38c.5.045,1.029.076,1.587.082a5,5,0,0,1-.755-.624A4.879,4.879,0,0,1,23,45Z" transform="translate(-4.122 -8.065)" fill="#966857"/>
      <g id="Grupo_1146781" data-name="Grupo 1146781" transform="translate(19.699 34.473)">
        <path id="Trazado_983464" data-name="Trazado 983464" d="M46.462,42v2.462h-.821A1.646,1.646,0,0,1,44,42.821V42Z" transform="translate(-27.584 -42)" fill="#e09380"/>
        <path id="Trazado_983465" data-name="Trazado 983465" d="M61.462,42v.821a1.646,1.646,0,0,1-1.642,1.642H59V42Z" transform="translate(-30.273 -42)" fill="#e09380"/>
        <path id="Trazado_983466" data-name="Trazado 983466" d="M32.208,53.194v1.847a1.646,1.646,0,0,1-1.642,1.642H25.642A1.646,1.646,0,0,1,24,55.041V53.194l2.462-.616V50.65a4.834,4.834,0,0,0,3.283,0v1.929Z" transform="translate(-24 -43.55)" fill="#e09380"/>
        <path id="Trazado_983467" data-name="Trazado 983467" d="M54.283,50.65v1.929L52.642,54.22,51,52.579V50.65A4.834,4.834,0,0,0,54.283,50.65Z" transform="translate(-28.839 -43.55)" fill="#e09380"/>
      </g>
      <path id="Trazado_983468" data-name="Trazado 983468" d="M30.65,48.029a4.9,4.9,0,0,1-6.205-.624A4.879,4.879,0,0,1,23,43.925V41.462A2.411,2.411,0,0,0,25.462,39s0,2.462,7.387,2.462v2.462a4.935,4.935,0,0,1-2.2,4.1Z" transform="translate(-4.122 -6.99)" fill="#ffcdbe"/>
      <path id="Trazado_983469" data-name="Trazado 983469" d="M53.566,48.562A4.923,4.923,0,0,1,47,43.925V41.462A2.411,2.411,0,0,0,49.462,39s0,2.462,7.387,2.462v2.462a4.909,4.909,0,0,1-3.283,4.637Z" transform="translate(-8.423 -6.99)" fill="#ffcdbe"/>
      <path id="Trazado_983470" data-name="Trazado 983470" d="M49.462,39A2.411,2.411,0,0,1,47,41.462V43.1a2.411,2.411,0,0,0,2.462-2.462s0,2.462,7.387,2.462V41.462C49.462,41.462,49.462,39,49.462,39Z" transform="translate(-8.423 -6.99)" fill="#ffbeaa"/>
      <path id="Trazado_983471" data-name="Trazado 983471" d="M25.462,39A2.411,2.411,0,0,1,23,41.462V43.1a2.411,2.411,0,0,0,2.462-2.462s0,2.462,7.387,2.462V41.462C25.462,41.462,25.462,39,25.462,39Z" transform="translate(-4.122 -6.99)" fill="#ffbeaa"/>
      <path id="Trazado_983472" data-name="Trazado 983472" d="M10,49h4.925v1.642H10Z" transform="translate(-1.792 -8.782)" fill="#fc9942"/>
      <path id="Trazado_983473" data-name="Trazado 983473" d="M0,0H1.642V4.643H0Z" transform="translate(9.265 35.872) rotate(-45)" fill="#fc9942"/>
      <path id="Trazado_983474" data-name="Trazado 983474" d="M0,0H4.643V1.642H0Z" transform="translate(9.264 46.2) rotate(-45)" fill="#fc9942"/>
      <path id="Trazado_983475" data-name="Trazado 983475" d="M11,20.029a9.024,9.024,0,0,0,9.029,9.029V25.774a5.745,5.745,0,0,1,0-11.491V11A9.024,9.024,0,0,0,11,20.029Z" transform="translate(-1.971 -1.971)" fill="#368dcf"/>
      <path id="Trazado_983476" data-name="Trazado 983476" d="M22,34.728a6.527,6.527,0,0,1,1.568-1.9A8.981,8.981,0,0,1,22,32.97Z" transform="translate(-3.943 -5.884)" fill="#80dbff"/>
      <path id="Trazado_983477" data-name="Trazado 983477" d="M9.208,18.236a9.024,9.024,0,0,1,9.029-9.029V1H14.953V4.685a14.019,14.019,0,0,0-3.973,1.65l-2.61-2.61L3.725,8.371l2.61,2.61a14.019,14.019,0,0,0-1.65,3.973H1v6.566H4.685a14.019,14.019,0,0,0,1.65,3.973L3.725,28.1l4.646,4.646,2.61-2.61a14.019,14.019,0,0,0,3.973,1.65v3.685h2.159a19.292,19.292,0,0,0,.3-3.283,6.529,6.529,0,0,1,.821-3.166V27.265a9.024,9.024,0,0,1-9.029-9.029Z" transform="translate(-0.179 -0.179)" fill="#19cffc"/>
      <path id="Trazado_983478" data-name="Trazado 983478" d="M47.925,9.208a3.283,3.283,0,0,1,3.283-3.283V1H49.566V2.855a6.8,6.8,0,0,0-1.691.7L46.562,2.239,44.239,4.562l1.313,1.313a6.8,6.8,0,0,0-.7,1.691H43v3.283h1.855a6.8,6.8,0,0,0,.7,1.691l-1.313,1.313,2.323,2.323,1.313-1.313a6.8,6.8,0,0,0,1.691.7v1.855h1.642V12.491A3.283,3.283,0,0,1,47.925,9.208Z" transform="translate(-7.707 -0.179)" fill="#ffac5a"/>
      <path id="Trazado_983479" data-name="Trazado 983479" d="M59.434,49.723,53.49,48.237V47.5a5.754,5.754,0,0,0,3.217-4.366h.066a2.462,2.462,0,0,0,2.462-2.462v-.821a.821.821,0,0,0-.821-.821V37.387A7.4,7.4,0,0,0,51.028,30H42.82a.821.821,0,0,0-.821.821,13.862,13.862,0,0,0,1.642,6.8v1.413a.821.821,0,0,0-.821.821v.821a2.462,2.462,0,0,0,2.462,2.462h.066a5.754,5.754,0,0,0,3.217,4.362v.739l-5.944,1.49a.821.821,0,0,0-.622.8v6.566a.821.821,0,0,0,.821.821H59.236a.821.821,0,0,0,.821-.821V50.519a.821.821,0,0,0-.622-.8Zm-5.745.256L52.67,51l-.481-.481.733-.733Zm3.084-8.488V40.67h.821A.821.821,0,0,1,56.774,41.491ZM44.462,40.67h.821v.821A.821.821,0,0,1,44.462,40.67Zm.821-1.642V37.387a.831.831,0,0,0-.136-.453,11.667,11.667,0,0,1-1.482-5.292h7.363a5.753,5.753,0,0,1,5.745,5.745v1.642h-.821c-5.985,0-6.551-1.642-6.566-1.642a.821.821,0,1,0-1.642,0A1.546,1.546,0,0,1,46.1,39.029Zm1.642,3.283V40.567a3.231,3.231,0,0,0,1.97-1.352c.991.705,2.832,1.355,6.238,1.445v1.652a4.1,4.1,0,0,1-8.208,0Zm4.1,5.745a5.767,5.767,0,0,0,.821-.066v.547l-.821.821-.821-.821v-.547A5.767,5.767,0,0,0,51.028,48.057Zm-1.894,1.729.733.733L49.387,51l-1.021-1.021ZM43.641,51.16l2.867-.717,2.3,2.3a.821.821,0,0,0,1.161,0l.24-.24v3.764H43.641Zm14.774,5.1H51.849V52.5l.24.24a.821.821,0,0,0,1.161,0l2.3-2.3,2.867.717Z" transform="translate(-7.527 -5.377)"/>
      <path id="Trazado_983480" data-name="Trazado 983480" d="M30.985,25.178a14.829,14.829,0,0,0,1.253-3.017h3.055a.821.821,0,0,0,.821-.821V14.774a.821.821,0,0,0-.821-.821H32.239a14.828,14.828,0,0,0-1.253-3.017l2.164-2.164a.821.821,0,0,0,0-1.161L28.5,2.965a.821.821,0,0,0-1.161,0L25.178,5.129a14.828,14.828,0,0,0-3.017-1.253V.821A.821.821,0,0,0,21.34,0H14.774a.821.821,0,0,0-.821.821V3.876a14.828,14.828,0,0,0-3.017,1.253L8.772,2.965a.821.821,0,0,0-1.161,0L2.965,7.611a.821.821,0,0,0,0,1.161l2.164,2.164a14.828,14.828,0,0,0-1.253,3.017H.821A.821.821,0,0,0,0,14.774V21.34a.821.821,0,0,0,.821.821H3.876a14.828,14.828,0,0,0,1.253,3.017L2.965,27.342a.821.821,0,0,0,0,1.161l4.646,4.646a.821.821,0,0,0,1.161,0l2.164-2.164a14.828,14.828,0,0,0,3.017,1.253v3.055a.821.821,0,0,0,.821.821h1.165a26.384,26.384,0,0,1-1.106,3.8.821.821,0,0,0,.5,1.083,20.561,20.561,0,0,0,5.512.856c.159.1.324.185.492.266v.739L15.4,44.347a.821.821,0,0,0-.622.8v6.566a.821.821,0,0,0,.821.821H32.01a.821.821,0,0,0,.821-.821V45.143a.821.821,0,0,0-.622-.8L26.265,42.86v-.739c.169-.082.334-.169.492-.266A20.561,20.561,0,0,0,32.269,41a.821.821,0,0,0,.5-1.083A24.769,24.769,0,0,1,31.19,32.01a7.378,7.378,0,0,0-.139-1.409l2.1-2.1a.821.821,0,0,0,0-1.161ZM27.906,36.935a4.1,4.1,0,1,1-8.208,0V35.19a3.231,3.231,0,0,0,1.97-1.352c.991.705,2.832,1.355,6.238,1.445ZM31.19,50.888H16.416v-5.1l2.462-.616v.8a2.462,2.462,0,0,0,2.462,2.462h4.925a2.462,2.462,0,0,0,2.462-2.462v-.8l2.462.616ZM25.245,44.3l1.84.46v1.206a.821.821,0,0,1-.821.821H21.34a.821.821,0,0,1-.821-.821V44.758l1.84-.46a.821.821,0,0,0,.622-.8v-.886a5.163,5.163,0,0,0,1.642,0V43.5A.821.821,0,0,0,25.245,44.3Zm3.365-4.222a5.708,5.708,0,0,0,.937-3.14V34.473a.821.821,0,0,0-.821-.821c-5.985,0-6.551-1.642-6.566-1.642a.821.821,0,1,0-1.642,0,1.546,1.546,0,0,1-1.642,1.642.821.821,0,0,0-.821.821v2.462A5.706,5.706,0,0,0,19,40.074a20.384,20.384,0,0,1-2.328-.41,25.342,25.342,0,0,0,1.388-7.654,5.745,5.745,0,0,1,11.491,0,25.368,25.368,0,0,0,1.388,7.652,20.092,20.092,0,0,1-2.329.413ZM22.869,24.689a7.343,7.343,0,0,0-3.561,1.472,8.236,8.236,0,1,1,3.561-1.472Zm7.6,4.169a7.4,7.4,0,0,0-5.228-4.091,9.841,9.841,0,1,0-7.568,3.119,7.344,7.344,0,0,0-1.261,4.124,17.776,17.776,0,0,1-.186,2.462h-.634V31.608a.821.821,0,0,0-.628-.8,13.178,13.178,0,0,1-3.739-1.553.821.821,0,0,0-1.007.121l-2.03,2.03L4.706,27.923l2.03-2.03a.821.821,0,0,0,.121-1.007A13.178,13.178,0,0,1,5.3,21.147a.821.821,0,0,0-.8-.628H1.642V15.595H4.506a.821.821,0,0,0,.8-.628,13.178,13.178,0,0,1,1.553-3.739.821.821,0,0,0-.121-1.007l-2.03-2.03L8.191,4.706l2.03,2.03a.821.821,0,0,0,1.007.121A13.178,13.178,0,0,1,14.967,5.3a.821.821,0,0,0,.628-.8V1.642h4.925V4.506a.821.821,0,0,0,.628.8,13.178,13.178,0,0,1,3.739,1.553.821.821,0,0,0,1.007-.121l2.03-2.03,3.485,3.485-2.03,2.03a.821.821,0,0,0-.121,1.007,13.177,13.177,0,0,1,1.553,3.739.821.821,0,0,0,.8.628h2.865v4.925H31.608a.821.821,0,0,0-.8.628,13.177,13.177,0,0,1-1.553,3.739.821.821,0,0,0,.121,1.007l2.03,2.03Z" transform="translate(0 0)"/>
      <path id="Trazado_983481" data-name="Trazado 983481" d="M20.566,14a6.566,6.566,0,1,0,6.566,6.566A6.566,6.566,0,0,0,20.566,14Zm0,11.491a4.925,4.925,0,1,1,4.925-4.925,4.925,4.925,0,0,1-4.925,4.925Z" transform="translate(-2.509 -2.509)"/>
      <path id="Trazado_983482" data-name="Trazado 983482" d="M59.236,6.566H57.987a7.4,7.4,0,0,0-.3-.717l.883-.884a.821.821,0,0,0,0-1.161L56.252,1.484a.821.821,0,0,0-1.161,0l-.884.883a7.4,7.4,0,0,0-.717-.3V.821A.821.821,0,0,0,52.67,0H49.387a.821.821,0,0,0-.821.821V2.07a7.394,7.394,0,0,0-.717.3l-.884-.883a.821.821,0,0,0-1.161,0L43.484,3.805a.821.821,0,0,0,0,1.161l.883.884a7.4,7.4,0,0,0-.3.717H42.821A.821.821,0,0,0,42,7.387V10.67a.821.821,0,0,0,.821.821H44.07a7.393,7.393,0,0,0,.3.717l-.883.884a.821.821,0,0,0,0,1.161l2.321,2.321a.821.821,0,0,0,1.161,0l.884-.883a7.4,7.4,0,0,0,.717.3v1.249a.821.821,0,0,0,.821.821H52.67a.821.821,0,0,0,.821-.821V15.987a7.394,7.394,0,0,0,.717-.3l.884.883a.821.821,0,0,0,1.161,0l2.321-2.321a.821.821,0,0,0,0-1.161l-.883-.884a7.393,7.393,0,0,0,.3-.717h1.249a.821.821,0,0,0,.821-.821V7.387a.821.821,0,0,0-.821-.821Zm-.821,3.283H57.38a.821.821,0,0,0-.794.616,5.746,5.746,0,0,1-.613,1.477.821.821,0,0,0,.127,1l.732.732-1.161,1.161L54.94,14.1a.821.821,0,0,0-1-.127,5.745,5.745,0,0,1-1.477.613.821.821,0,0,0-.616.794v1.035H50.208V15.38a.821.821,0,0,0-.616-.794,5.746,5.746,0,0,1-1.477-.613.821.821,0,0,0-1,.127l-.732.732-1.161-1.161.732-.732a.821.821,0,0,0,.127-1,5.746,5.746,0,0,1-.613-1.477.821.821,0,0,0-.794-.616H43.642V8.208h1.036a.821.821,0,0,0,.794-.616,5.746,5.746,0,0,1,.613-1.477.821.821,0,0,0-.127-1l-.732-.732,1.161-1.161.732.732a.821.821,0,0,0,1,.127,5.745,5.745,0,0,1,1.477-.613.821.821,0,0,0,.615-.793V1.642h1.642V2.677a.821.821,0,0,0,.616.794,5.745,5.745,0,0,1,1.477.613.821.821,0,0,0,1-.127l.732-.732,1.161,1.161-.732.732a.821.821,0,0,0-.127,1,5.745,5.745,0,0,1,.613,1.477.821.821,0,0,0,.794.616h1.035Z" transform="translate(-7.527 0)"/>
      <path id="Trazado_983483" data-name="Trazado 983483" d="M52.1,6a4.1,4.1,0,1,0,4.1,4.1A4.1,4.1,0,0,0,52.1,6Zm0,6.566A2.462,2.462,0,1,1,54.566,10.1,2.462,2.462,0,0,1,52.1,12.566Z" transform="translate(-8.603 -1.075)"/>
      <path id="Trazado_983484" data-name="Trazado 983484" d="M10,49h4.925v1.642H10Z" transform="translate(-1.792 -8.782)"/>
      <path id="Trazado_983485" data-name="Trazado 983485" d="M0,0H1.642V4.643H0Z" transform="translate(9.265 35.872) rotate(-45)"/>
      <path id="Trazado_983486" data-name="Trazado 983486" d="M0,0H4.643V1.642H0Z" transform="translate(9.264 46.2) rotate(-45)"/>
    </g>
  </g>
</svg>
