<svg xmlns="http://www.w3.org/2000/svg" xmlns:xlink="http://www.w3.org/1999/xlink" width="108" height="108" viewBox="0 0 108 108">
  <defs>
    <filter id="Trazado_982549" x="0" y="0" width="108" height="108" filterUnits="userSpaceOnUse">
      <feOffset dy="3" input="SourceAlpha"/>
      <feGaussianBlur stdDeviation="3" result="blur"/>
      <feFlood flood-opacity="0.161"/>
      <feComposite operator="in" in2="blur"/>
      <feComposite in="SourceGraphic"/>
    </filter>
  </defs>
  <g id="Grupo_1146725" data-name="Grupo 1146725" transform="translate(9 6)">
    <g id="Grupo_1146639" data-name="Grupo 1146639">
      <g transform="matrix(1, 0, 0, 1, -9, -6)" filter="url(#Trazado_982549)">
        <g id="Trazado_982549-2" data-name="Trazado 982549" transform="translate(9 6)" fill="#faece9">
          <path d="M 45 88.5 C 39.12687683105469 88.5 33.43022537231445 87.35007476806641 28.06830024719238 85.08217620849609 C 22.88852500915527 82.89131164550781 18.23629951477051 79.75458526611328 14.2408504486084 75.75914764404297 C 10.24541282653809 71.76370239257812 7.108687400817871 67.11147308349609 4.917825222015381 61.93170166015625 C 2.649924993515015 56.56977462768555 1.5 50.87312316894531 1.5 45 C 1.5 39.12687683105469 2.649924993515015 33.43022537231445 4.917825222015381 28.06830024719238 C 7.108687400817871 22.88852500915527 10.24541282653809 18.23629951477051 14.2408504486084 14.2408504486084 C 18.23629951477051 10.24541282653809 22.88852500915527 7.108687400817871 28.06830024719238 4.917825222015381 C 33.43022537231445 2.649924993515015 39.12687683105469 1.5 45 1.5 C 50.87312316894531 1.5 56.56977462768555 2.649924993515015 61.93170166015625 4.917825222015381 C 67.11147308349609 7.108687400817871 71.76370239257812 10.24541282653809 75.75914764404297 14.2408504486084 C 79.75458526611328 18.23629951477051 82.89131164550781 22.88852500915527 85.08217620849609 28.06830024719238 C 87.35007476806641 33.43022537231445 88.5 39.12687683105469 88.5 45 C 88.5 50.87312316894531 87.35007476806641 56.56977462768555 85.08217620849609 61.93170166015625 C 82.89131164550781 67.11147308349609 79.75458526611328 71.76370239257812 75.75914764404297 75.75914764404297 C 71.76370239257812 79.75458526611328 67.11147308349609 82.89131164550781 61.93170166015625 85.08217620849609 C 56.56977462768555 87.35007476806641 50.87312316894531 88.5 45 88.5 Z" stroke="none"/>
          <path d="M 45 3 C 39.32871246337891 3 33.82865524291992 4.110054016113281 28.65262985229492 6.299339294433594 C 23.65165710449219 8.414573669433594 19.15968322753906 11.44334411621094 15.301513671875 15.301513671875 C 11.44334411621094 19.15968322753906 8.414573669433594 23.65165710449219 6.299339294433594 28.65262985229492 C 4.110054016113281 33.82865524291992 3 39.32871246337891 3 45 C 3 50.67128753662109 4.110054016113281 56.17134475708008 6.299339294433594 61.34737396240234 C 8.414573669433594 66.34834289550781 11.44334411621094 70.84031677246094 15.301513671875 74.698486328125 C 19.15968322753906 78.55665588378906 23.65165710449219 81.58542633056641 28.65262985229492 83.70066070556641 C 33.82865524291992 85.88994598388672 39.32871246337891 87 45 87 C 50.67128753662109 87 56.17134475708008 85.88994598388672 61.34737396240234 83.70066070556641 C 66.34834289550781 81.58542633056641 70.84031677246094 78.55665588378906 74.698486328125 74.698486328125 C 78.55665588378906 70.84031677246094 81.58542633056641 66.34834289550781 83.70066070556641 61.34737396240234 C 85.88994598388672 56.17134475708008 87 50.67128753662109 87 45 C 87 39.32871246337891 85.88994598388672 33.82865524291992 83.70066070556641 28.65262985229492 C 81.58542633056641 23.65165710449219 78.55665588378906 19.15968322753906 74.698486328125 15.301513671875 C 70.84031677246094 11.44334411621094 66.34834289550781 8.414573669433594 61.34737396240234 6.299339294433594 C 56.17134475708008 4.110054016113281 50.67128753662109 3 45 3 M 45 0 C 69.85281372070312 0 90 20.14718627929688 90 45 C 90 69.85281372070312 69.85281372070312 90 45 90 C 20.14718627929688 90 0 69.85281372070312 0 45 C 0 20.14718627929688 20.14718627929688 0 45 0 Z" stroke="none" fill="#f97c61"/>
        </g>
      </g>
    </g>
    <g id="safety_4429965" transform="translate(12.553 9.344)">
      <g id="Grupo_1146717" data-name="Grupo 1146717" transform="translate(0.666 35.035)">
        <g id="Grupo_1146714" data-name="Grupo 1146714" transform="translate(0)">
          <g id="Grupo_1146712" data-name="Grupo 1146712" transform="translate(37.528 0.001)">
            <path id="Trazado_983324" data-name="Trazado 983324" d="M177.15,137.525l-.086,10.977a2.685,2.685,0,0,1-.789,1.9l-12.457,12.46a2.383,2.383,0,0,0-.7,1.685v1.139H151.114v-7.431h0a9.162,9.162,0,0,1,2.676-6.79c5.7-5.7,4.359-4.354,6.558-6.554a2.232,2.232,0,0,1,3.191.036,2.262,2.262,0,0,1-.069,3.151l-3.1,3.1a2.457,2.457,0,0,0,.031,3.5,2.54,2.54,0,0,0,3.5-.086l7.645-7.648a2.1,2.1,0,0,0,.617-1.485l.086-7.955a2.45,2.45,0,1,1,4.9,0Z" transform="translate(-151.113 -135.073)" fill="#ffb69f"/>
          </g>
          <g id="Grupo_1146713" data-name="Grupo 1146713" transform="translate(0 0)">
            <path id="Trazado_983325" data-name="Trazado 983325" d="M35.982,158.252v7.431H23.975v-1.139a2.384,2.384,0,0,0-.7-1.685L10.82,150.4a2.684,2.684,0,0,1-.789-1.9l-.086-10.977a2.45,2.45,0,1,1,4.9,0l.086,7.955a2.1,2.1,0,0,0,.617,1.485l7.645,7.648a2.54,2.54,0,0,0,3.5.086,2.457,2.457,0,0,0,.031-3.5l-3.1-3.1a2.262,2.262,0,0,1-.069-3.151,2.232,2.232,0,0,1,3.191-.036c2.2,2.2.854.855,6.559,6.554a9.165,9.165,0,0,1,2.676,6.79h0Z" transform="translate(-9.945 -135.07)" fill="#ffb69f"/>
          </g>
        </g>
        <g id="Grupo_1146715" data-name="Grupo 1146715" transform="translate(46.759 1.788)">
          <path id="Trazado_983326" data-name="Trazado 983326" d="M186.033,168.09a.664.664,0,0,1,0-.94l.564-.564a.664.664,0,1,1,.94.94l-.564.564A.664.664,0,0,1,186.033,168.09Zm2.444-2.444a.664.664,0,0,1,0-.94L199.784,153.4l.086-10.946a.665.665,0,0,1,.665-.659h.005a.665.665,0,0,1,.659.67l-.086,10.961a1.257,1.257,0,0,1-.367.892l-11.329,11.329A.665.665,0,0,1,188.477,165.646Z" transform="translate(-185.838 -141.794)" fill="#fbe0e2"/>
        </g>
        <g id="Grupo_1146716" data-name="Grupo 1146716" transform="translate(14.64 10.665)">
          <path id="Trazado_983327" data-name="Trazado 983327" d="M74.3,194.158a.665.665,0,0,1-.665-.664v-.8a.665.665,0,0,1,.664-.665h0a.665.665,0,0,1,.665.664v.8a.664.664,0,0,1-.664.665Zm0-3.456a.665.665,0,0,1-.665-.664l0-2.4a6.43,6.43,0,0,0-1.864-4.755l-6.559-6.555a.665.665,0,0,1,.939-.94l6.559,6.555a7.764,7.764,0,0,1,2.253,5.717l0,2.38a.664.664,0,0,1-.664.665Z" transform="translate(-65.015 -175.19)" fill="#fbe0e2"/>
        </g>
      </g>
      <g id="Grupo_1146719" data-name="Grupo 1146719" transform="translate(14.394 0.663)">
        <path id="Trazado_983328" data-name="Trazado 983328" d="M94.947,23.183h-.739a14.417,14.417,0,0,0-11.5-14.123V8.839a3.066,3.066,0,0,0-6.131,0v.221a14.422,14.422,0,0,0-11.5,14.123h-.739a2.744,2.744,0,1,0,0,5.487H94.947a2.744,2.744,0,1,0,0-5.487Z" transform="translate(-61.587 -5.775)" fill="#efbf27"/>
        <g id="Grupo_1146718" data-name="Grupo 1146718" transform="translate(22.612 6.509)">
          <path id="Trazado_983329" data-name="Trazado 983329" d="M152.962,38.949c-.033-.245-.076-.491-.128-.732a.665.665,0,1,1,1.3-.282c.06.276.109.559.146.839a.665.665,0,1,1-1.318.175Zm-.973-3.054a9.2,9.2,0,0,0-4.911-4.346.665.665,0,0,1,.467-1.245,10.522,10.522,0,0,1,5.621,4.973.665.665,0,0,1-1.177.619Z" transform="translate(-146.647 -30.261)" fill="#f7e4b0"/>
        </g>
      </g>
      <g id="Grupo_1146722" data-name="Grupo 1146722" transform="translate(7.292 24.442)">
        <g id="Grupo_1146720" data-name="Grupo 1146720" transform="translate(43.418)">
          <path id="Trazado_983330" data-name="Trazado 983330" d="M200.994,102.679c-.312-1.347-.519-2.237-2.345-2.841a.665.665,0,0,1,0-1.262c1.06-.35,1.826-.6,2.345-2.841a.665.665,0,0,1,1.295,0c.532,2.291,1.329,2.506,2.345,2.841a.665.665,0,0,1,0,1.262c-1.06.35-1.826.6-2.345,2.841A.665.665,0,0,1,200.994,102.679Z" transform="translate(-198.194 -95.223)"/>
          <path id="Trazado_983331" data-name="Trazado 983331" d="M209.015,106.518a3.527,3.527,0,0,0-1.148,1.3,3.69,3.69,0,0,0-1.215-1.289,3.533,3.533,0,0,0,1.2-1.356,3.6,3.6,0,0,0,1.162,1.345Z" transform="translate(-204.403 -102.528)" fill="#f0c020"/>
        </g>
        <g id="Grupo_1146721" data-name="Grupo 1146721" transform="translate(0)">
          <path id="Trazado_983332" data-name="Trazado 983332" d="M37.671,102.679c-.312-1.347-.519-2.237-2.345-2.841a.665.665,0,0,1,0-1.262c1.06-.35,1.826-.6,2.345-2.841a.665.665,0,0,1,1.295,0c.532,2.291,1.329,2.506,2.345,2.841a.665.665,0,0,1,0,1.262c-1.06.35-1.826.6-2.345,2.841A.665.665,0,0,1,37.671,102.679Z" transform="translate(-34.871 -95.223)"/>
          <path id="Trazado_983333" data-name="Trazado 983333" d="M45.691,106.518a3.527,3.527,0,0,0-1.148,1.3,3.69,3.69,0,0,0-1.215-1.289,3.533,3.533,0,0,0,1.2-1.356A3.6,3.6,0,0,0,45.691,106.518Z" transform="translate(-41.08 -102.528)" fill="#f0c020"/>
        </g>
      </g>
      <g id="Grupo_1146723" data-name="Grupo 1146723" transform="translate(17.099 23.559)">
        <path id="Trazado_983334" data-name="Trazado 983334" d="M118.215,160.847a1.077,1.077,0,0,1-.681.885,15.934,15.934,0,0,1-11.426,0,1.076,1.076,0,0,1-.681-.888,1.093,1.093,0,0,1,.1-.6c.412-.875.25-.533.71-1.5a1.092,1.092,0,0,1,.327-.4,1.079,1.079,0,0,1,1.047-.16,12.106,12.106,0,0,0,8.422,0,1.074,1.074,0,0,1,1.045.16,1.049,1.049,0,0,1,.33.4c.46.969.3.627.71,1.5A1.106,1.106,0,0,1,118.215,160.847Z" transform="translate(-96.472 -140.505)" fill="#efbf27"/>
        <path id="Trazado_983335" data-name="Trazado 983335" d="M81.851,109.73a1.087,1.087,0,0,0-.327.4c-.46.969-.3.627-.71,1.5a1.093,1.093,0,0,0-.1.6A15.33,15.33,0,0,1,71.76,98.286V91.9h2.757v6.385A12.583,12.583,0,0,0,81.851,109.73Z" transform="translate(-71.76 -91.9)" fill="#eee"/>
        <path id="Trazado_983336" data-name="Trazado 983336" d="M71.76,91.9h2.757v1.861H71.76Z" transform="translate(-71.76 -91.904)" fill="#aeaeae"/>
        <path id="Trazado_983337" data-name="Trazado 983337" d="M159.364,91.9v6.385a15.413,15.413,0,0,1-8.956,13.957,1.106,1.106,0,0,0-.1-.606c-.412-.875-.25-.533-.71-1.5a1.052,1.052,0,0,0-.33-.4,12.654,12.654,0,0,0,7.337-11.444V91.9Z" transform="translate(-128.665 -91.9)" fill="#eee"/>
        <path id="Trazado_983338" data-name="Trazado 983338" d="M176.87,91.9h2.757v1.861H176.87Z" transform="translate(-148.928 -91.904)" fill="#aeaeae"/>
      </g>
      <path id="Trazado_983339" data-name="Trazado 983339" d="M111.216,112.429l-2.748-2.749a1.595,1.595,0,1,1,2.256-2.255l1.621,1.621,4.365-4.365a1.595,1.595,0,1,1,2.256,2.255l-5.492,5.493A1.6,1.6,0,0,1,111.216,112.429Z" transform="translate(-81.268 -77.382)" fill="#0bbe6e"/>
      <g id="Grupo_1146724" data-name="Grupo 1146724">
        <path id="Trazado_983340" data-name="Trazado 983340" d="M170.756,182.6a.663.663,0,1,0,.941,0A.679.679,0,0,0,170.756,182.6Z" transform="translate(-127.198 -134.788)"/>
        <path id="Trazado_983341" data-name="Trazado 983341" d="M194.148,132.569a3.121,3.121,0,0,0-3.116,3.11l-.088,7.954v.008a1.435,1.435,0,0,1-.423,1.016l-7.646,7.648a1.875,1.875,0,0,1-2.565.077,1.793,1.793,0,0,1-.024-2.554l3.1-3.1a2.9,2.9,0,1,0-4.062-4.126c-1.715,1.716-.986.992-1.534,1.534a.664.664,0,0,0,0,.938.679.679,0,0,0,.941,0l1.534-1.531a1.566,1.566,0,0,1,2.241.024,1.6,1.6,0,0,1-.058,2.222l-3.1,3.1a3.117,3.117,0,0,0,.037,4.447,3.2,3.2,0,0,0,4.432-.093l7.646-7.648a2.787,2.787,0,0,0,.811-1.946l.085-7.957v-.005a1.786,1.786,0,1,1,3.573,0l-.088,10.971a2.026,2.026,0,0,1-.593,1.436l-12.457,12.46a3.056,3.056,0,0,0-.893,2.153v1.14a.665.665,0,0,0,1.329,0v-1.14a1.736,1.736,0,0,1,.5-1.215l12.457-12.46a3.327,3.327,0,0,0,.984-2.369l.085-10.974a3.12,3.12,0,0,0-3.11-3.121Z" transform="translate(-132.365 -98.199)"/>
        <path id="Trazado_983342" data-name="Trazado 983342" d="M152.761,189.652c-.891.891-.317.319-1.276,1.273a9.809,9.809,0,0,0-2.871,7.2c-.008.065-.005,7.426-.005,7.491a.666.666,0,0,0,1.332,0s0,0,0-.005c0-7.706.005-7.449.005-7.449a8.54,8.54,0,0,1,2.483-6.3c.093-.094,1.18-1.18,1.273-1.273a.663.663,0,0,0,0-.941A.684.684,0,0,0,152.761,189.652Z" transform="translate(-111.08 -139.969)"/>
        <path id="Trazado_983343" data-name="Trazado 983343" d="M30.446,209.963a.665.665,0,1,0,.941,0A.682.682,0,0,0,30.446,209.963Z" transform="translate(-24.188 -154.881)"/>
        <path id="Trazado_983344" data-name="Trazado 983344" d="M38.455,217.037a.679.679,0,0,0-.941,0,.664.664,0,0,0,0,.938l5.391,5.391a1.7,1.7,0,0,1,.5,1.215v1.14a.665.665,0,0,0,1.329,0v-1.14a3.056,3.056,0,0,0-.893-2.153Z" transform="translate(-29.376 -160.073)"/>
        <path id="Trazado_983345" data-name="Trazado 983345" d="M31.932,149.156,25.373,142.6a2.9,2.9,0,1,0-4.062,4.126l3.1,3.1a1.792,1.792,0,0,1-.024,2.554,1.875,1.875,0,0,1-2.565-.077l-7.646-7.648a1.429,1.429,0,0,1-.423-1.016l-.085-7.962v0a3.116,3.116,0,0,0-6.231.011l.088,10.982a3.369,3.369,0,0,0,.984,2.364l3.307,3.31a.685.685,0,0,0,.941,0,.668.668,0,0,0,0-.938s0,0,0,0l-3.31-3.307a2.018,2.018,0,0,1-.593-1.43L8.769,135.68a1.786,1.786,0,0,1,3.573.008l.085,7.962a2.775,2.775,0,0,0,.811,1.946l7.646,7.648a3.2,3.2,0,0,0,4.432.093,3.125,3.125,0,0,0,.04-4.447l-3.1-3.1a1.6,1.6,0,0,1-.058-2.222,1.566,1.566,0,0,1,2.241-.024l6.558,6.553a8.541,8.541,0,0,1,2.483,6.3s.005-.259.005,7.454a.665.665,0,0,0,1.329,0v-7.433a9.858,9.858,0,0,0-2.876-7.26Z" transform="translate(-7.44 -98.2)"/>
        <path id="Trazado_983346" data-name="Trazado 983346" d="M86.8,34.147a0,0,0,0,1,0,0,.667.667,0,0,0-.061-.938.685.685,0,0,0-.938.061l0,0a.665.665,0,0,0,1,.877Z" transform="translate(-64.849 -25.135)"/>
        <path id="Trazado_983347" data-name="Trazado 983347" d="M114.4,102.378l-3.895,3.895-1.151-1.151a2.26,2.26,0,1,0-3.2,3.2l2.748,2.749a2.259,2.259,0,0,0,3.2,0l5.493-5.492a2.259,2.259,0,1,0-3.2-3.2Zm2.256,2.256-5.493,5.493a.953.953,0,0,1-1.315,0h0l-2.749-2.749a.93.93,0,1,1,1.316-1.316l1.621,1.621a.664.664,0,0,0,.94,0l4.365-4.365a.93.93,0,1,1,1.316,1.316Z" transform="translate(-79.431 -75.549)"/>
        <path id="Trazado_983348" data-name="Trazado 983348" d="M84.767,47.646a16.053,16.053,0,0,0,9.055-14.422v-5.8a3.407,3.407,0,0,0-.707-6.741h-.09a15.08,15.08,0,0,0-11.5-13.994,3.73,3.73,0,0,0-7.433,0A14.952,14.952,0,0,0,68.325,9.5a.665.665,0,0,0-.109.933.678.678,0,0,0,.933.112,13.793,13.793,0,0,1,4.928-2.476V20.687H63.925a13.718,13.718,0,0,1,1.9-6.348.663.663,0,0,0-.231-.912.684.684,0,0,0-.912.231,15.09,15.09,0,0,0-2.089,7.029H62.5a3.407,3.407,0,0,0-.707,6.741v5.8a15.978,15.978,0,0,0,9.054,14.418,1.723,1.723,0,0,0,1.007,1.044,16.6,16.6,0,0,0,11.9,0A1.729,1.729,0,0,0,84.767,47.646Zm-2.982-3.759a11.446,11.446,0,0,1-7.951,0,1.729,1.729,0,0,0-1.311.029A11.91,11.91,0,0,1,65.88,33.224V27.5H89.736v5.721a11.968,11.968,0,0,1-6.646,10.694,1.717,1.717,0,0,0-1.3-.031ZM92.493,33.224a14.725,14.725,0,0,1-7.827,12.987c-.342-.728-.246-.525-.611-1.294a13.3,13.3,0,0,0,7.01-11.693V27.5h1.428Zm-.8-12.537H81.538V8.071A13.8,13.8,0,0,1,91.691,20.687ZM75.407,7.228a2.41,2.41,0,1,1,4.8.006V20.687h-4.8C75.407,6.152,75.407,7.423,75.407,7.228ZM60.419,24.1A2.086,2.086,0,0,1,62.5,22.016H93.115a2.079,2.079,0,1,1,0,4.157H62.5A2.089,2.089,0,0,1,60.419,24.1Zm2.7,9.129V27.5H64.55v5.721a13.247,13.247,0,0,0,7.009,11.7c-.369.778-.264.555-.61,1.29A14.664,14.664,0,0,1,63.123,33.224ZM83.28,47.446a15.269,15.269,0,0,1-10.949,0,.432.432,0,0,1-.217-.588c.4-.844.251-.537.71-1.5a.431.431,0,0,1,.539-.223,12.772,12.772,0,0,0,8.893,0,.439.439,0,0,1,.536.228c.474,1,.3.62.71,1.5a.431.431,0,0,1-.222.587Z" transform="translate(-45.359 -3.28)"/>
      </g>
    </g>
  </g>
</svg>
