<svg xmlns="http://www.w3.org/2000/svg" xmlns:xlink="http://www.w3.org/1999/xlink" width="108" height="108" viewBox="0 0 108 108">
  <defs>
    <filter id="Trazado_982549" x="0" y="0" width="108" height="108" filterUnits="userSpaceOnUse">
      <feOffset dy="3" input="SourceAlpha"/>
      <feGaussianBlur stdDeviation="3" result="blur"/>
      <feFlood flood-opacity="0.161"/>
      <feComposite operator="in" in2="blur"/>
      <feComposite in="SourceGraphic"/>
    </filter>
  </defs>
  <g id="Grupo_1146784" data-name="Grupo 1146784" transform="translate(-194.902 -1000.139)">
    <g id="Grupo_1146727" data-name="Grupo 1146727" transform="translate(203.902 1006.139)">
      <g id="Grupo_1146709" data-name="Grupo 1146709">
        <g id="Grupo_1146639" data-name="Grupo 1146639">
          <g transform="matrix(1, 0, 0, 1, -9, -6)" filter="url(#Trazado_982549)">
            <g id="Trazado_982549-2" data-name="Trazado 982549" transform="translate(9 6)" fill="#fef7e4">
              <path d="M 45 88.5 C 39.12687683105469 88.5 33.43022537231445 87.35007476806641 28.06830024719238 85.08217620849609 C 22.88852500915527 82.89131164550781 18.23629951477051 79.75458526611328 14.2408504486084 75.75914764404297 C 10.24541282653809 71.76370239257812 7.108687400817871 67.11147308349609 4.917825222015381 61.93170166015625 C 2.649924993515015 56.56977462768555 1.5 50.87312316894531 1.5 45 C 1.5 39.12687683105469 2.649924993515015 33.43022537231445 4.917825222015381 28.06830024719238 C 7.108687400817871 22.88852500915527 10.24541282653809 18.23629951477051 14.2408504486084 14.2408504486084 C 18.23629951477051 10.24541282653809 22.88852500915527 7.108687400817871 28.06830024719238 4.917825222015381 C 33.43022537231445 2.649924993515015 39.12687683105469 1.5 45 1.5 C 50.87312316894531 1.5 56.56977462768555 2.649924993515015 61.93170166015625 4.917825222015381 C 67.11147308349609 7.108687400817871 71.76370239257812 10.24541282653809 75.75914764404297 14.2408504486084 C 79.75458526611328 18.23629951477051 82.89131164550781 22.88852500915527 85.08217620849609 28.06830024719238 C 87.35007476806641 33.43022537231445 88.5 39.12687683105469 88.5 45 C 88.5 50.87312316894531 87.35007476806641 56.56977462768555 85.08217620849609 61.93170166015625 C 82.89131164550781 67.11147308349609 79.75458526611328 71.76370239257812 75.75914764404297 75.75914764404297 C 71.76370239257812 79.75458526611328 67.11147308349609 82.89131164550781 61.93170166015625 85.08217620849609 C 56.56977462768555 87.35007476806641 50.87312316894531 88.5 45 88.5 Z" stroke="none"/>
              <path d="M 45 3 C 39.32871246337891 3 33.82865524291992 4.110054016113281 28.65262985229492 6.299339294433594 C 23.65165710449219 8.414573669433594 19.15968322753906 11.44334411621094 15.301513671875 15.301513671875 C 11.44334411621094 19.15968322753906 8.414573669433594 23.65165710449219 6.299339294433594 28.65262985229492 C 4.110054016113281 33.82865524291992 3 39.32871246337891 3 45 C 3 50.67128753662109 4.110054016113281 56.17134475708008 6.299339294433594 61.34737396240234 C 8.414573669433594 66.34834289550781 11.44334411621094 70.84031677246094 15.301513671875 74.698486328125 C 19.15968322753906 78.55665588378906 23.65165710449219 81.58542633056641 28.65262985229492 83.70066070556641 C 33.82865524291992 85.88994598388672 39.32871246337891 87 45 87 C 50.67128753662109 87 56.17134475708008 85.88994598388672 61.34737396240234 83.70066070556641 C 66.34834289550781 81.58542633056641 70.84031677246094 78.55665588378906 74.698486328125 74.698486328125 C 78.55665588378906 70.84031677246094 81.58542633056641 66.34834289550781 83.70066070556641 61.34737396240234 C 85.88994598388672 56.17134475708008 87 50.67128753662109 87 45 C 87 39.32871246337891 85.88994598388672 33.82865524291992 83.70066070556641 28.65262985229492 C 81.58542633056641 23.65165710449219 78.55665588378906 19.15968322753906 74.698486328125 15.301513671875 C 70.84031677246094 11.44334411621094 66.34834289550781 8.414573669433594 61.34737396240234 6.299339294433594 C 56.17134475708008 4.110054016113281 50.67128753662109 3 45 3 M 45 0 C 69.85281372070312 0 90 20.14718627929688 90 45 C 90 69.85281372070312 69.85281372070312 90 45 90 C 20.14718627929688 90 0 69.85281372070312 0 45 C 0 20.14718627929688 20.14718627929688 0 45 0 Z" stroke="none" fill="#f2b71a"/>
            </g>
          </g>
        </g>
      </g>
    </g>
    <g id="recruitment" transform="translate(219.267 1019.101)">
      <path id="Trazado_983487" data-name="Trazado 983487" d="M58.505,37.475a.1.1,0,0,1-.008-.012,3.9,3.9,0,0,0-5.4-.817,3.79,3.79,0,0,0-.409-.69l0,0-.079-.105a3.9,3.9,0,0,0-5.455-.78l-5.533,4.145a3.925,3.925,0,0,0-.823-.089H25.084a15.455,15.455,0,0,0-4.117.54l-7.2,1.9-.032-2.772a.946.946,0,0,0-.946-.935H.636a.947.947,0,0,0-.946.958L-.069,59.6a.946.946,0,0,0,.946.935h12.15a.947.947,0,0,0,.946-.958l-.014-1.235h19.6c3.267,0,6.732-.378,9.943-3.122L57.844,42.981a3.948,3.948,0,0,0,.738-5.4ZM1.812,58.642l-.22-18.893H11.851l.22,18.893ZM48.285,36.579a2.01,2.01,0,0,1,2.807.4l.079.106a1.893,1.893,0,0,1,.339.745l-6.822,5.11a3.878,3.878,0,0,0-1.221-2.754Zm8.33,4.966L42.277,53.781C39.685,56,36.919,56.45,33.562,56.45H13.936l-.151-12.972a.941.941,0,0,0,.254-.031l7.409-1.954a13.468,13.468,0,0,1,3.633-.478h15.71a2,2,0,0,1,2,2v.365a1.988,1.988,0,0,1-.614,1.439c-.024.02-.046.04-.067.061a2,2,0,0,1-1.323.5H27.242a.946.946,0,1,0,0,1.892H40.794a3.884,3.884,0,0,0,2.606-1L54.178,38.2a2.008,2.008,0,0,1,2.8.4l.076.1.008.011a2.08,2.08,0,0,1-.449,2.836ZM6.833,52.646A2.345,2.345,0,1,0,9.179,54.99a2.346,2.346,0,0,0-2.346-2.343Zm0,2.8a.453.453,0,1,1,.454-.455A.455.455,0,0,1,6.833,55.445Zm46.2-35.75a6.882,6.882,0,1,0-10.269,0,8.273,8.273,0,0,0-2.43.745,7.622,7.622,0,0,0-1.7-.194c-1.428,0-3.262-.254-4.107-1.428v-.6A7.024,7.024,0,0,0,36.9,14.165h.284a1.972,1.972,0,0,0,1.97-1.969V10.169a1.971,1.971,0,0,0-1.269-1.837V6.311A6.322,6.322,0,0,0,31.567,0H28.423c-2.472,0-3.494,1.245-3.909,2.413A6.327,6.327,0,0,0,22.1,7.367v.96a1.97,1.97,0,0,0-1.282,1.842V12.2a1.971,1.971,0,0,0,1.97,1.969h.3a7.023,7.023,0,0,0,2.374,4.046v.6c-.845,1.173-2.68,1.428-4.107,1.428a7.554,7.554,0,0,0-1.7.2,8.425,8.425,0,0,0-2.432-.742A6.909,6.909,0,1,0,5.211,15.077,6.957,6.957,0,0,0,6.958,19.7,8.546,8.546,0,0,0-.31,28.152v4.726a.946.946,0,0,0,.946.946H59.352a.946.946,0,0,0,.946-.946V28.152a8.55,8.55,0,0,0-7.266-8.457ZM47.9,10.019a5.055,5.055,0,1,1-4.99,5.057A5.03,5.03,0,0,1,47.9,10.019ZM29.993,20.828l-1.312-1.085a7,7,0,0,0,2.625,0Zm-3.438-.387,1.914,1.582-1.266.959-1.065-2.172a4.631,4.631,0,0,0,.417-.369ZM29.993,23.9a.758.758,0,0,1-.554-.239l.554-.42.556.42A.765.765,0,0,1,29.993,23.9Zm1.524-1.877,1.914-1.582a4.611,4.611,0,0,0,.417.369l-1.065,2.172ZM37.262,12.2a.08.08,0,0,1-.078.077h-.158V10.092h.158a.079.079,0,0,1,.078.077ZM25.873,3.759a.944.944,0,0,0,.367-.526c.187-.7.582-1.341,2.184-1.341h3.144a4.428,4.428,0,0,1,4.427,4.419V7.16a13.342,13.342,0,0,1-7.2-2.318.947.947,0,0,0-1.309.337A3.615,3.615,0,0,1,24,7.16a4.439,4.439,0,0,1,1.87-3.4ZM22.715,12.2V10.169a.08.08,0,0,1,.078-.077h.171v2.18h-.171A.078.078,0,0,1,22.715,12.2Zm2.14.65V9a5.231,5.231,0,0,0,3.738-2.081,14.759,14.759,0,0,0,6.54,2.107v3.822a5.139,5.139,0,0,1-10.279,0ZM12.087,10.019A5.055,5.055,0,1,1,7.1,15.075a5.03,5.03,0,0,1,4.987-5.057ZM1.581,28.152A6.635,6.635,0,0,1,8.1,21.5H9.473a6.808,6.808,0,0,0,5.232,0h1.369a6.285,6.285,0,0,1,.977.086,7.592,7.592,0,0,0-3.3,6.258v4.091H6.1V30.172a.946.946,0,0,0-1.892,0v1.759H1.581Zm14.062-.311a5.716,5.716,0,0,1,5.712-5.707,9.727,9.727,0,0,0,3.106-.446l1.549,3.157a.947.947,0,0,0,.63.5.915.915,0,0,0,.219.026.946.946,0,0,0,.571-.192l.5-.377a2.657,2.657,0,0,0,.492.472l-1.338,6.655H21.249V30.173a.946.946,0,0,0-1.892,0v1.759H15.645V27.841Zm14.349-.793.982,4.884H29.011ZM40.63,31.931V30.172a.946.946,0,0,0-1.892,0v1.759H32.905l-1.338-6.655a2.649,2.649,0,0,0,.492-.471l.5.377a.946.946,0,0,0,.571.192.915.915,0,0,0,.219-.026.947.947,0,0,0,.63-.5l1.548-3.157a9.76,9.76,0,0,0,3.106.446,5.718,5.718,0,0,1,5.715,5.707v4.091Zm17.775,0H55.784V30.172a.946.946,0,0,0-1.892,0v1.759H46.237V27.841a7.592,7.592,0,0,0-3.3-6.259,6.45,6.45,0,0,1,.969-.084h1.377a6.811,6.811,0,0,0,5.233,0h1.369a6.634,6.634,0,0,1,6.522,6.655v3.779Z"/>
      <path id="Trazado_983488" data-name="Trazado 983488" d="M208.82,19.287a.946.946,0,0,1,1.309-.337,13.342,13.342,0,0,0,7.2,2.318v-.849A4.428,4.428,0,0,0,212.9,16h-3.144c-1.6,0-2,.644-2.184,1.341a.944.944,0,0,1-.367.526,4.443,4.443,0,0,0-1.87,3.4,3.613,3.613,0,0,0,3.479-1.982Z" transform="translate(-181.336 -14.108)" fill="#87523e"/>
      <path id="Trazado_983489" data-name="Trazado 983489" d="M271.221,173.269a4.456,4.456,0,0,1-.417-.369l-1.914,1.582,1.266.959Z" transform="translate(-237.373 -152.458)" fill="#ebeced"/>
      <path id="Trazado_983490" data-name="Trazado 983490" d="M374.419,181.83H373.05a6.811,6.811,0,0,1-5.233,0h-1.377a6.447,6.447,0,0,0-.969.084,7.592,7.592,0,0,1,3.3,6.259v4.091h7.655V190.5a.946.946,0,0,1,1.892,0v1.759h2.621v-3.78A6.632,6.632,0,0,0,374.419,181.83Z" transform="translate(-322.534 -160.332)" fill="#82aee3"/>
      <path id="Trazado_983491" data-name="Trazado 983491" d="M146.915,186.558l-.5.377a.946.946,0,0,1-.571.192.915.915,0,0,1-.219-.026.947.947,0,0,1-.63-.5l-1.549-3.157a9.76,9.76,0,0,1-3.106.446,5.715,5.715,0,0,0-5.712,5.707v4.091h3.712v-1.759a.946.946,0,0,1,1.892,0v1.759h5.833l1.338-6.655A2.641,2.641,0,0,1,146.915,186.558Z" transform="translate(-118.986 -161.752)" fill="#ebeced"/>
      <path id="Trazado_983492" data-name="Trazado 983492" d="M223.39,173.269l1.065,2.172,1.266-.959-1.914-1.582A4.63,4.63,0,0,1,223.39,173.269Z" transform="translate(-197.252 -152.458)" fill="#ebeced"/>
      <path id="Trazado_983493" data-name="Trazado 983493" d="M67.357,94.85A5.055,5.055,0,1,0,62.37,89.8,5.028,5.028,0,0,0,67.357,94.85Z" transform="translate(-55.27 -74.721)" fill="#ffcebf"/>
      <path id="Trazado_983494" data-name="Trazado 983494" d="M217.678,69.569a5.141,5.141,0,0,0,5.141-5.13V60.617a14.759,14.759,0,0,1-6.54-2.107,5.234,5.234,0,0,1-3.738,2.081v3.848A5.141,5.141,0,0,0,217.678,69.569Z" transform="translate(-187.685 -51.592)" fill="#ffcebf"/>
      <path id="Trazado_983495" data-name="Trazado 983495" d="M31.158,181.906a6.589,6.589,0,0,0-.977-.086H28.812a6.808,6.808,0,0,1-5.232,0H22.207a6.635,6.635,0,0,0-6.517,6.655v3.78h2.625V190.5a.946.946,0,0,1,1.892,0v1.759h7.655v-4.091A7.588,7.588,0,0,1,31.158,181.906Z" transform="translate(-14.109 -160.324)" fill="#82aee3"/>
      <path id="Trazado_983496" data-name="Trazado 983496" d="M276.373,183.886a9.727,9.727,0,0,1-3.106-.446L271.72,186.6a.943.943,0,0,1-.63.5.914.914,0,0,1-.219.026.946.946,0,0,1-.571-.192l-.5-.377a2.649,2.649,0,0,1-.492.471l1.338,6.655h5.833v-1.759a.946.946,0,1,1,1.892,0v1.759h3.716v-4.091A5.719,5.719,0,0,0,276.373,183.886Z" transform="translate(-237.743 -161.752)" fill="#ebeced"/>
      <path id="Trazado_983497" data-name="Trazado 983497" d="M247.69,233.654h1.965l-.982-4.884Z" transform="translate(-218.679 -201.723)" fill="#fe646f"/>
      <path id="Trazado_983498" data-name="Trazado 983498" d="M244.9,166.99l1.312,1.085,1.312-1.085a7.065,7.065,0,0,1-1.312.124A6.869,6.869,0,0,1,244.9,166.99Z" transform="translate(-216.219 -147.247)" fill="#ffcebf"/>
      <path id="Trazado_983499" data-name="Trazado 983499" d="M252.42,197.01l-.556-.42-.555.42a.765.765,0,0,0,1.11,0Z" transform="translate(-221.871 -173.347)" fill="#fe646f"/>
      <path id="Trazado_983500" data-name="Trazado 983500" d="M371.191,312.777l6.822-5.11a1.893,1.893,0,0,0-.339-.745l-.079-.106a2.01,2.01,0,0,0-2.807-.4l-4.818,3.61A3.878,3.878,0,0,1,371.191,312.777Z" transform="translate(-326.502 -269.835)" fill="#ffcebf"/>
      <path id="Trazado_983501" data-name="Trazado 983501" d="M162.2,320.606l-.076-.1a2.008,2.008,0,0,0-2.8-.4l-10.778,8.073a3.882,3.882,0,0,1-2.606,1H132.384a.946.946,0,1,1,0-1.892h13.553a2,2,0,0,0,1.323-.5.824.824,0,0,1,.067-.061,1.992,1.992,0,0,0,.614-1.439v-.365a2,2,0,0,0-2-2h-15.71a13.469,13.469,0,0,0-3.633.478l-7.409,1.954a.939.939,0,0,1-.254.031l.151,12.972h19.625c3.357,0,6.122-.454,8.715-2.668l14.339-12.237a2.079,2.079,0,0,0,.448-2.835Z" transform="translate(-105.143 -281.907)" fill="#ffcebf"/>
      <path id="Trazado_983502" data-name="Trazado 983502" d="M15.78,336.2,16,355.093H26.259l-.22-18.893Zm5.241,17.588a2.345,2.345,0,1,1,2.346-2.347A2.348,2.348,0,0,1,21.021,353.788Z" transform="translate(-14.188 -296.451)" fill="#425f77"/>
      <path id="Trazado_983503" data-name="Trazado 983503" d="M56.733,461.29a.453.453,0,1,0,.454.452A.453.453,0,0,0,56.733,461.29Z" transform="translate(-49.9 -406.752)" fill="#3c586b"/>
      <g id="Grupo_1146783" data-name="Grupo 1146783" transform="translate(22.715 10.019)">
        <path id="Trazado_983504" data-name="Trazado 983504" d="M194.44,85.437v2.028a.08.08,0,0,0,.078.077h.171V85.36h-.171A.078.078,0,0,0,194.44,85.437Z" transform="translate(-194.44 -85.287)" fill="#ffcebf"/>
        <path id="Trazado_983505" data-name="Trazado 983505" d="M315.716,87.464V85.437a.08.08,0,0,0-.078-.077h-.158v2.18h.158A.079.079,0,0,0,315.716,87.464Z" transform="translate(-301.17 -85.287)" fill="#ffcebf"/>
        <path id="Trazado_983506" data-name="Trazado 983506" d="M370.23,94.85a5.055,5.055,0,1,0-4.99-5.053A5.028,5.028,0,0,0,370.23,94.85Z" transform="translate(-345.046 -84.74)" fill="#ffcebf"/>
      </g>
    </g>
  </g>
</svg>
