<svg xmlns="http://www.w3.org/2000/svg" xmlns:xlink="http://www.w3.org/1999/xlink" width="108" height="108" viewBox="0 0 108 108">
  <defs>
    <filter id="Trazado_982549" x="0" y="0" width="108" height="108" filterUnits="userSpaceOnUse">
      <feOffset dy="3" input="SourceAlpha"/>
      <feGaussianBlur stdDeviation="3" result="blur"/>
      <feFlood flood-opacity="0.161"/>
      <feComposite operator="in" in2="blur"/>
      <feComposite in="SourceGraphic"/>
    </filter>
  </defs>
  <g id="Grupo_1147029" data-name="Grupo 1147029" transform="translate(-622.951 -2578.038)">
    <g id="Grupo_1146766" data-name="Grupo 1146766" transform="translate(0.049 100.038)">
      <g id="Grupo_1146639" data-name="Grupo 1146639" transform="translate(421.902 1321)">
        <g transform="matrix(1, 0, 0, 1, 201, 1157)" filter="url(#Trazado_982549)">
          <g id="Trazado_982549-2" data-name="Trazado 982549" transform="translate(9 6)" fill="#eafbf9">
            <path d="M 45 88.5 C 39.12687683105469 88.5 33.43022537231445 87.35007476806641 28.06830024719238 85.08217620849609 C 22.88852500915527 82.89131164550781 18.23629951477051 79.75458526611328 14.2408504486084 75.75914764404297 C 10.24541282653809 71.76370239257812 7.108687400817871 67.11147308349609 4.917825222015381 61.93170166015625 C 2.649924993515015 56.56977462768555 1.5 50.87312316894531 1.5 45 C 1.5 39.12687683105469 2.649924993515015 33.43022537231445 4.917825222015381 28.06830024719238 C 7.108687400817871 22.88852500915527 10.24541282653809 18.23629951477051 14.2408504486084 14.2408504486084 C 18.23629951477051 10.24541282653809 22.88852500915527 7.108687400817871 28.06830024719238 4.917825222015381 C 33.43022537231445 2.649924993515015 39.12687683105469 1.5 45 1.5 C 50.87312316894531 1.5 56.56977462768555 2.649924993515015 61.93170166015625 4.917825222015381 C 67.11147308349609 7.108687400817871 71.76370239257812 10.24541282653809 75.75914764404297 14.2408504486084 C 79.75458526611328 18.23629951477051 82.89131164550781 22.88852500915527 85.08217620849609 28.06830024719238 C 87.35007476806641 33.43022537231445 88.5 39.12687683105469 88.5 45 C 88.5 50.87312316894531 87.35007476806641 56.56977462768555 85.08217620849609 61.93170166015625 C 82.89131164550781 67.11147308349609 79.75458526611328 71.76370239257812 75.75914764404297 75.75914764404297 C 71.76370239257812 79.75458526611328 67.11147308349609 82.89131164550781 61.93170166015625 85.08217620849609 C 56.56977462768555 87.35007476806641 50.87312316894531 88.5 45 88.5 Z" stroke="none"/>
            <path d="M 45 3 C 39.32871246337891 3 33.82865524291992 4.110054016113281 28.65262985229492 6.299339294433594 C 23.65165710449219 8.414573669433594 19.15968322753906 11.44334411621094 15.301513671875 15.301513671875 C 11.44334411621094 19.15968322753906 8.414573669433594 23.65165710449219 6.299339294433594 28.65262985229492 C 4.110054016113281 33.82865524291992 3 39.32871246337891 3 45 C 3 50.67128753662109 4.110054016113281 56.17134475708008 6.299339294433594 61.34737396240234 C 8.414573669433594 66.34834289550781 11.44334411621094 70.84031677246094 15.301513671875 74.698486328125 C 19.15968322753906 78.55665588378906 23.65165710449219 81.58542633056641 28.65262985229492 83.70066070556641 C 33.82865524291992 85.88994598388672 39.32871246337891 87 45 87 C 50.67128753662109 87 56.17134475708008 85.88994598388672 61.34737396240234 83.70066070556641 C 66.34834289550781 81.58542633056641 70.84031677246094 78.55665588378906 74.698486328125 74.698486328125 C 78.55665588378906 70.84031677246094 81.58542633056641 66.34834289550781 83.70066070556641 61.34737396240234 C 85.88994598388672 56.17134475708008 87 50.67128753662109 87 45 C 87 39.32871246337891 85.88994598388672 33.82865524291992 83.70066070556641 28.65262985229492 C 81.58542633056641 23.65165710449219 78.55665588378906 19.15968322753906 74.698486328125 15.301513671875 C 70.84031677246094 11.44334411621094 66.34834289550781 8.414573669433594 61.34737396240234 6.299339294433594 C 56.17134475708008 4.110054016113281 50.67128753662109 3 45 3 M 45 0 C 69.85281372070312 0 90 20.14718627929688 90 45 C 90 69.85281372070312 69.85281372070312 90 45 90 C 20.14718627929688 90 0 69.85281372070312 0 45 C 0 20.14718627929688 20.14718627929688 0 45 0 Z" stroke="none" fill="#3cddca"/>
          </g>
        </g>
      </g>
    </g>
    <g id="risk-management" transform="translate(597.885 2575.758)">
      <path id="Trazado_984268" data-name="Trazado 984268" d="M183.6,62.02l-3.708-1.889L176.32,63.7l1.89,3.709a15.186,15.186,0,0,0-1.641,3.958l-3.957,1.286v5.052l3.957,1.286a15.2,15.2,0,0,0,1.641,3.958l-1.89,3.709,3.573,3.573,3.709-1.89a15.186,15.186,0,0,0,3.959,1.642l1.285,3.956H193.9l1.286-3.957a15.2,15.2,0,0,0,3.958-1.641l3.709,1.89,3.573-3.573-1.89-3.709a15.185,15.185,0,0,0,1.642-3.959l3.956-1.285V72.655l-3.957-1.286a15.2,15.2,0,0,0-1.641-3.958l1.89-3.709L202.85,60.13l-3.709,1.89a15.19,15.19,0,0,0-3.959-1.642L193.9,56.422h-5.052l-1.285,3.956A15.2,15.2,0,0,0,183.6,62.02Zm7.77,3.659a9.5,9.5,0,1,1-9.5,9.5A9.5,9.5,0,0,1,191.371,65.679Z" transform="translate(-105.186 -32.261)" fill="#fa6e85" fill-rule="evenodd"/>
      <path id="Trazado_984269" data-name="Trazado 984269" d="M95.155,301.42,108.929,294a3.95,3.95,0,0,1,3.612-.122l9.326,4.239a2.613,2.613,0,0,1,1.464,3.035l-.056.222c1.674.024,2.788.166,4.315-.815,3.1-1.992,14.238-10.109,17.094-10.132a3.068,3.068,0,0,1,2.81,1c2.264,2.85-19.07,19.213-25.294,20.1-11.774,1.678-8.7-3.738-19.868,1.848Z" transform="translate(-39.381 -231.068)" fill="#fcd4a9" fill-rule="evenodd"/>
      <path id="Trazado_984270" data-name="Trazado 984270" d="M57.053,343.686l3.221-1.5a2.109,2.109,0,0,1,2.787,1.018l6.723,14.247a2.1,2.1,0,0,1-1.018,2.788l-3.221,1.5a2.109,2.109,0,0,1-2.788-1.018l-6.723-14.247A2.1,2.1,0,0,1,57.053,343.686Z" transform="translate(-5.978 -274.876)" fill="#88c8fe" fill-rule="evenodd"/>
      <path id="Trazado_984271" data-name="Trazado 984271" d="M101.445,26.642l13.6,23.557a2.414,2.414,0,0,1-2.094,3.627h-27.2A2.414,2.414,0,0,1,83.656,50.2l13.6-23.557a2.415,2.415,0,0,1,4.188,0Z" transform="translate(-29.332 -5.931)" fill="#ffe177" fill-rule="evenodd"/>
      <path id="Trazado_984272" data-name="Trazado 984272" d="M177.453,79.375l1.133-8.123A2.123,2.123,0,0,0,176.3,69h-.23a2.123,2.123,0,0,0-2.287,2.254l1.133,8.123a1.315,1.315,0,0,0,2.537,0Z" transform="translate(-106.166 -42.945)" fill="#88c8fe" fill-rule="evenodd"/>
      <path id="Trazado_984273" data-name="Trazado 984273" d="M177.674,162.829a2.156,2.156,0,1,1-2.156,2.156A2.156,2.156,0,0,1,177.674,162.829Z" transform="translate(-107.655 -122.662)" fill="#88c8fe" fill-rule="evenodd"/>
      <path id="Trazado_984274" data-name="Trazado 984274" d="M70.016,43.423a1.1,1.1,0,1,1,1.1-1.1A1.1,1.1,0,0,1,70.016,43.423Zm0-4.312a3.212,3.212,0,1,0,3.212,3.212A3.216,3.216,0,0,0,70.016,39.111Zm-1.1-11.629a1.488,1.488,0,0,1,1.213-.373c.7,0,1.324.457,1.242,1.052L70.24,36.272c-.039.089-.409.088-.448,0L68.66,28.161A.739.739,0,0,1,68.917,27.482ZM67.7,36.577a2.366,2.366,0,0,0,4.631,0l1.133-8.125A3.173,3.173,0,0,0,70.13,25H69.9a3.173,3.173,0,0,0-3.333,3.456ZM55.236,44.8a1.357,1.357,0,0,0,1.179,2.042h27.2A1.357,1.357,0,0,0,84.8,44.8L71.2,21.243a1.353,1.353,0,0,0-2.359,0ZM86.625,43.74l-4.69-8.123a8.446,8.446,0,1,1-1.671,13.334h3.353A3.474,3.474,0,0,0,86.625,43.74Zm-3.993-14.6a1.052,1.052,0,0,0,.742-.7l1.049-3.227h3.517l1.048,3.227a1.052,1.052,0,0,0,.742.7,14.17,14.17,0,0,1,3.682,1.528,1.056,1.056,0,0,0,1.018.032l3.023-1.541,2.489,2.487L98.4,34.671a1.055,1.055,0,0,0,.032,1.016,14.169,14.169,0,0,1,1.528,3.684,1.05,1.05,0,0,0,.7.741l3.228,1.049V44.68l-3.228,1.048a1.052,1.052,0,0,0-.7.742,14.181,14.181,0,0,1-1.528,3.682A1.059,1.059,0,0,0,98.4,51.17l1.542,3.025-2.489,2.487-3.023-1.54a1.054,1.054,0,0,0-1.018.03A14.134,14.134,0,0,1,89.732,56.7a1.054,1.054,0,0,0-.742.7l-1.048,3.227H84.424L83.375,57.4a1.056,1.056,0,0,0-.742-.7,14.057,14.057,0,0,1-3.682-1.528,1.059,1.059,0,0,0-1.018-.03l-3.024,1.54L72.42,54.195l1.543-3.025a1.059,1.059,0,0,0-.033-1.018,13.507,13.507,0,0,1-.633-1.2h4.219a10.557,10.557,0,1,0,3.364-15.163l-1.834-3.176a14.184,14.184,0,0,1,3.587-1.473ZM56.415,48.951H70.995a16.387,16.387,0,0,0,.827,1.766l-1.632,3.2a1.06,1.06,0,0,0,.194,1.227l3.573,3.573a1.058,1.058,0,0,0,1.227.195l3.2-1.632a16.187,16.187,0,0,0,3.155,1.309l1.11,3.417a1.056,1.056,0,0,0,1,.729h5.052a1.056,1.056,0,0,0,1-.729l1.11-3.417a16.184,16.184,0,0,0,3.156-1.309l3.2,1.632a1.058,1.058,0,0,0,1.226-.195l3.573-3.573a1.059,1.059,0,0,0,.194-1.227l-1.632-3.2a16.342,16.342,0,0,0,1.309-3.156l3.415-1.11a1.059,1.059,0,0,0,.731-1V40.394a1.056,1.056,0,0,0-.731-1l-3.417-1.111a16.233,16.233,0,0,0-1.308-3.156l1.632-3.2a1.059,1.059,0,0,0-.194-1.227l-3.573-3.571a1.055,1.055,0,0,0-1.226-.195l-3.2,1.631a16.231,16.231,0,0,0-3.156-1.308l-1.11-3.416a1.056,1.056,0,0,0-1-.729H83.656a1.056,1.056,0,0,0-1,.729l-1.11,3.416a16.2,16.2,0,0,0-3.155,1.308l-.742-.377-4.62-8a3.475,3.475,0,0,0-6.017,0L53.407,43.74a3.474,3.474,0,0,0,3.009,5.211Zm48.068,15.688c2.393-2.448,2.7-3.462,2.732-3.7-.4-.457-.852-.535-1.907-.525-.36,0-1.639.283-5.768,2.818-2.707,1.662-5.747,3.742-7.968,5.261-1.153.789-2.149,1.47-2.795,1.885a6.134,6.134,0,0,1-3.509,1l-.658-.01a3.441,3.441,0,0,1-4.15,1.869l-6.206-2.256-2.781.409a1.056,1.056,0,0,1-.306-2.09l3.044-.448a1.063,1.063,0,0,1,.514.052l6.456,2.349c.716.26,1.5-.46,1.684-1.206l.056-.222a1.557,1.557,0,0,0-.877-1.817L72.72,63.776a2.913,2.913,0,0,0-2.674.09l-11.088,5.97,5.087,10.777c5.234-2.423,7.1-2.157,9.817-1.489a20.029,20.029,0,0,0,8.8.3c2.5-.356,8.488-3.854,14.562-8.506A71.046,71.046,0,0,0,104.484,64.639Zm-41.6,19.175a1.033,1.033,0,0,1-.54.594l-3.223,1.5a1.051,1.051,0,0,1-1.387-.512L51.009,71.148a1.043,1.043,0,0,1,.508-1.379l3.221-1.5a1.052,1.052,0,0,1,1.388.512L62.85,83.03A1.014,1.014,0,0,1,62.882,83.814Zm46.054-24.106a4.054,4.054,0,0,0-3.645-1.4c-2.4.02-8.419,4.006-14.911,8.448-1.139.779-2.124,1.453-2.745,1.852a4.077,4.077,0,0,1-2.557.665,3.69,3.69,0,0,0-2.158-3.18l-9.325-4.238a5.023,5.023,0,0,0-4.55.153L58.056,67.922l-.02-.042a3.168,3.168,0,0,0-4.188-1.526l-3.222,1.5a3.16,3.16,0,0,0-1.527,4.2L55.822,86.3a3.169,3.169,0,0,0,4.188,1.526l3.221-1.5a3.152,3.152,0,0,0,1.684-3.787c4.84-2.247,6.229-1.907,8.442-1.363a21.882,21.882,0,0,0,9.607.338c3.283-.469,9.655-4.515,14.521-8.146s10.48-8.53,11.609-11.364A2.175,2.175,0,0,0,108.936,59.708Z" fill="#1e2f3f" fill-rule="evenodd"/>
    </g>
  </g>
</svg>
