<svg xmlns="http://www.w3.org/2000/svg" xmlns:xlink="http://www.w3.org/1999/xlink" width="108" height="108" viewBox="0 0 108 108">
  <defs>
    <filter id="Trazado_982549" x="0" y="0" width="108" height="108" filterUnits="userSpaceOnUse">
      <feOffset dy="3" input="SourceAlpha"/>
      <feGaussianBlur stdDeviation="3" result="blur"/>
      <feFlood flood-opacity="0.161"/>
      <feComposite operator="in" in2="blur"/>
      <feComposite in="SourceGraphic"/>
    </filter>
  </defs>
  <g id="Grupo_1147077" data-name="Grupo 1147077" transform="translate(9 6)">
    <g id="Grupo_1146779" data-name="Grupo 1146779">
      <g id="Grupo_1146639" data-name="Grupo 1146639">
        <g transform="matrix(1, 0, 0, 1, -9, -6)" filter="url(#Trazado_982549)">
          <g id="Trazado_982549-2" data-name="Trazado 982549" transform="translate(9 6)" fill="#f3f3f3">
            <path d="M 45 88.5 C 39.12687683105469 88.5 33.43022537231445 87.35007476806641 28.06830024719238 85.08217620849609 C 22.88852500915527 82.89131164550781 18.23629951477051 79.75458526611328 14.2408504486084 75.75914764404297 C 10.24541282653809 71.76370239257812 7.108687400817871 67.11147308349609 4.917825222015381 61.93170166015625 C 2.649924993515015 56.56977462768555 1.5 50.87312316894531 1.5 45 C 1.5 39.12687683105469 2.649924993515015 33.43022537231445 4.917825222015381 28.06830024719238 C 7.108687400817871 22.88852500915527 10.24541282653809 18.23629951477051 14.2408504486084 14.2408504486084 C 18.23629951477051 10.24541282653809 22.88852500915527 7.108687400817871 28.06830024719238 4.917825222015381 C 33.43022537231445 2.649924993515015 39.12687683105469 1.5 45 1.5 C 50.87312316894531 1.5 56.56977462768555 2.649924993515015 61.93170166015625 4.917825222015381 C 67.11147308349609 7.108687400817871 71.76370239257812 10.24541282653809 75.75914764404297 14.2408504486084 C 79.75458526611328 18.23629951477051 82.89131164550781 22.88852500915527 85.08217620849609 28.06830024719238 C 87.35007476806641 33.43022537231445 88.5 39.12687683105469 88.5 45 C 88.5 50.87312316894531 87.35007476806641 56.56977462768555 85.08217620849609 61.93170166015625 C 82.89131164550781 67.11147308349609 79.75458526611328 71.76370239257812 75.75914764404297 75.75914764404297 C 71.76370239257812 79.75458526611328 67.11147308349609 82.89131164550781 61.93170166015625 85.08217620849609 C 56.56977462768555 87.35007476806641 50.87312316894531 88.5 45 88.5 Z" stroke="none"/>
            <path d="M 45 3 C 39.32871246337891 3 33.82865524291992 4.110054016113281 28.65262985229492 6.299339294433594 C 23.65165710449219 8.414573669433594 19.15968322753906 11.44334411621094 15.301513671875 15.301513671875 C 11.44334411621094 19.15968322753906 8.414573669433594 23.65165710449219 6.299339294433594 28.65262985229492 C 4.110054016113281 33.82865524291992 3 39.32871246337891 3 45 C 3 50.67128753662109 4.110054016113281 56.17134475708008 6.299339294433594 61.34737396240234 C 8.414573669433594 66.34834289550781 11.44334411621094 70.84031677246094 15.301513671875 74.698486328125 C 19.15968322753906 78.55665588378906 23.65165710449219 81.58542633056641 28.65262985229492 83.70066070556641 C 33.82865524291992 85.88994598388672 39.32871246337891 87 45 87 C 50.67128753662109 87 56.17134475708008 85.88994598388672 61.34737396240234 83.70066070556641 C 66.34834289550781 81.58542633056641 70.84031677246094 78.55665588378906 74.698486328125 74.698486328125 C 78.55665588378906 70.84031677246094 81.58542633056641 66.34834289550781 83.70066070556641 61.34737396240234 C 85.88994598388672 56.17134475708008 87 50.67128753662109 87 45 C 87 39.32871246337891 85.88994598388672 33.82865524291992 83.70066070556641 28.65262985229492 C 81.58542633056641 23.65165710449219 78.55665588378906 19.15968322753906 74.698486328125 15.301513671875 C 70.84031677246094 11.44334411621094 66.34834289550781 8.414573669433594 61.34737396240234 6.299339294433594 C 56.17134475708008 4.110054016113281 50.67128753662109 3 45 3 M 45 0 C 69.85281372070312 0 90 20.14718627929688 90 45 C 90 69.85281372070312 69.85281372070312 90 45 90 C 20.14718627929688 90 0 69.85281372070312 0 45 C 0 20.14718627929688 20.14718627929688 0 45 0 Z" stroke="none" fill="#f97c61"/>
          </g>
        </g>
      </g>
    </g>
    <g id="worker" transform="translate(10.936 9.775)">
      <path id="Trazado_984276" data-name="Trazado 984276" d="M45.323,23.872H43.17a1.253,1.253,0,0,1-1.2-.935,15.4,15.4,0,0,0-1.5-3.612,1.227,1.227,0,0,1,.186-1.483L42.188,16.3a1.217,1.217,0,0,0,0-1.721l-2.731-2.731a1.217,1.217,0,0,0-1.721,0L36.2,13.389a1.227,1.227,0,0,1-1.484.186,15.4,15.4,0,0,0-3.612-1.5,1.253,1.253,0,0,1-.934-1.2V8.717A1.217,1.217,0,0,0,28.951,7.5H25.088a1.217,1.217,0,0,0-1.217,1.217V10.87a1.253,1.253,0,0,1-.934,1.2,15.387,15.387,0,0,0-3.612,1.5,1.227,1.227,0,0,1-1.484-.186L16.3,11.852a1.217,1.217,0,0,0-1.721,0l-2.731,2.731a1.217,1.217,0,0,0,0,1.721l1.537,1.537a1.228,1.228,0,0,1,.186,1.484,15.375,15.375,0,0,0-1.5,3.612,1.253,1.253,0,0,1-1.2.934H8.717A1.217,1.217,0,0,0,7.5,25.089v3.863a1.217,1.217,0,0,0,1.217,1.217H10.87a1.253,1.253,0,0,1,1.2.935,15.392,15.392,0,0,0,1.5,3.611,1.228,1.228,0,0,1-.186,1.484l-1.537,1.537a1.217,1.217,0,0,0,0,1.721l2.731,2.731a1.217,1.217,0,0,0,1.721,0l1.538-1.537a1.227,1.227,0,0,1,1.483-.186,15.405,15.405,0,0,0,3.612,1.5,1.254,1.254,0,0,1,.935,1.205v2.153a1.217,1.217,0,0,0,1.217,1.217h3.863a1.217,1.217,0,0,0,1.217-1.217V43.171a1.254,1.254,0,0,1,.935-1.205,15.4,15.4,0,0,0,3.612-1.5,1.227,1.227,0,0,1,1.483.186l1.537,1.537a1.217,1.217,0,0,0,1.721,0l2.731-2.731a1.217,1.217,0,0,0,0-1.721L40.65,36.2a1.228,1.228,0,0,1-.186-1.484,15.4,15.4,0,0,0,1.5-3.612,1.253,1.253,0,0,1,1.2-.934h2.153a1.217,1.217,0,0,0,1.217-1.217V25.089a1.216,1.216,0,0,0-1.217-1.217ZM27.02,35.15a8.13,8.13,0,1,1,8.13-8.13A8.129,8.129,0,0,1,27.02,35.15Zm0,0" transform="translate(-6.535 -6.535)" fill="#8ebac5"/>
      <path id="Trazado_984277" data-name="Trazado 984277" d="M238.882,280.309l-3.475-6.884v-7.535h-10.72v7.535l-3.475,6.884Zm0,0" transform="translate(-192.751 -231.682)" fill="#bb5d4c"/>
      <path id="Trazado_984278" data-name="Trazado 984278" d="M301.547,265.891v14.418h7.335l-3.475-6.884v-7.535Zm0,0" transform="translate(-262.751 -231.682)" fill="#a44f3e"/>
      <path id="Trazado_984279" data-name="Trazado 984279" d="M216.117,106.153h-.68v-2.709a9.3,9.3,0,0,0-3.151-7.069,10.219,10.219,0,0,0-13.658,0,9.3,9.3,0,0,0-3.151,7.069v2.709h-.68a1.806,1.806,0,0,0-1.806,1.806v2a1.806,1.806,0,0,0,1.806,1.806h.683a9.286,9.286,0,0,0,3.148,6.858,10.219,10.219,0,0,0,13.658,0,9.283,9.283,0,0,0,3.148-6.858h.683a1.806,1.806,0,0,0,1.806-1.806v-2a1.807,1.807,0,0,0-1.807-1.806Zm0,0" transform="translate(-168.162 -81.696)" fill="#bb5d4c"/>
      <path id="Trazado_984280" data-name="Trazado 984280" d="M312.292,119.427h-.68v-2.709a9.3,9.3,0,0,0-3.151-7.069c-.262-.226-.543-.445-.839-.657v17.663a9.286,9.286,0,0,1-3.148,6.858,11.5,11.5,0,0,1-1.106.841,10.569,10.569,0,0,0,5.094-2.456,9.286,9.286,0,0,0,3.148-6.858h.684a1.806,1.806,0,0,0,1.806-1.806v-2a1.807,1.807,0,0,0-1.807-1.806Zm0,0" transform="translate(-264.337 -94.97)" fill="#a44f3e"/>
      <path id="Trazado_984281" data-name="Trazado 984281" d="M209.016,70.328h-1.045a11.5,11.5,0,0,0-11.5,11.5v3.31h24.035v-3.31a11.5,11.5,0,0,0-11.5-11.5Zm0,0" transform="translate(-171.198 -61.28)" fill="#ff9838"/>
      <path id="Trazado_984282" data-name="Trazado 984282" d="M277.09,70.328h-1.045a11.6,11.6,0,0,0-1.444.091,11.5,11.5,0,0,1,10.038,11.4v3.309h3.946V81.823a11.5,11.5,0,0,0-11.5-11.5Zm0,0" transform="translate(-239.272 -61.28)" fill="#ff8709"/>
      <path id="Trazado_984283" data-name="Trazado 984283" d="M207.112,175.925H182.339a1.664,1.664,0,1,1,0-3.328h24.773a1.664,1.664,0,0,1,0,3.328Zm0,0" transform="translate(-157.43 -150.392)" fill="#ff8709"/>
      <path id="Trazado_984284" data-name="Trazado 984284" d="M142.14,326.705l-11.581-2.252c0,2.961-5.36,5.36-5.36,5.36s-5.36-2.4-5.36-5.36l-11.581,2.252c-4.373,1.288-7.375,3.572-7.375,8.13v9.815a2.967,2.967,0,0,0,2.967,2.967h42.7a2.967,2.967,0,0,0,2.967-2.967v-9.815C149.516,330.277,146.513,327.993,142.14,326.705Zm0,0" transform="translate(-87.904 -282.71)" fill="#deecf1"/>
      <path id="Trazado_984285" data-name="Trazado 984285" d="M438.008,347.836a7.32,7.32,0,0,1,1.4,4.544v15.612h.893a2.967,2.967,0,0,0,2.967-2.967V355.21c0-3.778-2.064-5.993-5.259-7.374Zm0,0" transform="translate(-381.655 -303.085)" fill="#a8d3d8"/>
      <path id="Trazado_984286" data-name="Trazado 984286" d="M218.832,324.453l-4.34.844c.258,2.4,2.392,4.58,4.593,6.215a1.9,1.9,0,0,0,2.109.1l3-1.8S218.832,327.414,218.832,324.453Zm0,0" transform="translate(-186.896 -282.71)" fill="#8ebac5"/>
      <path id="Trazado_984287" data-name="Trazado 984287" d="M295.243,324.453c0,2.961-5.36,5.36-5.36,5.36l3,1.8a1.9,1.9,0,0,0,2.109-.1c2.2-1.635,4.335-3.81,4.593-6.215Zm0,0" transform="translate(-252.587 -282.71)" fill="#8ebac5"/>
      <path id="Trazado_984288" data-name="Trazado 984288" d="M145.773,332.969l.646,2.16a40.068,40.068,0,0,1,1.589,11.171v7.035h16.306v-5.826a7.943,7.943,0,0,0-1.447-4.572c-2.7-3.843-8.252-11.921-8.252-11.921l-6.209,1.207A15.653,15.653,0,0,0,145.773,332.969Zm0,0" transform="translate(-127.018 -288.428)" fill="#ff9838"/>
      <path id="Trazado_984289" data-name="Trazado 984289" d="M308.424,332.969l-.646,2.16a40.068,40.068,0,0,0-1.589,11.171v7.035H289.883v-5.826a7.943,7.943,0,0,1,1.447-4.572c2.7-3.843,8.253-11.921,8.253-11.921l6.209,1.207A15.666,15.666,0,0,1,308.424,332.969Zm0,0" transform="translate(-252.587 -288.428)" fill="#ff8709"/>
      <path id="Trazado_984290" data-name="Trazado 984290" d="M331.805,444.585H326.13a.685.685,0,0,1-.685-.685v-1.933a.685.685,0,0,1,.685-.685h5.675a.685.685,0,0,1,.685.685V443.9A.685.685,0,0,1,331.805,444.585Zm0,0" transform="translate(-283.575 -384.507)" fill="#fff156"/>
      <path id="Trazado_984291" data-name="Trazado 984291" d="M325.27,439.014H319.6a1.652,1.652,0,0,1-1.65-1.65v-1.933a1.652,1.652,0,0,1,1.65-1.65h5.675a1.652,1.652,0,0,1,1.65,1.65v1.933A1.652,1.652,0,0,1,325.27,439.014Zm-5.4-1.93h5.115v-1.374h-5.115Zm0,0" transform="translate(-277.039 -377.972)"/>
      <path id="Trazado_984292" data-name="Trazado 984292" d="M22.416,40.97H18.553a2.184,2.184,0,0,1-2.182-2.182V36.635a.289.289,0,0,0-.223-.274,16.355,16.355,0,0,1-3.839-1.595.263.263,0,0,0-.321.032l-1.538,1.538a2.183,2.183,0,0,1-3.086,0L4.634,33.6a2.182,2.182,0,0,1,0-3.086l1.537-1.538A.262.262,0,0,0,6.2,28.66a16.374,16.374,0,0,1-1.594-3.839.289.289,0,0,0-.274-.223H2.182A2.185,2.185,0,0,1,0,22.416V18.554a2.185,2.185,0,0,1,2.182-2.182H4.335a.289.289,0,0,0,.274-.223A16.372,16.372,0,0,1,6.2,12.31a.263.263,0,0,0-.032-.321L4.634,10.451a2.182,2.182,0,0,1,0-3.086L7.365,4.634a2.183,2.183,0,0,1,3.086,0l1.537,1.537a.263.263,0,0,0,.321.032,16.372,16.372,0,0,1,3.838-1.595.289.289,0,0,0,.224-.274V2.182A2.185,2.185,0,0,1,18.553,0h3.863A2.185,2.185,0,0,1,24.6,2.182V4.335a.288.288,0,0,0,.223.273A16.383,16.383,0,0,1,28.66,6.2a.264.264,0,0,0,.321-.032l1.537-1.538a2.181,2.181,0,0,1,3.086,0l.289.289a.965.965,0,0,1-1.364,1.364c-.178-.154-.406-.529-.646-.289L30.345,7.536a2.2,2.2,0,0,1-2.646.341A14.462,14.462,0,0,0,24.314,6.47a2.226,2.226,0,0,1-1.646-2.136V2.182a.252.252,0,0,0-.252-.252H18.553a.252.252,0,0,0-.252.252V4.335a2.226,2.226,0,0,1-1.646,2.136,14.455,14.455,0,0,0-3.386,1.406,2.2,2.2,0,0,1-2.646-.341L9.087,6A.252.252,0,0,0,8.73,6L6,8.73a.252.252,0,0,0,0,.356l1.538,1.538a2.2,2.2,0,0,1,.341,2.646A14.465,14.465,0,0,0,6.47,16.656,2.225,2.225,0,0,1,4.335,18.3H2.182a.253.253,0,0,0-.252.252v3.863a.252.252,0,0,0,.252.252H4.335a2.226,2.226,0,0,1,2.136,1.645A14.424,14.424,0,0,0,7.877,27.7a2.2,2.2,0,0,1-.341,2.646L6,31.883a.246.246,0,0,0-.074.178A.25.25,0,0,0,6,32.24L8.73,34.971a.252.252,0,0,0,.357,0l1.537-1.537a2.2,2.2,0,0,1,2.646-.341A14.453,14.453,0,0,0,16.656,34.5,2.226,2.226,0,0,1,18.3,36.635v2.152a.252.252,0,0,0,.252.252h3.863a.252.252,0,0,0,.252-.252V36.635A2.226,2.226,0,0,1,24.314,34.5a.965.965,0,0,1,.508,1.862.289.289,0,0,0-.224.274v2.152a2.185,2.185,0,0,1-2.182,2.182Zm0,0" transform="translate(0 0)"/>
      <path id="Trazado_984293" data-name="Trazado 984293" d="M88.535,97.584a9.106,9.106,0,0,1,12.328-8.5.965.965,0,0,1-.688,1.8,7.165,7.165,0,1,0-2.118,13.85.965.965,0,0,1,.114,1.927,9.1,9.1,0,0,1-9.636-9.079Zm0,0" transform="translate(-77.144 -77.099)"/>
      <path id="Trazado_984294" data-name="Trazado 984294" d="M134.769,97.594l-9.777-1.9V93.277a10.206,10.206,0,0,0,4.556-7.5,2.775,2.775,0,0,0,2.55-2.762V81.027a2.631,2.631,0,0,0-.448-4.973v-.765a12.461,12.461,0,0,0-12.46-12.461h-1.045a12.46,12.46,0,0,0-12.46,12.46v.766a2.631,2.631,0,0,0-.448,4.973V83.01a2.775,2.775,0,0,0,2.55,2.762,10.178,10.178,0,0,0,3.422,6.633,12.684,12.684,0,0,0,1.133.872v2.416l-9.777,1.9c-5.158,1-9.179,3.911-9.179,9.276v9.815a3.932,3.932,0,0,0,3.932,3.932h42.7a3.932,3.932,0,0,0,3.932-3.932v-9.815c0-5.348-4-8.269-9.179-9.276Zm-8.032.4c-.7,1.019-1.772,2.574-2.928,4.248a1.4,1.4,0,0,1-1.648.572l-1.524-.914c1.487-.878,3.544-2.386,4.168-4.282Zm-8.071,2.781c-1.465-.738-4.387-2.561-4.395-4.283V94.343a11.081,11.081,0,0,0,8.79,0v2.145c0,1.726-2.928,3.553-4.4,4.291ZM107.615,75.288a10.537,10.537,0,0,1,5.432-9.212v1.21a.965.965,0,0,0,1.93,0V65.245a10.463,10.463,0,0,1,2.725-.477v4.771a.965.965,0,0,0,1.93,0V64.768a10.467,10.467,0,0,1,2.726.477v2.041a.965.965,0,0,0,1.93,0v-1.21a10.537,10.537,0,0,1,5.432,9.212v.7H107.615Zm-1.334,2.627h24.773a.7.7,0,0,1,0,1.4H106.281A.7.7,0,0,1,106.281,77.916Zm3.374,6.88a.965.965,0,0,0-.965-.944c-.161-.04-1.524.251-1.524-.841V81.244h23V83.01c0,1.09-1.4.81-1.524.841a.966.966,0,0,0-.965.944,8.321,8.321,0,0,1-2.812,6.147,9.264,9.264,0,0,1-12.4,0,8.32,8.32,0,0,1-2.813-6.147Zm2.874,12.827c.625,1.9,2.681,3.4,4.168,4.282-1.528.818-1.42,1.063-2.114.981a1.522,1.522,0,0,1-1.066-.65c-1.154-1.671-2.221-3.221-2.921-4.237ZM101.4,118.688H97.318a2,2,0,0,1-2-2v-9.815c0-2.892,1.314-4.891,4.2-6.272a39.688,39.688,0,0,1,1.885,12.018Zm16.306,0H103.326v-6.07a40.491,40.491,0,0,0-2.015-12.736c1.127-.374.29-.086,7.22-1.481,1.992,2.894,5.709,8.294,7.9,11.409a6.944,6.944,0,0,1,1.271,4.018Zm.965-8.9a9.084,9.084,0,0,0-.658-1.092c-.741-1.052-1.7-2.433-2.705-3.881a2.892,2.892,0,0,0,.862-.344l2.5-1.5,2.5,1.5a2.887,2.887,0,0,0,.862.344c-1,1.447-1.965,2.828-2.705,3.881a9.022,9.022,0,0,0-.658,1.092Zm23.351,6.895a2,2,0,0,1-2,2h-4.078v-3.641a.965.965,0,0,0-1.93,0v3.641H119.632v-4.861a6.945,6.945,0,0,1,1.272-4.017c1.246-1.772,6.378-9.177,7.9-11.409,6.926,1.395,6.091,1.106,7.219,1.481a42.081,42.081,0,0,0-1.988,11.267.965.965,0,0,0,1.928.069,38.59,38.59,0,0,1,1.859-10.618c2.882,1.381,4.2,3.38,4.2,6.272Zm0,0" transform="translate(-81.372 -54.745)"/>
    </g>
  </g>
</svg>
