<svg xmlns="http://www.w3.org/2000/svg" xmlns:xlink="http://www.w3.org/1999/xlink" width="108" height="108" viewBox="0 0 108 108">
  <defs>
    <filter id="Trazado_982549" x="0" y="0" width="108" height="108" filterUnits="userSpaceOnUse">
      <feOffset dy="3" input="SourceAlpha"/>
      <feGaussianBlur stdDeviation="3" result="blur"/>
      <feFlood flood-opacity="0.161"/>
      <feComposite operator="in" in2="blur"/>
      <feComposite in="SourceGraphic"/>
    </filter>
  </defs>
  <g id="Grupo_1147080" data-name="Grupo 1147080" transform="translate(9 6)">
    <g id="Grupo_1147078" data-name="Grupo 1147078">
      <g id="Grupo_1146639" data-name="Grupo 1146639">
        <g transform="matrix(1, 0, 0, 1, -9, -6)" filter="url(#Trazado_982549)">
          <g id="Trazado_982549-2" data-name="Trazado 982549" transform="translate(9 6)" fill="#fef7e4">
            <path d="M 45 88.5 C 39.12687683105469 88.5 33.43022537231445 87.35007476806641 28.06830024719238 85.08217620849609 C 22.88852500915527 82.89131164550781 18.23629951477051 79.75458526611328 14.2408504486084 75.75914764404297 C 10.24541282653809 71.76370239257812 7.108687400817871 67.11147308349609 4.917825222015381 61.93170166015625 C 2.649924993515015 56.56977462768555 1.5 50.87312316894531 1.5 45 C 1.5 39.12687683105469 2.649924993515015 33.43022537231445 4.917825222015381 28.06830024719238 C 7.108687400817871 22.88852500915527 10.24541282653809 18.23629951477051 14.2408504486084 14.2408504486084 C 18.23629951477051 10.24541282653809 22.88852500915527 7.108687400817871 28.06830024719238 4.917825222015381 C 33.43022537231445 2.649924993515015 39.12687683105469 1.5 45 1.5 C 50.87312316894531 1.5 56.56977462768555 2.649924993515015 61.93170166015625 4.917825222015381 C 67.11147308349609 7.108687400817871 71.76370239257812 10.24541282653809 75.75914764404297 14.2408504486084 C 79.75458526611328 18.23629951477051 82.89131164550781 22.88852500915527 85.08217620849609 28.06830024719238 C 87.35007476806641 33.43022537231445 88.5 39.12687683105469 88.5 45 C 88.5 50.87312316894531 87.35007476806641 56.56977462768555 85.08217620849609 61.93170166015625 C 82.89131164550781 67.11147308349609 79.75458526611328 71.76370239257812 75.75914764404297 75.75914764404297 C 71.76370239257812 79.75458526611328 67.11147308349609 82.89131164550781 61.93170166015625 85.08217620849609 C 56.56977462768555 87.35007476806641 50.87312316894531 88.5 45 88.5 Z" stroke="none"/>
            <path d="M 45 3 C 39.32871246337891 3 33.82865524291992 4.110054016113281 28.65262985229492 6.299339294433594 C 23.65165710449219 8.414573669433594 19.15968322753906 11.44334411621094 15.301513671875 15.301513671875 C 11.44334411621094 19.15968322753906 8.414573669433594 23.65165710449219 6.299339294433594 28.65262985229492 C 4.110054016113281 33.82865524291992 3 39.32871246337891 3 45 C 3 50.67128753662109 4.110054016113281 56.17134475708008 6.299339294433594 61.34737396240234 C 8.414573669433594 66.34834289550781 11.44334411621094 70.84031677246094 15.301513671875 74.698486328125 C 19.15968322753906 78.55665588378906 23.65165710449219 81.58542633056641 28.65262985229492 83.70066070556641 C 33.82865524291992 85.88994598388672 39.32871246337891 87 45 87 C 50.67128753662109 87 56.17134475708008 85.88994598388672 61.34737396240234 83.70066070556641 C 66.34834289550781 81.58542633056641 70.84031677246094 78.55665588378906 74.698486328125 74.698486328125 C 78.55665588378906 70.84031677246094 81.58542633056641 66.34834289550781 83.70066070556641 61.34737396240234 C 85.88994598388672 56.17134475708008 87 50.67128753662109 87 45 C 87 39.32871246337891 85.88994598388672 33.82865524291992 83.70066070556641 28.65262985229492 C 81.58542633056641 23.65165710449219 78.55665588378906 19.15968322753906 74.698486328125 15.301513671875 C 70.84031677246094 11.44334411621094 66.34834289550781 8.414573669433594 61.34737396240234 6.299339294433594 C 56.17134475708008 4.110054016113281 50.67128753662109 3 45 3 M 45 0 C 69.85281372070312 0 90 20.14718627929688 90 45 C 90 69.85281372070312 69.85281372070312 90 45 90 C 20.14718627929688 90 0 69.85281372070312 0 45 C 0 20.14718627929688 20.14718627929688 0 45 0 Z" stroke="none" fill="#f2b71a"/>
          </g>
        </g>
      </g>
    </g>
    <g id="team" transform="translate(7.458 7.458)">
      <path id="Trazado_984295" data-name="Trazado 984295" d="M161.222,17.308l-5.139-5.139L152.5,14.5a19.2,19.2,0,0,0-5.6-2.32L146.016,8H138.75l-.885,4.184a19.2,19.2,0,0,0-5.6,2.32l-3.588-2.335-5.139,5.139,1.86,4.437.177,9.264h2.271a14.532,14.532,0,0,1,29.065,0h2.422l-.009-9.264Zm0,0" transform="translate(-104.841 -6.789)" fill="#fcd770"/>
      <path id="Trazado_984296" data-name="Trazado 984296" d="M128.184,80.543l1.159,2.764.024,9.264h2.422a14.445,14.445,0,0,1,2.668-8.373A9.638,9.638,0,0,0,128.184,80.543Zm0,0" transform="translate(-108.78 -68.35)" fill="#ffc729"/>
      <path id="Trazado_984297" data-name="Trazado 984297" d="M332.334,80.6a9.684,9.684,0,0,0-6.311,3.572,14.461,14.461,0,0,1,2.721,8.447h2.422l-.009-9.264Zm0,0" transform="translate(-276.67 -68.4)" fill="#ffc729"/>
      <path id="Trazado_984298" data-name="Trazado 984298" d="M314.643,126.277v-5.906a4.846,4.846,0,0,0-3.669-4.7l-6.019-1.5,0-2.19a7.258,7.258,0,0,0,3.635-6.288v-2.117A7.469,7.469,0,0,0,301.545,96a7.267,7.267,0,0,0-7.49,7.263v2.422a7.256,7.256,0,0,0,3.633,6.286v2.191l-6.019,1.506a4.843,4.843,0,0,0-3.669,4.7v5.906Zm0,0" transform="translate(-244.403 -81.469)" fill="#ccd1d9"/>
      <path id="Trazado_984299" data-name="Trazado 984299" d="M297.688,225.857a7.237,7.237,0,0,0-2.606-5.553l-3.413.854a4.843,4.843,0,0,0-3.669,4.7v5.906h9.688Zm0,0" transform="translate(-244.403 -186.955)" fill="#aab2bd"/>
      <path id="Trazado_984300" data-name="Trazado 984300" d="M58.643,126.277v-5.906a4.846,4.846,0,0,0-3.669-4.7l-6.019-1.5,0-2.19a7.258,7.258,0,0,0,3.635-6.288v-2.117A7.469,7.469,0,0,0,45.545,96a7.267,7.267,0,0,0-7.49,7.263v2.422a7.256,7.256,0,0,0,3.633,6.286v2.191l-6.019,1.506a4.843,4.843,0,0,0-3.669,4.7v5.906Zm0,0" transform="translate(-27.156 -81.469)" fill="#ccd1d9"/>
      <path id="Trazado_984301" data-name="Trazado 984301" d="M153.688,225.85a4.844,4.844,0,0,0-3.669-4.7l-3.413-.854A7.243,7.243,0,0,0,144,225.85v5.906h9.688Zm0,0" transform="translate(-122.201 -186.948)" fill="#aab2bd"/>
      <path id="Trazado_984302" data-name="Trazado 984302" d="M186.643,126.277v-5.906a4.846,4.846,0,0,0-3.669-4.7l-6.019-1.5,0-2.19a7.258,7.258,0,0,0,3.635-6.288v-2.117A7.469,7.469,0,0,0,173.545,96a7.267,7.267,0,0,0-7.49,7.263v2.422a7.256,7.256,0,0,0,3.633,6.286v2.191l-6.019,1.506a4.843,4.843,0,0,0-3.669,4.7v5.906Zm0,0" transform="translate(-135.779 -81.469)" fill="#ccd1d9"/>
      <g id="Grupo_1147079" data-name="Grupo 1147079" transform="translate(4.844 33.037)">
        <path id="Trazado_984303" data-name="Trazado 984303" d="M314.643,228.767a4.845,4.845,0,0,0-3.669-4.7l-1.335-.334-16.182,8.517h-.274L288,230.771v3.9h26.643Zm0,0" transform="translate(-249.247 -222.902)" fill="#aab2bd"/>
        <path id="Trazado_984304" data-name="Trazado 984304" d="M186.643,251.892l-1.809.952h-.274l-7.284-2.08a8.8,8.8,0,0,0-1.951-.308l-5.289-1.692a16.109,16.109,0,0,0-8.413-.377l-1.569.364a4.618,4.618,0,0,0-.052.609v5.906h26.643Zm0,0" transform="translate(-140.623 -243.495)" fill="#aab2bd"/>
        <path id="Trazado_984305" data-name="Trazado 984305" d="M53,223.131l-5.255,1.218v-1.785l-7.414-4.325-4.66,1.165A4.846,4.846,0,0,0,32,224.1v5.906H58.643V224.1a4.819,4.819,0,0,0-.176-1.229,15.59,15.59,0,0,0-5.469.257Zm0,0" transform="translate(-32 -218.239)" fill="#aab2bd"/>
      </g>
      <path id="Trazado_984306" data-name="Trazado 984306" d="M112.343,282.628l-10.233-9.21-1.947-7-5.544-1.773a13.667,13.667,0,0,0-7.129-.323l-14.278,3.307L72,277.322l8.538,5.365,15.532,12.952,1.872,1.652a2.476,2.476,0,0,0,1.637.619H99.8a2.475,2.475,0,0,0,1.584-4.375,3.2,3.2,0,0,0,2.049.742,2.475,2.475,0,0,0,1.584-4.375l-4.641-3.867,4.842,4.035a2.479,2.479,0,0,0,1.585.574h.263a2.475,2.475,0,0,0,1.584-4.375l.191.16a2.512,2.512,0,0,0,1.608.582h.209a2.513,2.513,0,0,0,1.682-4.382Zm0,0" transform="translate(-61.101 -224.036)" fill="#ecc19c"/>
      <path id="Trazado_984307" data-name="Trazado 984307" d="M207.389,241.894l-10.233-9.21a3.666,3.666,0,0,0-4.338-.419l-4.508,2.705A2.845,2.845,0,0,1,184,232.532v-.241a2.845,2.845,0,0,1,1.573-2.544l6.756-3.378a6.427,6.427,0,0,1,4.648-.432l7.61,2.174H205.8L228.808,216h1.211v15.743l-21.8,10.9Zm0,0" transform="translate(-156.146 -183.302)" fill="#f5e0cd"/>
      <path id="Trazado_984308" data-name="Trazado 984308" d="M238.562,400l-1.684,1.751,6.712,5.593a4.9,4.9,0,0,0,1.967.975,2.443,2.443,0,0,0,.271-1.1,2.476,2.476,0,0,0-.89-1.9Zm0,0" transform="translate(-201.02 -339.448)" fill="#dfb28b"/>
      <path id="Trazado_984309" data-name="Trazado 984309" d="M200,436.7a2.569,2.569,0,0,0,4.385,1.817l2.128-2.128a2.569,2.569,0,1,0-3.632-3.634l-2.128,2.128A2.568,2.568,0,0,0,200,436.7Zm0,0" transform="translate(-169.724 -366.604)" fill="#f5e0cd"/>
      <path id="Trazado_984310" data-name="Trazado 984310" d="M176,412.7a2.569,2.569,0,0,0,4.385,1.817l2.128-2.128a2.569,2.569,0,1,0-3.632-3.634l-2.128,2.128A2.568,2.568,0,0,0,176,412.7Zm0,0" transform="translate(-149.357 -346.237)" fill="#f5e0cd"/>
      <path id="Trazado_984311" data-name="Trazado 984311" d="M152,388.7a2.569,2.569,0,0,0,4.385,1.817l2.128-2.128a2.569,2.569,0,1,0-3.632-3.634l-2.128,2.128A2.569,2.569,0,0,0,152,388.7Zm0,0" transform="translate(-128.99 -325.87)" fill="#f5e0cd"/>
      <path id="Trazado_984312" data-name="Trazado 984312" d="M156.594,386.464a5,5,0,0,0,1.251-2.183A2.54,2.54,0,0,0,156.7,384a2.568,2.568,0,0,0-1.817.752l-2.128,2.128A2.571,2.571,0,0,0,152,388.7a2.54,2.54,0,0,0,.282,1.147,5,5,0,0,0,2.183-1.251Zm0,0" transform="translate(-128.99 -325.87)" fill="#f0d0b4"/>
      <path id="Trazado_984313" data-name="Trazado 984313" d="M180.594,410.464a5,5,0,0,0,1.251-2.183A2.541,2.541,0,0,0,180.7,408a2.568,2.568,0,0,0-1.817.752l-2.128,2.128A2.571,2.571,0,0,0,176,412.7a2.54,2.54,0,0,0,.282,1.147,4.994,4.994,0,0,0,2.183-1.251Zm0,0" transform="translate(-149.357 -346.237)" fill="#f0d0b4"/>
      <path id="Trazado_984314" data-name="Trazado 984314" d="M204.594,434.464a5,5,0,0,0,1.251-2.183A2.54,2.54,0,0,0,204.7,432a2.568,2.568,0,0,0-1.817.752l-2.128,2.128A2.571,2.571,0,0,0,200,436.7a2.54,2.54,0,0,0,.282,1.147,4.994,4.994,0,0,0,2.183-1.251Zm0,0" transform="translate(-169.724 -366.604)" fill="#f0d0b4"/>
      <path id="Trazado_984315" data-name="Trazado 984315" d="M128,364.7a2.569,2.569,0,0,0,4.385,1.817l2.128-2.128a2.569,2.569,0,1,0-3.632-3.634l-2.128,2.128A2.569,2.569,0,0,0,128,364.7Zm0,0" transform="translate(-108.623 -305.503)" fill="#f5e0cd"/>
      <path id="Trazado_984316" data-name="Trazado 984316" d="M81.282,275.648l-8.07,1.87L72,287.206l5.069,3.185Zm0,0" transform="translate(-61.101 -233.921)" fill="#dfb28b"/>
      <path id="Trazado_984317" data-name="Trazado 984317" d="M24.954,209.688,20.11,226.643H18.9L8,223.01V200h2.422l14.532,8.477Zm0,0" transform="translate(-6.789 -169.724)" fill="#e6e9ed"/>
      <path id="Trazado_984318" data-name="Trazado 984318" d="M20.19,205.7,10.422,200H8v23.01l7.266,2.422,4.844-19.377Zm0,0" transform="translate(-6.789 -169.724)" fill="#b4dd7f"/>
      <path id="Trazado_984319" data-name="Trazado 984319" d="M262.562,376l-1.684,1.751,6.712,5.593a4.9,4.9,0,0,0,1.967.975,2.444,2.444,0,0,0,.271-1.1,2.476,2.476,0,0,0-.89-1.9Zm0,0" transform="translate(-221.387 -319.081)" fill="#dfb28b"/>
      <path id="Trazado_984320" data-name="Trazado 984320" d="M75.084,31.487H72.363l-4.056,2.134a6.02,6.02,0,0,0-1.443-.594l-5.1-1.277v-.58a8.5,8.5,0,0,0,3.634-6.95V22.1a8.7,8.7,0,0,0-8.217-8.779c-.23-.006-.457,0-.684.014l1.323-3.1L51.4,3.831l-3.78,2.461a20.485,20.485,0,0,0-4.533-1.88L42.157,0H32.928l-.934,4.412a20.461,20.461,0,0,0-4.533,1.88l-3.78-2.461-6.408,6.408,1.3,3.1c-.05,0-.1-.011-.147-.012A8.481,8.481,0,0,0,9.688,21.8v2.422a8.5,8.5,0,0,0,3.633,6.949v.581l-3.328.832L3.961,29.065H0V54.159L11.914,58.13h2.32l.29-1.015,3.652,2.192a3.77,3.77,0,0,0,3.636,3.653,3.77,3.77,0,0,0,3.633,3.633,3.77,3.77,0,0,0,3.633,3.633,3.766,3.766,0,0,0,5.889,2.99l1.073.947a3.687,3.687,0,0,0,2.437.92H38.7a3.687,3.687,0,0,0,3.68-3.638,3.684,3.684,0,0,0,3.633-3.633,3.684,3.684,0,0,0,3.633-3.637,3.724,3.724,0,0,0,3.638-3.716,3.546,3.546,0,0,0-.018-.363L75.084,49.19ZM62.974,22.1v2.117a6.079,6.079,0,0,1-3.031,5.24l-.606.35,0,3.832,6.05,1.511-13.318,7.01V38.9a6.026,6.026,0,0,0-1.734-4.22L54.5,33.643V29.808l-.6-.349a6.072,6.072,0,0,1-3.029-5.238V21.8a6.055,6.055,0,0,1,6.243-6.052A6.261,6.261,0,0,1,62.974,22.1ZM39.368,41.212,33.886,39.46a14.955,14.955,0,0,0-7.76-.354l-.694.154V38.9a3.63,3.63,0,0,1,2.751-3.525l6.937-1.733V29.808l-.6-.349a6.072,6.072,0,0,1-3.029-5.238V21.8a6.055,6.055,0,0,1,6.243-6.052A6.261,6.261,0,0,1,43.6,22.1v2.117a6.079,6.079,0,0,1-3.031,5.24l-.606.35,0,3.832L46.9,35.377A3.63,3.63,0,0,1,49.652,38.9V43.44l-.3.157h-.742L41.165,41.47a7.634,7.634,0,0,0-1.8-.257ZM25.7,18.125a13.312,13.312,0,0,1,23.628-.1,8.422,8.422,0,0,0-.89,3.771v2.422a8.5,8.5,0,0,0,3.633,6.949v.581L47.23,32.963,42.385,31.75v-.58a8.5,8.5,0,0,0,3.634-6.95V22.1A8.7,8.7,0,0,0,37.8,13.325,8.479,8.479,0,0,0,29.065,21.8v2.422A8.5,8.5,0,0,0,32.7,31.169v.581l-4.844,1.213L23.008,31.75v-.58a8.5,8.5,0,0,0,3.634-6.95V22.1a8.926,8.926,0,0,0-.94-3.978ZM20.133,10.8,24,6.932l3.405,2.216.652-.4A18.072,18.072,0,0,1,33.3,6.574l.745-.179.843-3.973h5.3l.84,3.972.745.178a18.089,18.089,0,0,1,5.244,2.175l.652.4L51.08,6.931,54.945,10.8l-1.374,3.216a8.465,8.465,0,0,0-2.556,1.7c-.05.048-.092.1-.141.15a15.727,15.727,0,0,0-26.71.073,8.542,8.542,0,0,0-2.672-1.894Zm-4.39,22.842V29.808l-.6-.349a6.072,6.072,0,0,1-3.029-5.238V21.8a6.055,6.055,0,0,1,6.243-6.052A6.261,6.261,0,0,1,24.22,22.1v2.117a6.079,6.079,0,0,1-3.031,5.24l-.606.35,0,3.832,4.155,1.038a6.026,6.026,0,0,0-1.734,4.22v.9l-3.777.84.1-.343.046-2.238-6.387-3.726ZM2.422,31.487H3.3l8.71,5.08L7.62,54.145l-5.2-1.733Zm9.885,24.221-2.384-.794,4.269-17.076,2.762,1.611v.346L12.408,55.707Zm8.281,3.486a1.367,1.367,0,0,1,.4-.96L23.113,56.1a1.358,1.358,0,0,1,1.921,1.921l-2.129,2.129a1.358,1.358,0,0,1-2.318-.96Zm3.633,3.633a1.367,1.367,0,0,1,.4-.96l2.129-2.129a1.358,1.358,0,0,1,1.921,1.921l-2.129,2.129a1.358,1.358,0,0,1-2.318-.96Zm3.633,3.633a1.367,1.367,0,0,1,.4-.96l2.129-2.129A1.358,1.358,0,0,1,32.3,65.292l-2.129,2.129a1.358,1.358,0,0,1-2.318-.96Zm4.991,4.991a1.358,1.358,0,0,1-.96-2.318L34.013,67a1.358,1.358,0,0,1,1.921,1.921L33.8,71.054A1.367,1.367,0,0,1,32.844,71.451ZM38.7,72.662h-.224a1.255,1.255,0,0,1-.834-.316l-.906-.8.909-.909a3.765,3.765,0,0,0,.763-1.125l1.1.917a1.263,1.263,0,0,1-.809,2.233Zm10.86-10.9h-.209a1.3,1.3,0,0,1-.833-.3l-6.567-5.473L40.4,57.849l6.377,5.314a1.264,1.264,0,0,1-.81,2.233H45.7a1.263,1.263,0,0,1-.808-.293l-6.578-5.481-1.552,1.861L43.143,66.8a1.262,1.262,0,0,1-.809,2.232,2,2,0,0,1-1.274-.461l-2.7-2.253A3.767,3.767,0,0,0,35.1,64.2a3.77,3.77,0,0,0-3.633-3.633,3.77,3.77,0,0,0-3.633-3.633,3.771,3.771,0,0,0-6.438-2.54l-2.129,2.129a3.733,3.733,0,0,0-.339.415L15.213,54.7,18.474,43.29l8.176-1.818a12.476,12.476,0,0,1,6.5.294l1.784.571-6.048,3.024a4.037,4.037,0,0,0-2.241,3.628v.239a4.056,4.056,0,0,0,6.144,3.478L37.3,50a2.5,2.5,0,0,1,2.9.28l10.232,9.209a1.3,1.3,0,0,1-.871,2.272Zm23.1-14.07-20.4,10.2c-.066-.07-.135-.137-.208-.2L41.821,48.484a4.874,4.874,0,0,0-5.772-.558l-4.511,2.705a1.633,1.633,0,0,1-2.473-1.4v-.239a1.625,1.625,0,0,1,.9-1.462l6.755-3.378A5.263,5.263,0,0,1,40.5,43.8l7.61,2.174,1.843.046,22.71-11.953Zm0,0" transform="translate(0 0)"/>
    </g>
  </g>
</svg>
