<svg xmlns="http://www.w3.org/2000/svg" xmlns:xlink="http://www.w3.org/1999/xlink" width="108" height="108" viewBox="0 0 108 108">
  <defs>
    <filter id="Trazado_982547" x="0" y="0" width="108" height="108" filterUnits="userSpaceOnUse">
      <feOffset dy="3" input="SourceAlpha"/>
      <feGaussianBlur stdDeviation="3" result="blur"/>
      <feFlood flood-opacity="0.161"/>
      <feComposite operator="in" in2="blur"/>
      <feComposite in="SourceGraphic"/>
    </filter>
  </defs>
  <g id="_6" data-name="6" transform="translate(-617 -1457)">
    <g id="Grupo_1146627" data-name="Grupo 1146627" transform="translate(1 -2526)">
      <g transform="matrix(1, 0, 0, 1, 616, 3983)" filter="url(#Trazado_982547)">
        <g id="Trazado_982547-2" data-name="Trazado 982547" transform="translate(9 6)" fill="#f3f3f3">
          <path d="M 45 88.5 C 39.12687683105469 88.5 33.43022537231445 87.35007476806641 28.06830024719238 85.08217620849609 C 22.88852500915527 82.89131164550781 18.23629951477051 79.75458526611328 14.2408504486084 75.75914764404297 C 10.24541282653809 71.76370239257812 7.108687400817871 67.11147308349609 4.917825222015381 61.93170166015625 C 2.649924993515015 56.56977462768555 1.5 50.87312316894531 1.5 45 C 1.5 39.12687683105469 2.649924993515015 33.43022537231445 4.917825222015381 28.06830024719238 C 7.108687400817871 22.88852500915527 10.24541282653809 18.23629951477051 14.2408504486084 14.2408504486084 C 18.23629951477051 10.24541282653809 22.88852500915527 7.108687400817871 28.06830024719238 4.917825222015381 C 33.43022537231445 2.649924993515015 39.12687683105469 1.5 45 1.5 C 50.87312316894531 1.5 56.56977462768555 2.649924993515015 61.93170166015625 4.917825222015381 C 67.11147308349609 7.108687400817871 71.76370239257812 10.24541282653809 75.75914764404297 14.2408504486084 C 79.75458526611328 18.23629951477051 82.89131164550781 22.88852500915527 85.08217620849609 28.06830024719238 C 87.35007476806641 33.43022537231445 88.5 39.12687683105469 88.5 45 C 88.5 50.87312316894531 87.35007476806641 56.56977462768555 85.08217620849609 61.93170166015625 C 82.89131164550781 67.11147308349609 79.75458526611328 71.76370239257812 75.75914764404297 75.75914764404297 C 71.76370239257812 79.75458526611328 67.11147308349609 82.89131164550781 61.93170166015625 85.08217620849609 C 56.56977462768555 87.35007476806641 50.87312316894531 88.5 45 88.5 Z" stroke="none"/>
          <path d="M 45 3 C 39.32871246337891 3 33.82865524291992 4.110054016113281 28.65262985229492 6.299339294433594 C 23.65165710449219 8.414573669433594 19.15968322753906 11.44334411621094 15.301513671875 15.301513671875 C 11.44334411621094 19.15968322753906 8.414573669433594 23.65165710449219 6.299339294433594 28.65262985229492 C 4.110054016113281 33.82865524291992 3 39.32871246337891 3 45 C 3 50.67128753662109 4.110054016113281 56.17134475708008 6.299339294433594 61.34737396240234 C 8.414573669433594 66.34834289550781 11.44334411621094 70.84031677246094 15.301513671875 74.698486328125 C 19.15968322753906 78.55665588378906 23.65165710449219 81.58542633056641 28.65262985229492 83.70066070556641 C 33.82865524291992 85.88994598388672 39.32871246337891 87 45 87 C 50.67128753662109 87 56.17134475708008 85.88994598388672 61.34737396240234 83.70066070556641 C 66.34834289550781 81.58542633056641 70.84031677246094 78.55665588378906 74.698486328125 74.698486328125 C 78.55665588378906 70.84031677246094 81.58542633056641 66.34834289550781 83.70066070556641 61.34737396240234 C 85.88994598388672 56.17134475708008 87 50.67128753662109 87 45 C 87 39.32871246337891 85.88994598388672 33.82865524291992 83.70066070556641 28.65262985229492 C 81.58542633056641 23.65165710449219 78.55665588378906 19.15968322753906 74.698486328125 15.301513671875 C 70.84031677246094 11.44334411621094 66.34834289550781 8.414573669433594 61.34737396240234 6.299339294433594 C 56.17134475708008 4.110054016113281 50.67128753662109 3 45 3 M 45 0 C 69.85281372070312 0 90 20.14718627929688 90 45 C 90 69.85281372070312 69.85281372070312 90 45 90 C 20.14718627929688 90 0 69.85281372070312 0 45 C 0 20.14718627929688 20.14718627929688 0 45 0 Z" stroke="none" fill="#20796e"/>
        </g>
      </g>
    </g>
    <g id="_x33_71_x2C__Add_x2C__Cap_x2C__Hard_x2C__Helmet_x2C__Labour" transform="translate(595.187 1436.521)">
      <g id="Grupo_1146628" data-name="Grupo 1146628" transform="translate(47.5 42.5)">
        <path id="Trazado_982548" data-name="Trazado 982548" d="M103.13,322.5H56.5a4,4,0,0,0,0,7.994c28.411,0,44.9,0,46.633,0a4,4,0,1,0,0-7.994Z" transform="translate(-51.834 -285.194)" fill="#faa71a"/>
        <path id="Trazado_982549" data-name="Trazado 982549" d="M430.165,117.5a2.665,2.665,0,1,1-2.665,2.665A2.664,2.664,0,0,1,430.165,117.5Z" transform="translate(-376.87 -107.507)" fill="#bce4ff"/>
        <ellipse id="Elipse_11551" data-name="Elipse 11551" cx="3.771" cy="3.429" rx="3.771" ry="3.429" transform="translate(2.057 6.171)" fill="#bce4ff"/>
        <path id="Trazado_982550" data-name="Trazado 982550" d="M202.286,330.494a10,10,0,1,0,.2,2A10,10,0,0,0,202.286,330.494Z" transform="translate(-164.513 -285.194)" fill="#414a56"/>
        <path id="Trazado_982551" data-name="Trazado 982551" d="M223.906,357.083a2,2,0,0,1-1.414,3.411h-2v2a2,2,0,1,1-4,0v-2h-2a2,2,0,1,1,0-4h2v-2a2,2,0,0,1,4,0v2h2A1.99,1.99,0,0,1,223.906,357.083Z" transform="translate(-190.516 -311.197)" fill="#07cc66"/>
        <circle id="Elipse_11552" data-name="Elipse 11552" cx="1.029" cy="1.029" r="1.029" transform="translate(54.172 21.943)"/>
        <path id="Trazado_982552" data-name="Trazado 982552" d="M129.133,181.712H82.5A23.323,23.323,0,0,1,97.125,160.07l2.052,6.84a3.01,3.01,0,0,0,2.882,2.144h7.515a3.009,3.009,0,0,0,2.882-2.144l2.052-6.84A23.323,23.323,0,0,1,129.133,181.712Z" transform="translate(-77.837 -144.405)" fill="#ffd400"/>
        <circle id="Elipse_11553" data-name="Elipse 11553" cx="1.029" cy="1.029" r="1.029" transform="translate(44.572 50.743)"/>
        <circle id="Elipse_11554" data-name="Elipse 11554" cx="1.029" cy="1.029" r="1.029" transform="translate(40.457)"/>
        <path id="Trazado_982553" data-name="Trazado 982553" d="M281.965,127.5a2.132,2.132,0,0,1,2.041,2.743l-.48,1.6-2.052,6.84a3.009,3.009,0,0,1-2.882,2.144H277.5l2.775-13.324Z" transform="translate(-246.856 -116.175)" fill="#f88f19"/>
        <path id="Trazado_982554" data-name="Trazado 982554" d="M225.049,107.5H218.3a2.13,2.13,0,0,0-2.086,2.565l.021.1,2.775,13.324h5.329l2.775-13.324.021-.1A2.13,2.13,0,0,0,225.049,107.5Z" transform="translate(-193.695 -98.84)" fill="#f06000"/>
        <path id="Trazado_982555" data-name="Trazado 982555" d="M240.165,127.5a2.665,2.665,0,1,1-2.665,2.665A2.664,2.664,0,0,1,240.165,127.5Z" transform="translate(-212.185 -116.175)" fill="#ecebed"/>
        <path id="Trazado_982556" data-name="Trazado 982556" d="M191.815,127.5l2.775,13.324H193.5a3.01,3.01,0,0,1-2.882-2.144l-2.052-6.84-.478-1.6a2.131,2.131,0,0,1,2.041-2.743Z" transform="translate(-169.275 -116.175)" fill="#f88f19"/>
        <circle id="Elipse_11555" data-name="Elipse 11555" cx="1.029" cy="1.029" r="1.029" transform="translate(15.772 2.057)"/>
        <circle id="Elipse_11556" data-name="Elipse 11556" cx="1.029" cy="1.029" r="1.029" transform="translate(13.029 48.686)"/>
        <circle id="Elipse_11557" data-name="Elipse 11557" cx="1.029" cy="1.029" r="1.029" transform="translate(4.114 54.172)"/>
        <circle id="Elipse_11558" data-name="Elipse 11558" cx="1.029" cy="1.029" r="1.029" transform="translate(0.686 19.2)"/>
        <path id="Trazado_982557" data-name="Trazado 982557" d="M333.021,178.043a.666.666,0,0,1-.666-.666,22.555,22.555,0,0,0-14.208-21.023.666.666,0,1,1,.5-1.236,23.989,23.989,0,0,1,15.043,22.26A.666.666,0,0,1,333.021,178.043Z" transform="translate(-281.725 -140.071)"/>
        <path id="Trazado_982558" data-name="Trazado 982558" d="M78.166,178.043a.666.666,0,0,1-.666-.666,23.989,23.989,0,0,1,15.043-22.26.666.666,0,0,1,.5,1.236,22.555,22.555,0,0,0-14.208,21.023A.666.666,0,0,1,78.166,178.043Z" transform="translate(-73.503 -140.071)"/>
        <path id="Trazado_982559" data-name="Trazado 982559" d="M274.259,137.156h-1.093a.666.666,0,0,1,0-1.332h1.093a2.329,2.329,0,0,0,2.244-1.669l2.532-8.437a1.466,1.466,0,0,0-1.4-1.885h-1.689a.666.666,0,0,1,0-1.332h1.69a2.8,2.8,0,0,1,2.679,3.6l-2.532,8.437A3.653,3.653,0,0,1,274.259,137.156Z" transform="translate(-242.522 -111.841)"/>
        <path id="Trazado_982560" data-name="Trazado 982560" d="M190.251,137.156h-1.093a3.653,3.653,0,0,1-3.52-2.618l-2.53-8.437a2.8,2.8,0,0,1,2.679-3.6h1.688a.666.666,0,1,1,0,1.332h-1.688a1.465,1.465,0,0,0-1.4,1.886l2.53,8.437a2.329,2.329,0,0,0,2.244,1.669h1.093a.666.666,0,0,1,0,1.332Z" transform="translate(-164.936 -111.841)"/>
        <path id="Trazado_982561" data-name="Trazado 982561" d="M235.831,129.162a3.331,3.331,0,1,1,3.331-3.331A3.335,3.335,0,0,1,235.831,129.162Zm0-5.329a2,2,0,1,0,2,2A2,2,0,0,0,235.831,123.832Z" transform="translate(-207.851 -111.841)"/>
        <path id="Trazado_982562" data-name="Trazado 982562" d="M276.483,326.827H262.959a.666.666,0,0,1,0-1.332h13.523a3.331,3.331,0,0,0,0-6.662H253.166a.666.666,0,1,1,0-1.332h23.316a4.663,4.663,0,1,1,0,9.327Z" transform="translate(-225.187 -280.86)"/>
        <path id="Trazado_982563" data-name="Trazado 982563" d="M65.687,326.827H52.163a4.663,4.663,0,1,1,0-9.327H75.48a.666.666,0,1,1,0,1.332H52.163a3.331,3.331,0,0,0,0,6.662H65.687a.666.666,0,0,1,0,1.332Z" transform="translate(-47.5 -280.86)"/>
        <path id="Trazado_982564" data-name="Trazado 982564" d="M161.475,288.832H128.166a.666.666,0,1,1,0-1.332h33.309a.666.666,0,0,1,0,1.332Z" transform="translate(-116.841 -254.857)"/>
        <path id="Trazado_982565" data-name="Trazado 982565" d="M209.155,263.832H193.166a.666.666,0,1,1,0-1.332h15.988a.666.666,0,1,1,0,1.332Z" transform="translate(-173.181 -233.188)"/>
        <path id="Trazado_982566" data-name="Trazado 982566" d="M61.83,91.16a4.33,4.33,0,1,1,4.33-4.33A4.335,4.335,0,0,1,61.83,91.16Zm0-7.328a3,3,0,1,0,3,3A3,3,0,0,0,61.83,83.832Z" transform="translate(-56.168 -77.171)"/>
        <path id="Trazado_982567" data-name="Trazado 982567" d="M425.831,119.162a3.331,3.331,0,1,1,3.331-3.331A3.335,3.335,0,0,1,425.831,119.162Zm0-5.329a2,2,0,1,0,2,2A2,2,0,0,0,425.831,113.832Z" transform="translate(-372.536 -103.173)"/>
        <path id="Trazado_982568" data-name="Trazado 982568" d="M220.009,119.821H214.68a.666.666,0,0,1-.652-.53l-2.8-13.42a2.8,2.8,0,0,1,2.738-3.37h6.75a2.8,2.8,0,0,1,2.739,3.367l-.022.1-2.775,13.32A.666.666,0,0,1,220.009,119.821Zm-4.788-1.332h4.246l2.687-12.9a1.464,1.464,0,0,0-1.435-1.76h-6.75a1.464,1.464,0,0,0-1.434,1.763l.021.1Z" transform="translate(-189.365 -94.506)"/>
        <path id="Trazado_982569" data-name="Trazado 982569" d="M188.159,338.818a10.668,10.668,0,1,1,10.659-10.659A10.671,10.671,0,0,1,188.159,338.818Zm0-19.985a9.315,9.315,0,1,0,9.14,7.46A9.351,9.351,0,0,0,188.159,318.832Z" transform="translate(-160.179 -280.86)"/>
        <path id="Trazado_982570" data-name="Trazado 982570" d="M214.162,360.824a2.668,2.668,0,0,1-2.665-2.665v-1.332h-1.332a2.665,2.665,0,0,1,0-5.329H211.5v-1.332a2.665,2.665,0,0,1,5.329,0V351.5h1.332a2.665,2.665,0,0,1,0,5.329h-1.332v1.332a2.665,2.665,0,0,1-2.665,2.665Zm-4-7.994a1.332,1.332,0,0,0,0,2.665h2a.666.666,0,0,1,.666.666v2a1.332,1.332,0,0,0,2.665,0v-2a.666.666,0,0,1,.666-.666h2a1.332,1.332,0,0,0,0-2.665h-2a.666.666,0,0,1-.666-.666v-2a1.332,1.332,0,0,0-2.665,0v2a.666.666,0,0,1-.666.666Z" transform="translate(-186.182 -306.863)"/>
        <path id="Trazado_982571" data-name="Trazado 982571" d="M103.13,322.5H56.5a4,4,0,0,0,0,7.994c28.411,0,44.9,0,46.633,0a4,4,0,1,0,0-7.994Z" transform="translate(-51.834 -285.194)" fill="#faa71a"/>
        <path id="Trazado_982572" data-name="Trazado 982572" d="M430.165,117.5a2.665,2.665,0,1,1-2.665,2.665A2.664,2.664,0,0,1,430.165,117.5Z" transform="translate(-376.87 -107.507)" fill="#bce4ff"/>
        <ellipse id="Elipse_11559" data-name="Elipse 11559" cx="3.771" cy="3.429" rx="3.771" ry="3.429" transform="translate(2.057 6.171)" fill="#bce4ff"/>
        <path id="Trazado_982573" data-name="Trazado 982573" d="M202.286,330.494a10,10,0,1,0,.2,2A10,10,0,0,0,202.286,330.494Z" transform="translate(-164.513 -285.194)" fill="#414a56"/>
        <path id="Trazado_982574" data-name="Trazado 982574" d="M223.906,357.083a2,2,0,0,1-1.414,3.411h-2v2a2,2,0,1,1-4,0v-2h-2a2,2,0,1,1,0-4h2v-2a2,2,0,0,1,4,0v2h2A1.99,1.99,0,0,1,223.906,357.083Z" transform="translate(-190.516 -311.197)" fill="#07cc66"/>
        <circle id="Elipse_11560" data-name="Elipse 11560" cx="1.029" cy="1.029" r="1.029" transform="translate(54.172 21.943)"/>
        <path id="Trazado_982575" data-name="Trazado 982575" d="M129.133,181.712H82.5A23.323,23.323,0,0,1,97.125,160.07l2.052,6.84a3.01,3.01,0,0,0,2.882,2.144h7.515a3.009,3.009,0,0,0,2.882-2.144l2.052-6.84A23.323,23.323,0,0,1,129.133,181.712Z" transform="translate(-77.837 -144.405)" fill="#ffd400"/>
        <circle id="Elipse_11561" data-name="Elipse 11561" cx="1.029" cy="1.029" r="1.029" transform="translate(44.572 50.743)"/>
        <circle id="Elipse_11562" data-name="Elipse 11562" cx="1.029" cy="1.029" r="1.029" transform="translate(40.457)"/>
        <path id="Trazado_982576" data-name="Trazado 982576" d="M281.965,127.5a2.132,2.132,0,0,1,2.041,2.743l-.48,1.6-2.052,6.84a3.009,3.009,0,0,1-2.882,2.144H277.5l2.775-13.324Z" transform="translate(-246.856 -116.175)" fill="#f88f19"/>
        <path id="Trazado_982577" data-name="Trazado 982577" d="M225.049,107.5H218.3a2.13,2.13,0,0,0-2.086,2.565l.021.1,2.775,13.324h5.329l2.775-13.324.021-.1A2.13,2.13,0,0,0,225.049,107.5Z" transform="translate(-193.695 -98.84)" fill="#f06000"/>
        <path id="Trazado_982578" data-name="Trazado 982578" d="M240.165,127.5a2.665,2.665,0,1,1-2.665,2.665A2.664,2.664,0,0,1,240.165,127.5Z" transform="translate(-212.185 -116.175)" fill="#ecebed"/>
        <path id="Trazado_982579" data-name="Trazado 982579" d="M191.815,127.5l2.775,13.324H193.5a3.01,3.01,0,0,1-2.882-2.144l-2.052-6.84-.478-1.6a2.131,2.131,0,0,1,2.041-2.743Z" transform="translate(-169.275 -116.175)" fill="#f88f19"/>
        <circle id="Elipse_11563" data-name="Elipse 11563" cx="1.029" cy="1.029" r="1.029" transform="translate(15.772 2.057)"/>
        <circle id="Elipse_11564" data-name="Elipse 11564" cx="1.029" cy="1.029" r="1.029" transform="translate(13.029 48.686)"/>
        <circle id="Elipse_11565" data-name="Elipse 11565" cx="1.029" cy="1.029" r="1.029" transform="translate(4.114 54.172)"/>
        <circle id="Elipse_11566" data-name="Elipse 11566" cx="1.029" cy="1.029" r="1.029" transform="translate(0.686 19.2)"/>
        <path id="Trazado_982580" data-name="Trazado 982580" d="M333.021,178.043a.666.666,0,0,1-.666-.666,22.555,22.555,0,0,0-14.208-21.023.666.666,0,1,1,.5-1.236,23.989,23.989,0,0,1,15.043,22.26A.666.666,0,0,1,333.021,178.043Z" transform="translate(-281.725 -140.071)"/>
        <path id="Trazado_982581" data-name="Trazado 982581" d="M78.166,178.043a.666.666,0,0,1-.666-.666,23.989,23.989,0,0,1,15.043-22.26.666.666,0,0,1,.5,1.236,22.555,22.555,0,0,0-14.208,21.023A.666.666,0,0,1,78.166,178.043Z" transform="translate(-73.503 -140.071)"/>
        <path id="Trazado_982582" data-name="Trazado 982582" d="M274.259,137.156h-1.093a.666.666,0,0,1,0-1.332h1.093a2.329,2.329,0,0,0,2.244-1.669l2.532-8.437a1.466,1.466,0,0,0-1.4-1.885h-1.689a.666.666,0,0,1,0-1.332h1.69a2.8,2.8,0,0,1,2.679,3.6l-2.532,8.437A3.653,3.653,0,0,1,274.259,137.156Z" transform="translate(-242.522 -111.841)"/>
        <path id="Trazado_982583" data-name="Trazado 982583" d="M190.251,137.156h-1.093a3.653,3.653,0,0,1-3.52-2.618l-2.53-8.437a2.8,2.8,0,0,1,2.679-3.6h1.688a.666.666,0,1,1,0,1.332h-1.688a1.465,1.465,0,0,0-1.4,1.886l2.53,8.437a2.329,2.329,0,0,0,2.244,1.669h1.093a.666.666,0,0,1,0,1.332Z" transform="translate(-164.936 -111.841)"/>
        <path id="Trazado_982584" data-name="Trazado 982584" d="M235.831,129.162a3.331,3.331,0,1,1,3.331-3.331A3.335,3.335,0,0,1,235.831,129.162Zm0-5.329a2,2,0,1,0,2,2A2,2,0,0,0,235.831,123.832Z" transform="translate(-207.851 -111.841)"/>
        <path id="Trazado_982585" data-name="Trazado 982585" d="M276.483,326.827H262.959a.666.666,0,0,1,0-1.332h13.523a3.331,3.331,0,0,0,0-6.662H253.166a.666.666,0,1,1,0-1.332h23.316a4.663,4.663,0,1,1,0,9.327Z" transform="translate(-225.187 -280.86)"/>
        <path id="Trazado_982586" data-name="Trazado 982586" d="M65.687,326.827H52.163a4.663,4.663,0,1,1,0-9.327H75.48a.666.666,0,1,1,0,1.332H52.163a3.331,3.331,0,0,0,0,6.662H65.687a.666.666,0,0,1,0,1.332Z" transform="translate(-47.5 -280.86)"/>
        <path id="Trazado_982587" data-name="Trazado 982587" d="M161.475,288.832H128.166a.666.666,0,1,1,0-1.332h33.309a.666.666,0,0,1,0,1.332Z" transform="translate(-116.841 -254.857)"/>
        <path id="Trazado_982588" data-name="Trazado 982588" d="M209.155,263.832H193.166a.666.666,0,1,1,0-1.332h15.988a.666.666,0,1,1,0,1.332Z" transform="translate(-173.181 -233.188)"/>
        <path id="Trazado_982589" data-name="Trazado 982589" d="M61.83,91.16a4.33,4.33,0,1,1,4.33-4.33A4.335,4.335,0,0,1,61.83,91.16Zm0-7.328a3,3,0,1,0,3,3A3,3,0,0,0,61.83,83.832Z" transform="translate(-56.168 -77.171)"/>
        <path id="Trazado_982590" data-name="Trazado 982590" d="M425.831,119.162a3.331,3.331,0,1,1,3.331-3.331A3.335,3.335,0,0,1,425.831,119.162Zm0-5.329a2,2,0,1,0,2,2A2,2,0,0,0,425.831,113.832Z" transform="translate(-372.536 -103.173)"/>
        <path id="Trazado_982591" data-name="Trazado 982591" d="M220.009,119.821H214.68a.666.666,0,0,1-.652-.53l-2.8-13.42a2.8,2.8,0,0,1,2.738-3.37h6.75a2.8,2.8,0,0,1,2.739,3.367l-.022.1-2.775,13.32A.666.666,0,0,1,220.009,119.821Zm-4.788-1.332h4.246l2.687-12.9a1.464,1.464,0,0,0-1.435-1.76h-6.75a1.464,1.464,0,0,0-1.434,1.763l.021.1Z" transform="translate(-189.365 -94.506)"/>
        <path id="Trazado_982592" data-name="Trazado 982592" d="M188.159,338.818a10.668,10.668,0,1,1,10.659-10.659A10.671,10.671,0,0,1,188.159,338.818Zm0-19.985a9.315,9.315,0,1,0,9.14,7.46A9.351,9.351,0,0,0,188.159,318.832Z" transform="translate(-160.179 -280.86)"/>
        <path id="Trazado_982593" data-name="Trazado 982593" d="M214.162,360.824a2.668,2.668,0,0,1-2.665-2.665v-1.332h-1.332a2.665,2.665,0,0,1,0-5.329H211.5v-1.332a2.665,2.665,0,0,1,5.329,0V351.5h1.332a2.665,2.665,0,0,1,0,5.329h-1.332v1.332a2.665,2.665,0,0,1-2.665,2.665Zm-4-7.994a1.332,1.332,0,0,0,0,2.665h2a.666.666,0,0,1,.666.666v2a1.332,1.332,0,0,0,2.665,0v-2a.666.666,0,0,1,.666-.666h2a1.332,1.332,0,0,0,0-2.665h-2a.666.666,0,0,1-.666-.666v-2a1.332,1.332,0,0,0-2.665,0v2a.666.666,0,0,1-.666.666Z" transform="translate(-186.182 -306.863)"/>
      </g>
    </g>
  </g>
</svg>
