<svg xmlns="http://www.w3.org/2000/svg" xmlns:xlink="http://www.w3.org/1999/xlink" width="108" height="108" viewBox="0 0 108 108">
  <defs>
    <filter id="Trazado_982549" x="0" y="0" width="108" height="108" filterUnits="userSpaceOnUse">
      <feOffset dy="3" input="SourceAlpha"/>
      <feGaussianBlur stdDeviation="3" result="blur"/>
      <feFlood flood-opacity="0.161"/>
      <feComposite operator="in" in2="blur"/>
      <feComposite in="SourceGraphic"/>
    </filter>
  </defs>
  <g id="Grupo_1147164" data-name="Grupo 1147164" transform="translate(-623.098 -7071)">
    <g id="Grupo_1147028" data-name="Grupo 1147028" transform="translate(0 311)">
      <g id="Grupo_1146971" data-name="Grupo 1146971" transform="translate(2.098 6425)">
        <g id="Grupo_1146639" data-name="Grupo 1146639" transform="translate(420 -822)">
          <g transform="matrix(1, 0, 0, 1, 201, 1157)" filter="url(#Trazado_982549)">
            <g id="Trazado_982549-2" data-name="Trazado 982549" transform="translate(9 6)" fill="#f3f3f3">
              <path d="M 45 88.5 C 39.12687683105469 88.5 33.43022537231445 87.35007476806641 28.06830024719238 85.08217620849609 C 22.88852500915527 82.89131164550781 18.23629951477051 79.75458526611328 14.2408504486084 75.75914764404297 C 10.24541282653809 71.76370239257812 7.108687400817871 67.11147308349609 4.917825222015381 61.93170166015625 C 2.649924993515015 56.56977462768555 1.5 50.87312316894531 1.5 45 C 1.5 39.12687683105469 2.649924993515015 33.43022537231445 4.917825222015381 28.06830024719238 C 7.108687400817871 22.88852500915527 10.24541282653809 18.23629951477051 14.2408504486084 14.2408504486084 C 18.23629951477051 10.24541282653809 22.88852500915527 7.108687400817871 28.06830024719238 4.917825222015381 C 33.43022537231445 2.649924993515015 39.12687683105469 1.5 45 1.5 C 50.87312316894531 1.5 56.56977462768555 2.649924993515015 61.93170166015625 4.917825222015381 C 67.11147308349609 7.108687400817871 71.76370239257812 10.24541282653809 75.75914764404297 14.2408504486084 C 79.75458526611328 18.23629951477051 82.89131164550781 22.88852500915527 85.08217620849609 28.06830024719238 C 87.35007476806641 33.43022537231445 88.5 39.12687683105469 88.5 45 C 88.5 50.87312316894531 87.35007476806641 56.56977462768555 85.08217620849609 61.93170166015625 C 82.89131164550781 67.11147308349609 79.75458526611328 71.76370239257812 75.75914764404297 75.75914764404297 C 71.76370239257812 79.75458526611328 67.11147308349609 82.89131164550781 61.93170166015625 85.08217620849609 C 56.56977462768555 87.35007476806641 50.87312316894531 88.5 45 88.5 Z" stroke="none"/>
              <path d="M 45 3 C 39.32871246337891 3 33.82865524291992 4.110054016113281 28.65262985229492 6.299339294433594 C 23.65165710449219 8.414573669433594 19.15968322753906 11.44334411621094 15.301513671875 15.301513671875 C 11.44334411621094 19.15968322753906 8.414573669433594 23.65165710449219 6.299339294433594 28.65262985229492 C 4.110054016113281 33.82865524291992 3 39.32871246337891 3 45 C 3 50.67128753662109 4.110054016113281 56.17134475708008 6.299339294433594 61.34737396240234 C 8.414573669433594 66.34834289550781 11.44334411621094 70.84031677246094 15.301513671875 74.698486328125 C 19.15968322753906 78.55665588378906 23.65165710449219 81.58542633056641 28.65262985229492 83.70066070556641 C 33.82865524291992 85.88994598388672 39.32871246337891 87 45 87 C 50.67128753662109 87 56.17134475708008 85.88994598388672 61.34737396240234 83.70066070556641 C 66.34834289550781 81.58542633056641 70.84031677246094 78.55665588378906 74.698486328125 74.698486328125 C 78.55665588378906 70.84031677246094 81.58542633056641 66.34834289550781 83.70066070556641 61.34737396240234 C 85.88994598388672 56.17134475708008 87 50.67128753662109 87 45 C 87 39.32871246337891 85.88994598388672 33.82865524291992 83.70066070556641 28.65262985229492 C 81.58542633056641 23.65165710449219 78.55665588378906 19.15968322753906 74.698486328125 15.301513671875 C 70.84031677246094 11.44334411621094 66.34834289550781 8.414573669433594 61.34737396240234 6.299339294433594 C 56.17134475708008 4.110054016113281 50.67128753662109 3 45 3 M 45 0 C 69.85281372070312 0 90 20.14718627929688 90 45 C 90 69.85281372070312 69.85281372070312 90 45 90 C 20.14718627929688 90 0 69.85281372070312 0 45 C 0 20.14718627929688 20.14718627929688 0 45 0 Z" stroke="none" fill="#f97c61"/>
            </g>
          </g>
        </g>
      </g>
    </g>
    <g id="future" transform="translate(645.675 7092.82)">
      <g id="Grupo_1147109" data-name="Grupo 1147109" transform="translate(4.404 9.658)">
        <g id="Grupo_1147105" data-name="Grupo 1147105" transform="translate(34.207 11.412)">
          <path id="Trazado_984334" data-name="Trazado 984334" d="M341.073,212.854l10.364,2.777a17.285,17.285,0,0,1-.262-2.265,5.715,5.715,0,0,1,.25-2.2,5.259,5.259,0,0,1,1.23-2.01l0,0,3.938-4.236a4.821,4.821,0,0,0,1.4-3.383V185.256a2.641,2.641,0,0,0-5.282,0v11.335l-.054-.056a2.933,2.933,0,0,0-4.131-.016l-7.24,7.183a4.622,4.622,0,0,0-.951,3.536Z" transform="translate(-338.167 -182.615)" fill="#ffd6bd" fill-rule="evenodd"/>
          <path id="Trazado_984335" data-name="Trazado 984335" d="M407.989,308.335a2.934,2.934,0,0,0,.427-3.61,2.893,2.893,0,0,1,.536.426,2.929,2.929,0,0,1-.016,4.131c-1.411,1.4-2.806,2.807-4.211,4.211a.672.672,0,0,1-.95-.95C405.176,311.141,406.574,309.74,407.989,308.335Z" transform="translate(-394.458 -291.23)" fill="#f9c6aa" fill-rule="evenodd"/>
          <path id="Trazado_984336" data-name="Trazado 984336" d="M322.4,440.59l12.669,3.395a.583.583,0,0,1,.411.712l-.627,2.342a.583.583,0,0,1-.712.411l-12.669-3.395a.583.583,0,0,1-.411-.712L321.69,441A.583.583,0,0,1,322.4,440.59Z" transform="translate(-321.043 -412.063)" fill="#64b5f6" fill-rule="evenodd"/>
        </g>
        <g id="Grupo_1147106" data-name="Grupo 1147106" transform="translate(0 11.412)">
          <path id="Trazado_984337" data-name="Trazado 984337" d="M28.442,212.854l-10.364,2.777a17.283,17.283,0,0,0,.262-2.265,5.715,5.715,0,0,0-.25-2.2,5.259,5.259,0,0,0-1.23-2.01l0,0-3.938-4.236a4.82,4.82,0,0,1-1.4-3.383V185.256a2.641,2.641,0,0,1,5.282,0v11.335l.054-.056a2.933,2.933,0,0,1,4.131-.016l7.24,7.183a4.622,4.622,0,0,1,.951,3.536Z" transform="translate(-11.518 -182.615)" fill="#ffd6bd" fill-rule="evenodd"/>
          <path id="Trazado_984338" data-name="Trazado 984338" d="M53.967,308.335a2.934,2.934,0,0,1-.427-3.61,2.893,2.893,0,0,0-.536.426,2.929,2.929,0,0,0,.016,4.131c1.411,1.4,2.807,2.807,4.211,4.211a.672.672,0,0,0,.95-.95C56.78,311.141,55.382,309.74,53.967,308.335Z" transform="translate(-47.668 -291.23)" fill="#f9c6aa" fill-rule="evenodd"/>
          <path id="Trazado_984339" data-name="Trazado 984339" d="M73.216,440.591l-12.669,3.395a.583.583,0,0,0-.411.712l.627,2.342a.583.583,0,0,0,.712.411l12.669-3.395a.583.583,0,0,0,.411-.712L73.928,441A.583.583,0,0,0,73.216,440.591Z" transform="translate(-54.745 -412.063)" fill="#64b5f6" fill-rule="evenodd"/>
        </g>
        <g id="Grupo_1147107" data-name="Grupo 1147107" transform="translate(12.156)">
          <path id="Trazado_984340" data-name="Trazado 984340" d="M136.378,79.353a14.864,14.864,0,0,1,7.6,27.639,2.942,2.942,0,0,0-1.471,2.589v3.624a2.047,2.047,0,0,1-2.043,2.043H132.3a2.047,2.047,0,0,1-2.043-2.043v-3.624a2.942,2.942,0,0,0-1.471-2.589,14.864,14.864,0,0,1,7.6-27.639Z" transform="translate(-121.516 -79.353)" fill="#ffda2d" fill-rule="evenodd"/>
          <path id="Trazado_984341" data-name="Trazado 984341" d="M227.221,376.234v3.892a3.021,3.021,0,0,1-3.014,3.014h-2.138a3.021,3.021,0,0,1-3.014-3.014v-2.482Z" transform="translate(-208.276 -343.425)" fill="#7a8c98" fill-rule="evenodd"/>
          <path id="Trazado_984342" data-name="Trazado 984342" d="M200.569,373.654a2.047,2.047,0,0,0,2.043,2.043h8.166a2.047,2.047,0,0,0,2.043-2.043v-1.493H200.569Z" transform="translate(-191.833 -339.802)" fill="#8d9ca8" fill-rule="evenodd"/>
        </g>
        <g id="Grupo_1147108" data-name="Grupo 1147108" transform="translate(15.645 3.506)">
          <path id="Trazado_984343" data-name="Trazado 984343" d="M162.558,111.081h3.8v1.9a9.6,9.6,0,0,1,3.455,1.432l1.348-1.347,2.684,2.684-1.347,1.347a9.6,9.6,0,0,1,1.432,3.455h1.9v3.8h-1.9a9.6,9.6,0,0,1-1.432,3.455l1.348,1.347-2.684,2.684-1.347-1.347a9.6,9.6,0,0,1-3.455,1.432v1.9h-3.8v-1.9a9.6,9.6,0,0,1-3.455-1.432l-1.347,1.347-2.684-2.684,1.347-1.347a9.6,9.6,0,0,1-1.432-3.455h-1.9v-3.8h1.9a9.6,9.6,0,0,1,1.432-3.455l-1.347-1.347,2.684-2.684,1.347,1.347a9.6,9.6,0,0,1,3.455-1.432v-1.9Z" transform="translate(-153.082 -111.081)" fill="#8d9ca8" fill-rule="evenodd"/>
          <circle id="Elipse_11617" data-name="Elipse 11617" cx="5.895" cy="5.895" r="5.895" transform="translate(5.479 5.479)" fill="#eff4f7"/>
          <path id="Trazado_984344" data-name="Trazado 984344" d="M229.1,189.954h-1.379a.374.374,0,0,1-.3-.6l2.791-3.612a.375.375,0,0,1,.593,0l2.791,3.612a.374.374,0,0,1-.3.6h-1.379v4.5a5.926,5.926,0,0,1-2.823,0v-4.5Z" transform="translate(-219.133 -177.358)" fill="#72d561" fill-rule="evenodd"/>
        </g>
      </g>
      <path id="Trazado_984345" data-name="Trazado 984345" d="M31.422,19.528a5.009,5.009,0,0,1,2.3,9.462V26.645h.5a1.26,1.26,0,0,0,1-2.029L32.418,21a1.258,1.258,0,0,0-1.992,0l-2.791,3.612a1.259,1.259,0,0,0,1,2.029h.5V28.99a5.009,5.009,0,0,1,2.3-9.462ZM30.9,29.522a5.18,5.18,0,0,0,.527.028,4.892,4.892,0,0,0,.527-.028V25.761a.884.884,0,0,1,.884-.884h.343l-1.754-2.27-1.754,2.27h.342a.884.884,0,0,1,.885.884Zm.527,1.8a6.779,6.779,0,1,0-6.779-6.779A6.786,6.786,0,0,0,31.422,31.318Zm-5.979.633a.886.886,0,0,1,1.116-.109,8.671,8.671,0,0,0,3.137,1.3.884.884,0,0,1,.71.867v1.02h2.028v-1.02a.885.885,0,0,1,.712-.867,8.691,8.691,0,0,0,3.137-1.3.885.885,0,0,1,1.116.109l.722.723,1.434-1.434-.723-.722a.886.886,0,0,1-.111-1.116,8.683,8.683,0,0,0,1.3-3.137.883.883,0,0,1,.866-.711h1.021V23.526H40.891a.885.885,0,0,1-.866-.712,8.673,8.673,0,0,0-1.3-3.136.886.886,0,0,1,.111-1.117l.723-.722L38.123,16.4l-.723.722a.882.882,0,0,1-1.115.111,8.675,8.675,0,0,0-3.137-1.3.884.884,0,0,1-.712-.866V14.049H30.408V15.07a.883.883,0,0,1-.71.866,8.672,8.672,0,0,0-3.137,1.3.884.884,0,0,1-1.116-.111l-.721-.722-1.435,1.434.723.722a.883.883,0,0,1,.111,1.115,8.693,8.693,0,0,0-1.3,3.137.886.886,0,0,1-.868.712h-1.02v2.028h1.02a.885.885,0,0,1,.868.711,8.682,8.682,0,0,0,1.3,3.137.884.884,0,0,1-.111,1.116l-.723.722,1.435,1.434Zm3.2,2.757v1.205a.884.884,0,0,0,.884.884h3.8a.884.884,0,0,0,.885-.884V34.708A10.382,10.382,0,0,0,36.645,33.7l.852.853a.886.886,0,0,0,1.251,0l2.684-2.684a.885.885,0,0,0,0-1.25l-.853-.853a10.405,10.405,0,0,0,1.012-2.44h1.2a.885.885,0,0,0,.884-.885v-3.8a.884.884,0,0,0-.884-.885H41.591a10.389,10.389,0,0,0-1.011-2.441l.853-.852a.884.884,0,0,0,0-1.25l-2.684-2.685a.886.886,0,0,0-1.251,0l-.852.853A10.448,10.448,0,0,0,34.2,14.371V13.165a.884.884,0,0,0-.885-.884h-3.8a.884.884,0,0,0-.884.884v1.206a10.34,10.34,0,0,0-2.44,1.011l-.853-.853a.884.884,0,0,0-1.25,0l-2.685,2.684a.886.886,0,0,0,0,1.251l.853.852a10.456,10.456,0,0,0-1.012,2.441h-1.2a.884.884,0,0,0-.884.885v3.8a.885.885,0,0,0,.884.885h1.2a10.407,10.407,0,0,0,1.012,2.44l-.853.853a.885.885,0,0,0,0,1.25L24.1,34.549a.884.884,0,0,0,1.25,0L26.2,33.7a10.424,10.424,0,0,0,2.44,1.012ZM39.989,7.8l1.927-3.338a.884.884,0,1,1,1.531.884L41.521,8.68a.884.884,0,0,1-.767.442A.874.874,0,0,1,40.313,9,.883.883,0,0,1,39.989,7.8ZM11.154,12.7a.884.884,0,0,1,1.208-.324L15.7,14.305a.884.884,0,0,1-.884,1.531l-3.337-1.927A.883.883,0,0,1,11.154,12.7ZM19.4,5.342a.884.884,0,1,1,1.531-.884L22.855,7.8A.884.884,0,0,1,22.531,9a.873.873,0,0,1-.441.118.885.885,0,0,1-.767-.442Zm11.141.4V1.884a.884.884,0,1,1,1.769,0V5.738a.884.884,0,0,1-1.769,0Zm16.283,9.774a.884.884,0,0,1,.324-1.207l3.337-1.927a.884.884,0,1,1,.884,1.53L48.03,15.836a.885.885,0,0,1-1.208-.324ZM35.5,44.67H27.34a1.16,1.16,0,0,1-1.159-1.159V42.9H36.664v.609A1.16,1.16,0,0,1,35.5,44.67Zm-3.014,3.82H30.353a2.13,2.13,0,0,1-2.126-2.051h6.39A2.131,2.131,0,0,1,32.491,48.489ZM24.277,36.539a3.815,3.815,0,0,1,1.9,3.348v1.247H36.664V39.887a3.816,3.816,0,0,1,1.9-3.348,13.978,13.978,0,1,0-14.29,0Zm14.155,6.972V39.887a2.058,2.058,0,0,1,1.04-1.83,15.751,15.751,0,1,0-16.1,0,2.059,2.059,0,0,1,1.04,1.83v3.624A2.933,2.933,0,0,0,26.455,46.3v.058a3.9,3.9,0,0,0,3.9,3.9h2.138a3.9,3.9,0,0,0,3.9-3.9V46.3A2.932,2.932,0,0,0,38.432,43.511ZM11.2,55.525l-.471-1.757L22.811,50.53l.471,1.756Zm-.807-8.52L6.453,42.769a3.961,3.961,0,0,1-1.165-2.781V23.711a1.757,1.757,0,0,1,3.513,0V34.724a3.812,3.812,0,0,0,.332,5.026L13,43.587a.884.884,0,0,0,1.246-1.256l-3.868-3.837a2.04,2.04,0,0,1-.011-2.881,2.019,2.019,0,0,1,1.438-.6h.009a2.023,2.023,0,0,1,1.434.587l7.2,7.139a3.72,3.72,0,0,1,.742,2.838L20.7,49.264l-8.582,2.3a6.067,6.067,0,0,0-1.731-4.559ZM24.441,49.78l.628,2.342a1.468,1.468,0,0,1-1.036,1.8l-12.67,3.395a1.487,1.487,0,0,1-.381.05,1.468,1.468,0,0,1-1.415-1.086L8.94,53.933a1.466,1.466,0,0,1,1.037-1.795l.342-.092A4.452,4.452,0,0,0,9.1,48.209L5.158,43.974A5.73,5.73,0,0,1,3.52,39.989V23.711a3.529,3.529,0,0,1,3.524-3.524h0a3.532,3.532,0,0,1,3.525,3.524v9.743a3.833,3.833,0,0,1,1.229-.206h.015a3.78,3.78,0,0,1,2.68,1.1l7.24,7.184a.985.985,0,0,1,.078.089,5.485,5.485,0,0,1,1.126,4.189l-.387,2.961.094-.026a1.467,1.467,0,0,1,1.8,1.036Zm33.115-9.791a3.961,3.961,0,0,1-1.164,2.781l-3.938,4.236a6.069,6.069,0,0,0-1.731,4.559l-8.583-2.3-.482-3.685a3.719,3.719,0,0,1,.741-2.838L49.6,35.6a2.02,2.02,0,0,1,1.434-.587h.009a2.033,2.033,0,0,1,1.427,3.479L48.6,42.332a.884.884,0,0,0,1.245,1.256l3.868-3.837a3.811,3.811,0,0,0,.332-5.026V23.711a1.757,1.757,0,0,1,3.513,0V39.989ZM51.648,55.525l.471-1.757L40.034,50.53l-.471,1.756ZM55.8,20.187a3.529,3.529,0,0,1,3.525,3.524V39.989a5.73,5.73,0,0,1-1.638,3.985l-3.938,4.235a4.452,4.452,0,0,0-1.223,3.838l.341.092A1.466,1.466,0,0,1,53.9,53.933l-.627,2.342a1.469,1.469,0,0,1-1.415,1.086,1.49,1.49,0,0,1-.381-.05L38.813,53.917a1.469,1.469,0,0,1-1.037-1.8L38.4,49.78a1.468,1.468,0,0,1,1.8-1.036l.094.026-.387-2.961a5.485,5.485,0,0,1,1.126-4.189.988.988,0,0,1,.079-.089l7.24-7.184a3.777,3.777,0,0,1,2.68-1.1h.016a3.837,3.837,0,0,1,1.229.206V23.711A3.531,3.531,0,0,1,55.8,20.187h0Z" fill-rule="evenodd"/>
    </g>
  </g>
</svg>
