<svg xmlns="http://www.w3.org/2000/svg" xmlns:xlink="http://www.w3.org/1999/xlink" width="108" height="108" viewBox="0 0 108 108">
  <defs>
    <filter id="Trazado_982549" x="0" y="0" width="108" height="108" filterUnits="userSpaceOnUse">
      <feOffset dy="3" input="SourceAlpha"/>
      <feGaussianBlur stdDeviation="3" result="blur"/>
      <feFlood flood-opacity="0.161"/>
      <feComposite operator="in" in2="blur"/>
      <feComposite in="SourceGraphic"/>
    </filter>
  </defs>
  <g id="Grupo_1146972" data-name="Grupo 1146972" transform="translate(-194.902 -1000.139)">
    <g id="Grupo_1146727" data-name="Grupo 1146727" transform="translate(203.902 1006.139)">
      <g id="Grupo_1146709" data-name="Grupo 1146709">
        <g id="Grupo_1146639" data-name="Grupo 1146639">
          <g transform="matrix(1, 0, 0, 1, -9, -6)" filter="url(#Trazado_982549)">
            <g id="Trazado_982549-2" data-name="Trazado 982549" transform="translate(9 6)" fill="#eafbf9">
              <path d="M 45 88.5 C 39.12687683105469 88.5 33.43022537231445 87.35007476806641 28.06830024719238 85.08217620849609 C 22.88852500915527 82.89131164550781 18.23629951477051 79.75458526611328 14.2408504486084 75.75914764404297 C 10.24541282653809 71.76370239257812 7.108687400817871 67.11147308349609 4.917825222015381 61.93170166015625 C 2.649924993515015 56.56977462768555 1.5 50.87312316894531 1.5 45 C 1.5 39.12687683105469 2.649924993515015 33.43022537231445 4.917825222015381 28.06830024719238 C 7.108687400817871 22.88852500915527 10.24541282653809 18.23629951477051 14.2408504486084 14.2408504486084 C 18.23629951477051 10.24541282653809 22.88852500915527 7.108687400817871 28.06830024719238 4.917825222015381 C 33.43022537231445 2.649924993515015 39.12687683105469 1.5 45 1.5 C 50.87312316894531 1.5 56.56977462768555 2.649924993515015 61.93170166015625 4.917825222015381 C 67.11147308349609 7.108687400817871 71.76370239257812 10.24541282653809 75.75914764404297 14.2408504486084 C 79.75458526611328 18.23629951477051 82.89131164550781 22.88852500915527 85.08217620849609 28.06830024719238 C 87.35007476806641 33.43022537231445 88.5 39.12687683105469 88.5 45 C 88.5 50.87312316894531 87.35007476806641 56.56977462768555 85.08217620849609 61.93170166015625 C 82.89131164550781 67.11147308349609 79.75458526611328 71.76370239257812 75.75914764404297 75.75914764404297 C 71.76370239257812 79.75458526611328 67.11147308349609 82.89131164550781 61.93170166015625 85.08217620849609 C 56.56977462768555 87.35007476806641 50.87312316894531 88.5 45 88.5 Z" stroke="none"/>
              <path d="M 45 3 C 39.32871246337891 3 33.82865524291992 4.110054016113281 28.65262985229492 6.299339294433594 C 23.65165710449219 8.414573669433594 19.15968322753906 11.44334411621094 15.301513671875 15.301513671875 C 11.44334411621094 19.15968322753906 8.414573669433594 23.65165710449219 6.299339294433594 28.65262985229492 C 4.110054016113281 33.82865524291992 3 39.32871246337891 3 45 C 3 50.67128753662109 4.110054016113281 56.17134475708008 6.299339294433594 61.34737396240234 C 8.414573669433594 66.34834289550781 11.44334411621094 70.84031677246094 15.301513671875 74.698486328125 C 19.15968322753906 78.55665588378906 23.65165710449219 81.58542633056641 28.65262985229492 83.70066070556641 C 33.82865524291992 85.88994598388672 39.32871246337891 87 45 87 C 50.67128753662109 87 56.17134475708008 85.88994598388672 61.34737396240234 83.70066070556641 C 66.34834289550781 81.58542633056641 70.84031677246094 78.55665588378906 74.698486328125 74.698486328125 C 78.55665588378906 70.84031677246094 81.58542633056641 66.34834289550781 83.70066070556641 61.34737396240234 C 85.88994598388672 56.17134475708008 87 50.67128753662109 87 45 C 87 39.32871246337891 85.88994598388672 33.82865524291992 83.70066070556641 28.65262985229492 C 81.58542633056641 23.65165710449219 78.55665588378906 19.15968322753906 74.698486328125 15.301513671875 C 70.84031677246094 11.44334411621094 66.34834289550781 8.414573669433594 61.34737396240234 6.299339294433594 C 56.17134475708008 4.110054016113281 50.67128753662109 3 45 3 M 45 0 C 69.85281372070312 0 90 20.14718627929688 90 45 C 90 69.85281372070312 69.85281372070312 90 45 90 C 20.14718627929688 90 0 69.85281372070312 0 45 C 0 20.14718627929688 20.14718627929688 0 45 0 Z" stroke="none" fill="#20796e"/>
            </g>
          </g>
        </g>
      </g>
    </g>
    <g id="law-enforcement" transform="translate(195.153 1006.989)">
      <path id="Trazado_984346" data-name="Trazado 984346" d="M42.643,19.18h3.895a3.867,3.867,0,0,1,7.609,0h3.895a.645.645,0,0,1,.645.645v.894h7.28a4.911,4.911,0,0,1,4.9,4.9V45.362l.854.539a1.016,1.016,0,0,1,.317,1.4l-1.171,1.856V53.82l7.395,4.666c.709.447,1.035.057,2.043.3a3.379,3.379,0,1,1-3.966,4.478,1.421,1.421,0,0,0-.609-.759l-4.862-3.068v6.391a4.911,4.911,0,0,1-4.9,4.9h-1.74v.932a.645.645,0,0,1-.645.645H47.177a.645.645,0,0,1-.645-.645v-.932H34.718a4.911,4.911,0,0,1-4.9-4.9V25.616a4.911,4.911,0,0,1,4.9-4.9H42v-.894a.645.645,0,0,1,.645-.645Z" transform="translate(0 0)" fill-rule="evenodd"/>
      <path id="Trazado_984347" data-name="Trazado 984347" d="M94.431,134.071h3.641a.635.635,0,0,0,.632-.632v-9.083a1.764,1.764,0,0,0-1.135-.419l-.555-.018-.578.916c.379.238.708.388.817.867a1.01,1.01,0,0,1-.117.742c-.411.813-1.244,1.972-1.758,2.787a1.016,1.016,0,0,1-1.4.318l-.632-.4h-23.3a.645.645,0,0,1,0-1.289H91.3L85.4,124.134H70.051a.645.645,0,1,1,0-1.289h13.51a1.015,1.015,0,0,1,.012-1.061l1.8-2.85a1.014,1.014,0,0,1,.575-.363c.478-.108.755.126,1.133.364l.321-.509H70.051a.645.645,0,0,1,0-1.289H88.222l3.25-5.15-.646-.414a1.016,1.016,0,0,1-.232-1.339l1.745-2.765a1.016,1.016,0,0,1,1.4-.318l4.968,3.135V93.232a.635.635,0,0,0-.632-.632h-7.28v.887a.645.645,0,0,1-.645.645h-15.4a.645.645,0,0,1-.645-.645V92.6h-7.28a.635.635,0,0,0-.632.632v40.207a.636.636,0,0,0,.632.632H80.54v-1.157a1.9,1.9,0,0,1,1.86-1.926H92.571a1.9,1.9,0,0,1,1.86,1.926v1.157Zm-6.15-22.587a10.874,10.874,0,0,1-5.643,3.943.64.64,0,0,1-.371,0,10.974,10.974,0,0,1-7.836-10.5v-4.842h0a.642.642,0,0,1,.465-.617l7.363-2.122a.638.638,0,0,1,.362,0l7.313,2.108a.645.645,0,0,1,.528.634v4.842a10.975,10.975,0,0,1-2.184,6.559Z" transform="translate(-32.107 -67.615)" fill="#e6e6e6" fill-rule="evenodd"/>
      <path id="Trazado_984348" data-name="Trazado 984348" d="M123.571,116.052l2.566-4.066-.646-.414a1.016,1.016,0,0,1-.232-1.339L127,107.468a1.016,1.016,0,0,1,1.4-.318l4.968,3.135V93.232a.635.635,0,0,0-.632-.632h-7.28v.887a.645.645,0,0,1-.645.645h-15.4a.645.645,0,0,1-.645-.645V92.6h-3.306a37.654,37.654,0,0,0,3.633,8.983v-1.5h0a.642.642,0,0,1,.466-.617l7.363-2.122a.638.638,0,0,1,.362,0L124.6,99.45a.645.645,0,0,1,.528.634v4.842a11.007,11.007,0,0,1-4.81,9.074,37.9,37.9,0,0,0,3.25,2.052Z" transform="translate(-66.773 -67.615)" fill="#fff" fill-rule="evenodd"/>
      <path id="Trazado_984349" data-name="Trazado 984349" d="M321.964,370.475v8.083a1.925,1.925,0,0,1-1.921,1.921h-2.386a2.764,2.764,0,0,1,.645,1.688h1.741a3.621,3.621,0,0,0,3.609-3.609v-7.2l-1.688-1.065v.187Z" transform="translate(-254.077 -312.734)" fill="#2ea0d9" fill-rule="evenodd"/>
      <path id="Trazado_984350" data-name="Trazado 984350" d="M275.929,67.219v1.688h7.28a1.925,1.925,0,0,1,1.921,1.921V88.7l1.688,1.065V70.828a3.621,3.621,0,0,0-3.609-3.609h-7.28Z" transform="translate(-217.243 -45.211)" fill="#54b4e4" fill-rule="evenodd"/>
      <path id="Trazado_984351" data-name="Trazado 984351" d="M51.7,68.907V67.219H44.42a3.621,3.621,0,0,0-3.609,3.609v40.207a3.621,3.621,0,0,0,3.609,3.609H56.235a2.765,2.765,0,0,1,.645-1.688H44.42a1.926,1.926,0,0,1-1.921-1.921V70.828a1.925,1.925,0,0,1,1.921-1.921Z" transform="translate(-9.702 -45.211)" fill="#2ea0d9" fill-rule="evenodd"/>
      <path id="Trazado_984352" data-name="Trazado 984352" d="M103.886,68.907V67.219H99.932q.15.851.338,1.688Z" transform="translate(-61.889 -45.211)" fill="#54b4e4" fill-rule="evenodd"/>
      <path id="Trazado_984353" data-name="Trazado 984353" d="M148.472,30.162h-3.831V34.92H158.75V30.162h-3.831v0a.642.642,0,0,1-.642-.635,2.585,2.585,0,0,0-4.394-1.8,2.549,2.549,0,0,0-.766,1.792.645.645,0,0,1-.645.645Z" transform="translate(-101.354 -9.693)" fill="#229ad6" fill-rule="evenodd"/>
      <path id="Trazado_984354" data-name="Trazado 984354" d="M356.985,310.93v-2.478a1.128,1.128,0,0,1-.86-.257l-.706,1.119c.3.5.314.826.823,1.147l.742.469Z" transform="translate(-287.41 -257.924)" fill="#54b4e4" fill-rule="evenodd"/>
      <path id="Trazado_984355" data-name="Trazado 984355" d="M291.955,230.8a.664.664,0,0,1-.085-.054l-5.684-3.587-1.456,2.307,9.63,6.077,1.456-2.307Z" transform="translate(-225.013 -186.396)" fill="#966f48" fill-rule="evenodd"/>
      <path id="Trazado_984356" data-name="Trazado 984356" d="M337.607,331.646a.64.64,0,0,1,.085.054l8.784,5.543a2.7,2.7,0,0,1,1.133,1.408,2.09,2.09,0,1,0,1.785-2.833,2.682,2.682,0,0,1-1.756-.415l-9.426-5.949a2.677,2.677,0,0,1-.933-.975l-1.51,2.392a3.543,3.543,0,0,1,1.839.774Z" transform="translate(-270.064 -275.829)" fill="#704d29" fill-rule="evenodd"/>
      <path id="Trazado_984357" data-name="Trazado 984357" d="M254.573,269.145l-.971,1.539q3.588,2.265,7.176,4.53l4.385-6.949-7.177-4.529-3.413,5.409Z" transform="translate(-197.535 -218.679)" fill="#704d29" fill-rule="evenodd"/>
      <path id="Trazado_984358" data-name="Trazado 984358" d="M277.591,270.806l1.6-2.542-7.177-4.529-2.52,3.993A37.631,37.631,0,0,0,277.591,270.806Z" transform="translate(-211.567 -218.678)" fill="#966f48" fill-rule="evenodd"/>
      <g id="Grupo_1147111" data-name="Grupo 1147111" transform="translate(47.821 52.318)">
        <path id="Trazado_984359" data-name="Trazado 984359" d="M233.908,333.642l.606.382,1.456-2.307-9.63-6.077-1.456,2.307Z" transform="translate(-220.006 -325.641)" fill="#704d29" fill-rule="evenodd"/>
        <path id="Trazado_984360" data-name="Trazado 984360" d="M199.51,432.974h11.313v-1.447a.608.608,0,0,0-.571-.636H200.081a.608.608,0,0,0-.571.636Z" transform="translate(-197.608 -418.546)" fill="#704d29" fill-rule="evenodd"/>
        <path id="Trazado_984361" data-name="Trazado 984361" d="M196.924,459.642H184.784a1.493,1.493,0,0,0-1.488,1.488v1.488h15.116v-1.488A1.494,1.494,0,0,0,196.924,459.642Z" transform="translate(-183.296 -443.925)" fill="#704d29" fill-rule="evenodd"/>
      </g>
      <path id="Trazado_984362" data-name="Trazado 984362" d="M154.157,159.5a9.691,9.691,0,0,0,6.728-9.215v-4.36l-6.728-1.939-6.728,1.939v4.36A9.692,9.692,0,0,0,154.157,159.5Zm-3.039-7.138a.644.644,0,1,1,.8-1.012l1.674,1.316,2.724-3.147a.643.643,0,1,1,.972.841l-3.1,3.583a.646.646,0,0,1-.908.113l-2.156-1.7Z" transform="translate(-103.815 -112.972)" fill="#2e7853" fill-rule="evenodd"/>
      <path id="Trazado_984363" data-name="Trazado 984363" d="M156.253,158.543a9.719,9.719,0,0,0,4.631-8.259v-4.36l-6.728-1.939-6.728,1.939v3.14a38.1,38.1,0,0,0,8.824,9.48Zm-5.135-6.183a.644.644,0,0,1,.8-1.012l1.674,1.316,2.724-3.147a.643.643,0,0,1,.972.841l-3.1,3.583a.646.646,0,0,1-.908.113l-2.156-1.7Z" transform="translate(-103.815 -112.973)" fill="#396" fill-rule="evenodd"/>
    </g>
  </g>
</svg>
