<svg xmlns="http://www.w3.org/2000/svg" xmlns:xlink="http://www.w3.org/1999/xlink" width="108" height="108" viewBox="0 0 108 108">
  <defs>
    <filter id="Trazado_982549" x="0" y="0" width="108" height="108" filterUnits="userSpaceOnUse">
      <feOffset dy="3" input="SourceAlpha"/>
      <feGaussianBlur stdDeviation="3" result="blur"/>
      <feFlood flood-opacity="0.161"/>
      <feComposite operator="in" in2="blur"/>
      <feComposite in="SourceGraphic"/>
    </filter>
  </defs>
  <g id="Grupo_1147121" data-name="Grupo 1147121" transform="translate(-194.902 -1000.139)">
    <g id="Grupo_1146727" data-name="Grupo 1146727" transform="translate(203.902 1006.139)">
      <g id="Grupo_1146709" data-name="Grupo 1146709">
        <g id="Grupo_1146639" data-name="Grupo 1146639">
          <g transform="matrix(1, 0, 0, 1, -9, -6)" filter="url(#Trazado_982549)">
            <g id="Trazado_982549-2" data-name="Trazado 982549" transform="translate(9 6)" fill="#eafbf9">
              <path d="M 45 88.5 C 39.12687683105469 88.5 33.43022537231445 87.35007476806641 28.06830024719238 85.08217620849609 C 22.88852500915527 82.89131164550781 18.23629951477051 79.75458526611328 14.2408504486084 75.75914764404297 C 10.24541282653809 71.76370239257812 7.108687400817871 67.11147308349609 4.917825222015381 61.93170166015625 C 2.649924993515015 56.56977462768555 1.5 50.87312316894531 1.5 45 C 1.5 39.12687683105469 2.649924993515015 33.43022537231445 4.917825222015381 28.06830024719238 C 7.108687400817871 22.88852500915527 10.24541282653809 18.23629951477051 14.2408504486084 14.2408504486084 C 18.23629951477051 10.24541282653809 22.88852500915527 7.108687400817871 28.06830024719238 4.917825222015381 C 33.43022537231445 2.649924993515015 39.12687683105469 1.5 45 1.5 C 50.87312316894531 1.5 56.56977462768555 2.649924993515015 61.93170166015625 4.917825222015381 C 67.11147308349609 7.108687400817871 71.76370239257812 10.24541282653809 75.75914764404297 14.2408504486084 C 79.75458526611328 18.23629951477051 82.89131164550781 22.88852500915527 85.08217620849609 28.06830024719238 C 87.35007476806641 33.43022537231445 88.5 39.12687683105469 88.5 45 C 88.5 50.87312316894531 87.35007476806641 56.56977462768555 85.08217620849609 61.93170166015625 C 82.89131164550781 67.11147308349609 79.75458526611328 71.76370239257812 75.75914764404297 75.75914764404297 C 71.76370239257812 79.75458526611328 67.11147308349609 82.89131164550781 61.93170166015625 85.08217620849609 C 56.56977462768555 87.35007476806641 50.87312316894531 88.5 45 88.5 Z" stroke="none"/>
              <path d="M 45 3 C 39.32871246337891 3 33.82865524291992 4.110054016113281 28.65262985229492 6.299339294433594 C 23.65165710449219 8.414573669433594 19.15968322753906 11.44334411621094 15.301513671875 15.301513671875 C 11.44334411621094 19.15968322753906 8.414573669433594 23.65165710449219 6.299339294433594 28.65262985229492 C 4.110054016113281 33.82865524291992 3 39.32871246337891 3 45 C 3 50.67128753662109 4.110054016113281 56.17134475708008 6.299339294433594 61.34737396240234 C 8.414573669433594 66.34834289550781 11.44334411621094 70.84031677246094 15.301513671875 74.698486328125 C 19.15968322753906 78.55665588378906 23.65165710449219 81.58542633056641 28.65262985229492 83.70066070556641 C 33.82865524291992 85.88994598388672 39.32871246337891 87 45 87 C 50.67128753662109 87 56.17134475708008 85.88994598388672 61.34737396240234 83.70066070556641 C 66.34834289550781 81.58542633056641 70.84031677246094 78.55665588378906 74.698486328125 74.698486328125 C 78.55665588378906 70.84031677246094 81.58542633056641 66.34834289550781 83.70066070556641 61.34737396240234 C 85.88994598388672 56.17134475708008 87 50.67128753662109 87 45 C 87 39.32871246337891 85.88994598388672 33.82865524291992 83.70066070556641 28.65262985229492 C 81.58542633056641 23.65165710449219 78.55665588378906 19.15968322753906 74.698486328125 15.301513671875 C 70.84031677246094 11.44334411621094 66.34834289550781 8.414573669433594 61.34737396240234 6.299339294433594 C 56.17134475708008 4.110054016113281 50.67128753662109 3 45 3 M 45 0 C 69.85281372070312 0 90 20.14718627929688 90 45 C 90 69.85281372070312 69.85281372070312 90 45 90 C 20.14718627929688 90 0 69.85281372070312 0 45 C 0 20.14718627929688 20.14718627929688 0 45 0 Z" stroke="none" fill="#20796e"/>
            </g>
          </g>
        </g>
      </g>
    </g>
    <g id="standarize_9584620" transform="translate(212.193 1016.812)">
      <g id="Grupo_1144845" data-name="Grupo 1144845" transform="translate(10.288 10.248)">
        <path id="Trazado_978900" data-name="Trazado 978900" d="M171.617,56.772a4.6,4.6,0,0,0-2.55-7.847l-10.36-1.505a4.6,4.6,0,0,1-3.464-2.517l-4.633-9.388a4.6,4.6,0,0,0-8.251,0L137.726,44.9a4.6,4.6,0,0,1-1.593,1.8h0l-2.309,2-.593,8.288,1.451,8.29,3.936,7.171,5.22,4.676,2.666.791h0a4.6,4.6,0,0,1,2.122.528l9.266,4.872a4.6,4.6,0,0,0,6.675-4.85L162.8,68.151a4.6,4.6,0,0,1,1.323-4.072Z" transform="translate(-119.959 -32.951)" fill="#ffe559"/>
        <g id="Grupo_1144844" data-name="Grupo 1144844" transform="translate(0 13.755)">
          <path id="Trazado_978901" data-name="Trazado 978901" d="M24.67,169.794a25.517,25.517,0,0,1,1.794-9.428,4.6,4.6,0,0,1-1.87.713l-10.36,1.505a4.6,4.6,0,0,0-2.55,7.847l7.5,7.307a4.6,4.6,0,0,1,1.323,4.072l-1.77,10.318a4.6,4.6,0,0,0,6.675,4.85l9.266-4.872a4.6,4.6,0,0,1,2.159-.528A25.568,25.568,0,0,1,24.67,169.794Z" transform="translate(-10.289 -160.366)" fill="#fbc700"/>
        </g>
        <path id="Trazado_978902" data-name="Trazado 978902" d="M204.452,202.166h-1.624l-.6.2-.756,1.016v6.372l.506.972.468.263.592.13h1.41a1.837,1.837,0,0,0,1.832-1.832V204A1.837,1.837,0,0,0,204.452,202.166Z" transform="translate(-180.836 -183.898)" fill="#6b7ed9"/>
        <path id="Trazado_978903" data-name="Trazado 978903" d="M167.32,209.289V204a1.837,1.837,0,0,1,1.832-1.832h-4.264A1.837,1.837,0,0,0,163.056,204v5.292a1.837,1.837,0,0,0,1.832,1.832h4.264A1.837,1.837,0,0,1,167.32,209.289Z" transform="translate(-146.564 -183.897)" fill="#4d66d2"/>
        <path id="Trazado_978904" data-name="Trazado 978904" d="M204.787,318.212h-1.441c-.217.062-.422.123-.422.123l-.546.371-.385.634-.142.492v5.98l.463,1.03.594.18.55.144h1.329a1.837,1.837,0,0,0,1.832-1.832v-5.292A1.837,1.837,0,0,0,204.787,318.212Z" transform="translate(-181.172 -287.416)" fill="#6b7ed9"/>
        <path id="Trazado_978905" data-name="Trazado 978905" d="M167.32,325.336v-5.292a1.837,1.837,0,0,1,1.832-1.832h-4.264a1.837,1.837,0,0,0-1.832,1.832v5.292a1.837,1.837,0,0,0,1.832,1.832h4.264A1.837,1.837,0,0,1,167.32,325.336Z" transform="translate(-146.564 -287.416)" fill="#4d66d2"/>
      </g>
      <g id="Grupo_1144846" data-name="Grupo 1144846" transform="translate(10.288 7.5)">
        <line id="Línea_628" data-name="Línea 628" y1="5.365" x2="2.985" transform="translate(41.697 0)" fill="none" stroke="#000" stroke-linecap="round" stroke-linejoin="round" stroke-miterlimit="10" stroke-width="2"/>
        <line id="Línea_629" data-name="Línea 629" y1="2.892" x2="5.416" transform="translate(46.425 6.557)" fill="none" stroke="#000" stroke-linecap="round" stroke-linejoin="round" stroke-miterlimit="10" stroke-width="2"/>
        <line id="Línea_630" data-name="Línea 630" x1="2.985" y1="5.365" transform="translate(8.369 0)" fill="none" stroke="#000" stroke-linecap="round" stroke-linejoin="round" stroke-miterlimit="10" stroke-width="2"/>
        <line id="Línea_631" data-name="Línea 631" x1="5.416" y1="2.892" transform="translate(1.211 6.557)" fill="none" stroke="#000" stroke-linecap="round" stroke-linejoin="round" stroke-miterlimit="10" stroke-width="2"/>
        <path id="Trazado_978906" data-name="Trazado 978906" d="M170.179,202.166h-5.292A1.837,1.837,0,0,0,163.055,204v5.292a1.837,1.837,0,0,0,1.832,1.832h5.292a1.837,1.837,0,0,0,1.832-1.832V204A1.837,1.837,0,0,0,170.179,202.166Z" transform="translate(-146.563 -181.15)" fill="none" stroke="#000" stroke-linecap="round" stroke-linejoin="round" stroke-miterlimit="10" stroke-width="2"/>
        <path id="Trazado_978907" data-name="Trazado 978907" d="M190.769,239.5l1.291,1.291,1.648-1.648" transform="translate(-171.285 -214.136)" fill="none" stroke="#000" stroke-linecap="round" stroke-linejoin="round" stroke-miterlimit="10" stroke-width="2"/>
        <path id="Trazado_978908" data-name="Trazado 978908" d="M190.769,355.547l1.291,1.291,1.648-1.648" transform="translate(-171.285 -317.654)" fill="none" stroke="#000" stroke-linecap="round" stroke-linejoin="round" stroke-miterlimit="10" stroke-width="2"/>
        <line id="Línea_632" data-name="Línea 632" x2="4.714" transform="translate(29.347 28.752)" fill="none" stroke="#000" stroke-linecap="round" stroke-linejoin="round" stroke-miterlimit="10" stroke-width="2"/>
        <line id="Línea_633" data-name="Línea 633" x2="8.232" transform="translate(29.347 25.493)" fill="none" stroke="#000" stroke-linecap="round" stroke-linejoin="round" stroke-miterlimit="10" stroke-width="2"/>
        <line id="Línea_634" data-name="Línea 634" x2="8.232" transform="translate(29.347 22.234)" fill="none" stroke="#000" stroke-linecap="round" stroke-linejoin="round" stroke-miterlimit="10" stroke-width="2"/>
        <line id="Línea_635" data-name="Línea 635" x2="4.714" transform="translate(29.347 41.619)" fill="none" stroke="#000" stroke-linecap="round" stroke-linejoin="round" stroke-miterlimit="10" stroke-width="2"/>
        <line id="Línea_636" data-name="Línea 636" x2="8.232" transform="translate(29.347 38.36)" fill="none" stroke="#000" stroke-linecap="round" stroke-linejoin="round" stroke-miterlimit="10" stroke-width="2"/>
        <line id="Línea_637" data-name="Línea 637" x2="8.232" transform="translate(29.347 35.1)" fill="none" stroke="#000" stroke-linecap="round" stroke-linejoin="round" stroke-miterlimit="10" stroke-width="2"/>
        <path id="Trazado_978909" data-name="Trazado 978909" d="M59.6,59.056l2.344-2.284a4.6,4.6,0,0,0-2.55-7.847L49.037,47.42A4.6,4.6,0,0,1,45.573,44.9L40.94,35.515a4.6,4.6,0,0,0-8.251,0L28.056,44.9a4.6,4.6,0,0,1-3.464,2.517l-10.36,1.505a4.6,4.6,0,0,0-2.55,7.847l7.5,7.307A4.6,4.6,0,0,1,20.5,68.151l-1.77,10.318a4.6,4.6,0,0,0,6.675,4.85l9.266-4.872a4.6,4.6,0,0,1,4.281,0l9.266,4.872a4.6,4.6,0,0,0,6.675-4.85l-1.77-10.318a4.6,4.6,0,0,1,1.323-4.072L56.893,61.7" transform="translate(-10.288 -30.203)" fill="none" stroke="#000" stroke-linecap="round" stroke-linejoin="round" stroke-miterlimit="10" stroke-width="2"/>
        <path id="Trazado_978910" data-name="Trazado 978910" d="M172.011,320.8v-.757a1.837,1.837,0,0,0-1.832-1.832h-5.292a1.837,1.837,0,0,0-1.832,1.832v5.292a1.837,1.837,0,0,0,1.832,1.832h5.292a1.837,1.837,0,0,0,1.832-1.832v-.757" transform="translate(-146.563 -284.669)" fill="none" stroke="#000" stroke-linecap="round" stroke-linejoin="round" stroke-miterlimit="10" stroke-width="2"/>
      </g>
    </g>
  </g>
</svg>
