<svg xmlns="http://www.w3.org/2000/svg" xmlns:xlink="http://www.w3.org/1999/xlink" width="1240" height="482" viewBox="0 0 1240 482">
  <defs>
    <filter id="Trazado_988210" x="142.185" y="66" width="347.997" height="133.355" filterUnits="userSpaceOnUse">
      <feOffset dy="3" input="SourceAlpha"/>
      <feGaussianBlur stdDeviation="3" result="blur"/>
      <feFlood flood-opacity="0.161"/>
      <feComposite operator="in" in2="blur"/>
      <feComposite in="SourceGraphic"/>
    </filter>
    <filter id="Trazado_988211" x="564.185" y="66" width="347.997" height="133.355" filterUnits="userSpaceOnUse">
      <feOffset dy="3" input="SourceAlpha"/>
      <feGaussianBlur stdDeviation="3" result="blur-2"/>
      <feFlood flood-opacity="0.161"/>
      <feComposite operator="in" in2="blur-2"/>
      <feComposite in="SourceGraphic"/>
    </filter>
    <filter id="Trazado_988222" x="282.273" y="234.963" width="27.01" height="110.071" filterUnits="userSpaceOnUse">
      <feOffset dy="3" input="SourceAlpha"/>
      <feGaussianBlur stdDeviation="3" result="blur-3"/>
      <feFlood flood-opacity="0.161"/>
      <feComposite operator="in" in2="blur-3"/>
      <feComposite in="SourceGraphic"/>
    </filter>
    <filter id="Trazado_988223" x="702.527" y="234.963" width="27.01" height="110.071" filterUnits="userSpaceOnUse">
      <feOffset dy="3" input="SourceAlpha"/>
      <feGaussianBlur stdDeviation="3" result="blur-4"/>
      <feFlood flood-opacity="0.161"/>
      <feComposite operator="in" in2="blur-4"/>
      <feComposite in="SourceGraphic"/>
    </filter>
    <filter id="Trazado_988224" x="472.182" y="234.963" width="27.01" height="110.071" filterUnits="userSpaceOnUse">
      <feOffset dy="3" input="SourceAlpha"/>
      <feGaussianBlur stdDeviation="3" result="blur-5"/>
      <feFlood flood-opacity="0.161"/>
      <feComposite operator="in" in2="blur-5"/>
      <feComposite in="SourceGraphic"/>
    </filter>
    <filter id="Trazado_988225" x="895.436" y="234.963" width="27.01" height="110.071" filterUnits="userSpaceOnUse">
      <feOffset dy="3" input="SourceAlpha"/>
      <feGaussianBlur stdDeviation="3" result="blur-6"/>
      <feFlood flood-opacity="0.161"/>
      <feComposite operator="in" in2="blur-6"/>
      <feComposite in="SourceGraphic"/>
    </filter>
    <filter id="Trazado_987423" x="441.384" y="198.252" width="94.76" height="88.437" filterUnits="userSpaceOnUse">
      <feOffset dy="3" input="SourceAlpha"/>
      <feGaussianBlur stdDeviation="3" result="blur-7"/>
      <feFlood flood-opacity="0.161"/>
      <feComposite operator="in" in2="blur-7"/>
      <feComposite in="SourceGraphic"/>
    </filter>
    <filter id="Trazado_987433" x="863.677" y="198.252" width="94.76" height="88.437" filterUnits="userSpaceOnUse">
      <feOffset dy="3" input="SourceAlpha"/>
      <feGaussianBlur stdDeviation="3" result="blur-8"/>
      <feFlood flood-opacity="0.161"/>
      <feComposite operator="in" in2="blur-8"/>
      <feComposite in="SourceGraphic"/>
    </filter>
    <filter id="Trazado_988226" x="55.114" y="272.836" width="1074.467" height="42.329" filterUnits="userSpaceOnUse">
      <feOffset dy="3" input="SourceAlpha"/>
      <feGaussianBlur stdDeviation="3" result="blur-9"/>
      <feFlood flood-opacity="0.161"/>
      <feComposite operator="in" in2="blur-9"/>
      <feComposite in="SourceGraphic"/>
    </filter>
    <filter id="Trazado_987425" x="1097.093" y="256.94" width="66.977" height="74.119" filterUnits="userSpaceOnUse">
      <feOffset dy="3" input="SourceAlpha"/>
      <feGaussianBlur stdDeviation="3" result="blur-10"/>
      <feFlood flood-opacity="0.161"/>
      <feComposite operator="in" in2="blur-10"/>
      <feComposite in="SourceGraphic"/>
    </filter>
    <filter id="Trazado_988227" x="774.527" y="193.385" width="33.01" height="121.637" filterUnits="userSpaceOnUse">
      <feOffset dy="3" input="SourceAlpha"/>
      <feGaussianBlur stdDeviation="3" result="blur-11"/>
      <feFlood flood-opacity="0.161"/>
      <feComposite operator="in" in2="blur-11"/>
      <feComposite in="SourceGraphic"/>
    </filter>
    <filter id="Trazado_987426" x="765.567" y="172.178" width="51.206" height="46.979" filterUnits="userSpaceOnUse">
      <feOffset dy="3" input="SourceAlpha"/>
      <feGaussianBlur stdDeviation="3" result="blur-12"/>
      <feFlood flood-opacity="0.161"/>
      <feComposite operator="in" in2="blur-12"/>
      <feComposite in="SourceGraphic"/>
    </filter>
    <filter id="Trazado_988228" x="333.27" y="193.385" width="33.01" height="121.637" filterUnits="userSpaceOnUse">
      <feOffset dy="3" input="SourceAlpha"/>
      <feGaussianBlur stdDeviation="3" result="blur-13"/>
      <feFlood flood-opacity="0.161"/>
      <feComposite operator="in" in2="blur-13"/>
      <feComposite in="SourceGraphic"/>
    </filter>
    <filter id="Trazado_987429" x="324.31" y="172.178" width="51.206" height="46.979" filterUnits="userSpaceOnUse">
      <feOffset dy="3" input="SourceAlpha"/>
      <feGaussianBlur stdDeviation="3" result="blur-14"/>
      <feFlood flood-opacity="0.161"/>
      <feComposite operator="in" in2="blur-14"/>
      <feComposite in="SourceGraphic"/>
    </filter>
    <filter id="Trazado_987430" x="73.31" y="323.534" width="403.913" height="79.494" filterUnits="userSpaceOnUse">
      <feOffset dy="3" input="SourceAlpha"/>
      <feGaussianBlur stdDeviation="3" result="blur-15"/>
      <feFlood flood-opacity="0.161"/>
      <feComposite operator="in" in2="blur-15"/>
      <feComposite in="SourceGraphic"/>
    </filter>
    <filter id="Trazado_987431" x="491.726" y="323.534" width="403.913" height="79.494" filterUnits="userSpaceOnUse">
      <feOffset dy="3" input="SourceAlpha"/>
      <feGaussianBlur stdDeviation="3" result="blur-16"/>
      <feFlood flood-opacity="0.161"/>
      <feComposite operator="in" in2="blur-16"/>
      <feComposite in="SourceGraphic"/>
    </filter>
    <filter id="Trazado_987432" x="894.31" y="323.534" width="276.129" height="79.494" filterUnits="userSpaceOnUse">
      <feOffset dy="3" input="SourceAlpha"/>
      <feGaussianBlur stdDeviation="3" result="blur-17"/>
      <feFlood flood-opacity="0.161"/>
      <feComposite operator="in" in2="blur-17"/>
      <feComposite in="SourceGraphic"/>
    </filter>
  </defs>
  <g id="Grupo_1149024" data-name="Grupo 1149024" transform="translate(-180.288 -9573.431)">
    <rect id="Rectángulo_406222" data-name="Rectángulo 406222" width="1240" height="482" rx="8" transform="translate(180.288 9573.431)" fill="#edf3fc"/>
    <g transform="matrix(1, 0, 0, 1, 180.29, 9573.43)" filter="url(#Trazado_988210)">
      <path id="Trazado_988210-2" data-name="Trazado 988210" d="M5,0H325a5,5,0,0,1,5,5V110.355a5,5,0,0,1-5,5H5a5,5,0,0,1-5-5V5A5,5,0,0,1,5,0Z" transform="translate(151.18 72)" fill="#fff"/>
    </g>
    <g transform="matrix(1, 0, 0, 1, 180.29, 9573.43)" filter="url(#Trazado_988211)">
      <path id="Trazado_988211-2" data-name="Trazado 988211" d="M5,0H325a5,5,0,0,1,5,5V110.355a5,5,0,0,1-5,5H5a5,5,0,0,1-5-5V5A5,5,0,0,1,5,0Z" transform="translate(573.18 72)" fill="#fff"/>
    </g>
    <path id="Trazado_988212" data-name="Trazado 988212" d="M6.433,0H4.009V-8.3H1.179v-1.61a10.486,10.486,0,0,0,1.569-.149,2.213,2.213,0,0,0,1.162-.631,2.077,2.077,0,0,0,.465-.863,1.982,1.982,0,0,0,.091-.481H6.433Zm4.084-2.474h2.515V0H10.517Zm16.22-.042H22.229L21.383,0H18.71l4.366-12.235h2.889L30.3,0H27.525Zm-.714-2.108L24.5-9.438,22.918-4.624ZM37.461-1.278q-.033.042-.166.249a1.666,1.666,0,0,1-.315.365,3.294,3.294,0,0,1-1.075.681A3.663,3.663,0,0,1,34.689.2a2.711,2.711,0,0,1-2.706-1.444,5.527,5.527,0,0,1-.39-2.349V-9.048h2.424v5.454A2.855,2.855,0,0,0,34.2-2.432a1.264,1.264,0,0,0,1.27.689,1.66,1.66,0,0,0,1.66-.979,3.546,3.546,0,0,0,.232-1.4V-9.048h2.4V0h-2.3Zm8.724-.407V.083L45.065.125a3.007,3.007,0,0,1-2.291-.581,1.73,1.73,0,0,1-.4-1.253V-7.28H41.114V-8.965h1.262v-2.523h2.341v2.523h1.469V-7.28H44.716V-2.5a1.077,1.077,0,0,0,.141.693,1.554,1.554,0,0,0,.863.137q.108,0,.228,0T46.186-1.685ZM55.25-7.9a5.28,5.28,0,0,1,1.146,3.4A5.245,5.245,0,0,1,55.25-1.1,4.209,4.209,0,0,1,51.772.315,4.209,4.209,0,0,1,48.294-1.1a5.245,5.245,0,0,1-1.146-3.407,5.28,5.28,0,0,1,1.146-3.4,4.18,4.18,0,0,1,3.478-1.436A4.18,4.18,0,0,1,55.25-7.9Zm-3.486.564a1.89,1.89,0,0,0-1.6.735,3.4,3.4,0,0,0-.56,2.1,3.418,3.418,0,0,0,.56,2.1,1.886,1.886,0,0,0,1.6.739,1.875,1.875,0,0,0,1.594-.739,3.437,3.437,0,0,0,.556-2.1,3.418,3.418,0,0,0-.556-2.1A1.879,1.879,0,0,0,51.764-7.338Zm14.07,4.682A3,3,0,0,1,65-1.021,4.107,4.107,0,0,1,61.741.3,4.588,4.588,0,0,1,58.695-.813a4.486,4.486,0,0,1-1.32-3.619,5.03,5.03,0,0,1,1.191-3.6,4.073,4.073,0,0,1,3.092-1.253,4.742,4.742,0,0,1,2.034.423,3.563,3.563,0,0,1,1.494,1.336,4.56,4.56,0,0,1,.689,1.868,12.061,12.061,0,0,1,.075,1.793H59.757a2.248,2.248,0,0,0,.855,1.909,2.014,2.014,0,0,0,1.179.34,1.7,1.7,0,0,0,1.187-.415,1.971,1.971,0,0,0,.44-.623ZM63.493-5.429a2.059,2.059,0,0,0-.569-1.424,1.766,1.766,0,0,0-1.266-.486,1.607,1.607,0,0,0-1.274.515,2.569,2.569,0,0,0-.569,1.395Zm3.163-3.619h2.656L71.2-2.374l1.926-6.674h2.54L72.4,0H69.9Zm10.683.979a3.863,3.863,0,0,1,3.221-1.2,5.722,5.722,0,0,1,2.64.589A2.263,2.263,0,0,1,84.353-6.45V-2.3q0,.432.017,1.046a1.315,1.315,0,0,0,.141.631.848.848,0,0,0,.349.274V0H82.286a2.635,2.635,0,0,1-.149-.515q-.042-.241-.066-.548a4.861,4.861,0,0,1-1.129.9,3.4,3.4,0,0,1-1.727.44,2.969,2.969,0,0,1-2.03-.7,2.5,2.5,0,0,1-.8-1.988A2.58,2.58,0,0,1,77.67-4.823,5.713,5.713,0,0,1,79.746-5.4l.805-.1a3.693,3.693,0,0,0,.938-.208A.711.711,0,0,0,82-6.383a.8.8,0,0,0-.386-.768,2.411,2.411,0,0,0-1.133-.212,1.476,1.476,0,0,0-1.187.415,1.725,1.725,0,0,0-.332.83H76.674A3.472,3.472,0,0,1,77.338-8.068ZM79.1-1.71a1.236,1.236,0,0,0,.813.274,2.409,2.409,0,0,0,1.407-.448,1.912,1.912,0,0,0,.668-1.635V-4.4a2.571,2.571,0,0,1-.452.228,3.783,3.783,0,0,1-.627.162l-.531.1a3.43,3.43,0,0,0-1.071.324,1.085,1.085,0,0,0-.548,1A1.039,1.039,0,0,0,79.1-1.71Zm7.4-10.525h2.366V0H86.5ZM96.978-1.278q-.033.042-.166.249a1.666,1.666,0,0,1-.315.365,3.294,3.294,0,0,1-1.075.681A3.663,3.663,0,0,1,94.206.2,2.711,2.711,0,0,1,91.5-1.245a5.527,5.527,0,0,1-.39-2.349V-9.048h2.424v5.454a2.855,2.855,0,0,0,.183,1.162,1.264,1.264,0,0,0,1.27.689,1.66,1.66,0,0,0,1.66-.979,3.546,3.546,0,0,0,.232-1.4V-9.048h2.4V0h-2.3Zm4.922-6.79a3.863,3.863,0,0,1,3.221-1.2,5.722,5.722,0,0,1,2.64.589,2.263,2.263,0,0,1,1.154,2.225V-2.3q0,.432.017,1.046a1.315,1.315,0,0,0,.141.631.848.848,0,0,0,.349.274V0h-2.573a2.635,2.635,0,0,1-.149-.515q-.042-.241-.066-.548a4.861,4.861,0,0,1-1.129.9,3.4,3.4,0,0,1-1.727.44,2.969,2.969,0,0,1-2.03-.7,2.5,2.5,0,0,1-.8-1.988,2.58,2.58,0,0,1,1.287-2.416,5.713,5.713,0,0,1,2.075-.581l.805-.1a3.693,3.693,0,0,0,.938-.208.711.711,0,0,0,.506-.672.8.8,0,0,0-.386-.768,2.411,2.411,0,0,0-1.133-.212,1.476,1.476,0,0,0-1.187.415,1.725,1.725,0,0,0-.332.83h-2.283A3.472,3.472,0,0,1,101.9-8.068Zm1.76,6.358a1.236,1.236,0,0,0,.813.274,2.409,2.409,0,0,0,1.407-.448,1.912,1.912,0,0,0,.668-1.635V-4.4a2.571,2.571,0,0,1-.452.228,3.783,3.783,0,0,1-.627.162l-.531.1a3.43,3.43,0,0,0-1.071.324,1.085,1.085,0,0,0-.548,1A1.039,1.039,0,0,0,103.66-1.71ZM118.842-5.8h-2.424a2.1,2.1,0,0,0-.34-.913,1.427,1.427,0,0,0-1.237-.548,1.629,1.629,0,0,0-1.635,1.187,4.963,4.963,0,0,0-.232,1.677,4.563,4.563,0,0,0,.232,1.6A1.579,1.579,0,0,0,114.8-1.668a1.405,1.405,0,0,0,1.179-.448,2.231,2.231,0,0,0,.423-1.162h2.416a3.958,3.958,0,0,1-.78,2.042,3.793,3.793,0,0,1-3.3,1.552,3.855,3.855,0,0,1-3.212-1.295A5.24,5.24,0,0,1,110.5-4.341a5.317,5.317,0,0,1,1.137-3.627,3.958,3.958,0,0,1,3.138-1.295,4.725,4.725,0,0,1,2.785.764A3.552,3.552,0,0,1,118.842-5.8ZM122.9-9.048V0h-2.4V-9.048Zm0-3.262v2.183h-2.4V-12.31ZM132.738-7.9a5.28,5.28,0,0,1,1.146,3.4A5.245,5.245,0,0,1,132.738-1.1,4.209,4.209,0,0,1,129.26.315,4.209,4.209,0,0,1,125.782-1.1a5.245,5.245,0,0,1-1.146-3.407,5.28,5.28,0,0,1,1.146-3.4,4.18,4.18,0,0,1,3.478-1.436A4.18,4.18,0,0,1,132.738-7.9Zm-3.486.564a1.89,1.89,0,0,0-1.6.735,3.4,3.4,0,0,0-.56,2.1,3.418,3.418,0,0,0,.56,2.1,1.886,1.886,0,0,0,1.6.739,1.875,1.875,0,0,0,1.594-.739,3.437,3.437,0,0,0,.556-2.1,3.418,3.418,0,0,0-.556-2.1A1.879,1.879,0,0,0,129.251-7.338Zm-1.395-2.93,1.594-2.482h2.64l-2.523,2.482ZM139.835-7.3a1.647,1.647,0,0,0-1.652,1.021,3.507,3.507,0,0,0-.232,1.378V0h-2.357V-9.031h2.283v1.32a4.016,4.016,0,0,1,.863-1,3,3,0,0,1,1.851-.548,3.493,3.493,0,0,1,2.3.735,2.987,2.987,0,0,1,.892,2.436V0h-2.424V-5.5a2.511,2.511,0,0,0-.191-1.1A1.343,1.343,0,0,0,139.835-7.3ZM5.91,19.413A1.491,1.491,0,0,0,4.7,18.906a1.478,1.478,0,0,0-1.469.805,3.993,3.993,0,0,0-.266,1.478H.664a5.815,5.815,0,0,1,.556-2.482,3.464,3.464,0,0,1,3.362-1.8A4.263,4.263,0,0,1,7.62,17.964a3.66,3.66,0,0,1,1.129,2.8,3.793,3.793,0,0,1-.8,2.374,7.939,7.939,0,0,1-1.718,1.536l-.946.672q-.888.631-1.216.913a2.676,2.676,0,0,0-.552.656H8.774V29H.531a5.656,5.656,0,0,1,.556-2.366,6.688,6.688,0,0,1,2.391-2.548,17.531,17.531,0,0,0,2.117-1.677,2.478,2.478,0,0,0,.739-1.727A1.913,1.913,0,0,0,5.91,19.413Zm9.33,7.114h2.515V29H15.24ZM30.115,24.6h-2.6V29h-2.54V16.765h5.329a4.341,4.341,0,0,1,2.938.946,3.667,3.667,0,0,1,1.1,2.93,3.755,3.755,0,0,1-1.1,3.063A4.825,4.825,0,0,1,30.115,24.6Zm1.2-2.548a1.77,1.77,0,0,0,.5-1.395,1.656,1.656,0,0,0-.5-1.361A2.179,2.179,0,0,0,29.9,18.89H27.517v3.6H29.9A2.082,2.082,0,0,0,31.311,22.052Zm4.806-5.288h2.366V29H36.117Zm5.014,4.167a3.863,3.863,0,0,1,3.221-1.2,5.722,5.722,0,0,1,2.64.589,2.263,2.263,0,0,1,1.154,2.225V26.7q0,.432.017,1.046a1.315,1.315,0,0,0,.141.631.848.848,0,0,0,.349.274V29H46.078a2.635,2.635,0,0,1-.149-.515q-.042-.241-.066-.548a4.861,4.861,0,0,1-1.129.9,3.4,3.4,0,0,1-1.727.44,2.968,2.968,0,0,1-2.03-.7,2.5,2.5,0,0,1-.8-1.988,2.58,2.58,0,0,1,1.287-2.416,5.713,5.713,0,0,1,2.075-.581l.805-.1a3.693,3.693,0,0,0,.938-.208.711.711,0,0,0,.506-.672.8.8,0,0,0-.386-.768,2.411,2.411,0,0,0-1.133-.212,1.476,1.476,0,0,0-1.187.415,1.725,1.725,0,0,0-.332.83H40.466A3.472,3.472,0,0,1,41.13,20.932Zm1.76,6.358a1.236,1.236,0,0,0,.813.274,2.409,2.409,0,0,0,1.407-.448,1.912,1.912,0,0,0,.668-1.635V24.6a2.571,2.571,0,0,1-.452.228,3.783,3.783,0,0,1-.627.162l-.531.1a3.43,3.43,0,0,0-1.071.324,1.085,1.085,0,0,0-.548,1A1.039,1.039,0,0,0,42.89,27.29ZM54.5,21.7a1.647,1.647,0,0,0-1.652,1.021,3.507,3.507,0,0,0-.232,1.378V29H50.261V19.969h2.283v1.32a4.016,4.016,0,0,1,.863-1,3,3,0,0,1,1.851-.548,3.493,3.493,0,0,1,2.3.735,2.987,2.987,0,0,1,.892,2.436V29H56.022V23.5a2.511,2.511,0,0,0-.191-1.1A1.343,1.343,0,0,0,54.5,21.7Zm19.083-4.922V29h-2.3V27.747a3.337,3.337,0,0,1-1.154,1.17,3.239,3.239,0,0,1-1.61.365A3.362,3.362,0,0,1,65.854,28a4.925,4.925,0,0,1-1.083-3.291,5.664,5.664,0,0,1,1.067-3.644,3.47,3.47,0,0,1,2.851-1.328,2.918,2.918,0,0,1,1.461.361,2.874,2.874,0,0,1,1.038,1V16.781Zm-6.375,7.753a3.557,3.557,0,0,0,.5,2,1.658,1.658,0,0,0,1.494.755,1.747,1.747,0,0,0,1.527-.747,3.3,3.3,0,0,0,.523-1.934,2.966,2.966,0,0,0-.838-2.374,1.8,1.8,0,0,0-1.2-.432,1.662,1.662,0,0,0-1.523.784A3.634,3.634,0,0,0,67.211,24.534Zm16.27,1.81a3,3,0,0,1-.838,1.635,4.107,4.107,0,0,1-3.254,1.32,4.588,4.588,0,0,1-3.046-1.112,4.486,4.486,0,0,1-1.32-3.619,5.03,5.03,0,0,1,1.191-3.6,4.073,4.073,0,0,1,3.092-1.253,4.742,4.742,0,0,1,2.034.423,3.563,3.563,0,0,1,1.494,1.336,4.56,4.56,0,0,1,.689,1.868,12.061,12.061,0,0,1,.075,1.793H77.4a2.248,2.248,0,0,0,.855,1.909,2.014,2.014,0,0,0,1.179.34,1.7,1.7,0,0,0,1.187-.415,1.971,1.971,0,0,0,.44-.623ZM81.14,23.571a2.059,2.059,0,0,0-.569-1.424,1.766,1.766,0,0,0-1.266-.486,1.607,1.607,0,0,0-1.274.515,2.569,2.569,0,0,0-.569,1.395Zm13.854-1.129a1.159,1.159,0,0,0-1.17-.656,1.4,1.4,0,0,0-1.361.656,2.527,2.527,0,0,0-.191,1.112V29h-2.4V19.969h2.3v1.32a3.807,3.807,0,0,1,.83-1,3.284,3.284,0,0,1,3.461-.075,2.656,2.656,0,0,1,.78,1.087,3.008,3.008,0,0,1,1.154-1.17,3.521,3.521,0,0,1,1.627-.374,3.149,3.149,0,0,1,1.179.232,2.63,2.63,0,0,1,1.054.813,2.6,2.6,0,0,1,.515,1.162,8.032,8.032,0,0,1,.083,1.336l-.017,5.7h-2.424V23.239a1.891,1.891,0,0,0-.166-.847,1.18,1.18,0,0,0-1.162-.631,1.36,1.36,0,0,0-1.353.813,2.555,2.555,0,0,0-.191,1.038V29H95.16V23.613A3.026,3.026,0,0,0,94.994,22.442Zm17.78,3.9a3,3,0,0,1-.838,1.635,4.107,4.107,0,0,1-3.254,1.32,4.588,4.588,0,0,1-3.046-1.112,4.486,4.486,0,0,1-1.32-3.619,5.03,5.03,0,0,1,1.191-3.6,4.073,4.073,0,0,1,3.092-1.253,4.742,4.742,0,0,1,2.034.423,3.563,3.563,0,0,1,1.494,1.336,4.56,4.56,0,0,1,.689,1.868,12.061,12.061,0,0,1,.075,1.793H106.7a2.248,2.248,0,0,0,.855,1.909,2.014,2.014,0,0,0,1.179.34,1.7,1.7,0,0,0,1.187-.415,1.971,1.971,0,0,0,.44-.623Zm-2.341-2.772a2.059,2.059,0,0,0-.569-1.424,1.766,1.766,0,0,0-1.266-.486,1.607,1.607,0,0,0-1.274.515,2.569,2.569,0,0,0-.569,1.395Zm4.159-3.578h2.366v9.978a3.153,3.153,0,0,1-.54,2.025,2.669,2.669,0,0,1-2.117.656q-.108,0-.32-.008t-.527-.017V30.735q.2.017.282.021t.149,0a.736.736,0,0,0,.527-.17.915.915,0,0,0,.178-.66Zm0-3.3h2.366v2.183h-2.366ZM126.753,21.1a5.622,5.622,0,0,1,0,6.8,4.981,4.981,0,0,1-6.956,0,5.622,5.622,0,0,1,0-6.8,4.93,4.93,0,0,1,6.956,0Zm-3.486.564a1.89,1.89,0,0,0-1.6.735,3.4,3.4,0,0,0-.56,2.1,3.418,3.418,0,0,0,.56,2.1,2.093,2.093,0,0,0,3.192,0,3.437,3.437,0,0,0,.556-2.1,3.418,3.418,0,0,0-.556-2.1A1.879,1.879,0,0,0,123.267,21.662Zm10.874.473a1.962,1.962,0,0,0-1.917.93,3.617,3.617,0,0,0-.274,1.61V29h-2.382V19.952h2.258v1.577a5,5,0,0,1,.955-1.237,2.6,2.6,0,0,1,1.727-.556q.066,0,.112,0l.2.012v2.424q-.224-.025-.4-.033T134.141,22.135Zm2.407-1.2a3.863,3.863,0,0,1,3.221-1.2,5.722,5.722,0,0,1,2.64.589,2.263,2.263,0,0,1,1.154,2.225V26.7q0,.432.017,1.046a1.315,1.315,0,0,0,.141.631.848.848,0,0,0,.349.274V29H141.5a2.634,2.634,0,0,1-.149-.515q-.041-.241-.066-.548a4.861,4.861,0,0,1-1.129.9,3.4,3.4,0,0,1-1.727.44,2.968,2.968,0,0,1-2.03-.7,2.5,2.5,0,0,1-.8-1.988,2.58,2.58,0,0,1,1.287-2.416,5.713,5.713,0,0,1,2.075-.581l.805-.1a3.693,3.693,0,0,0,.938-.208.711.711,0,0,0,.506-.672.8.8,0,0,0-.386-.768,2.411,2.411,0,0,0-1.133-.212,1.476,1.476,0,0,0-1.187.415,1.725,1.725,0,0,0-.332.83h-2.283A3.472,3.472,0,0,1,136.548,20.932Zm1.76,6.358a1.236,1.236,0,0,0,.813.274,2.409,2.409,0,0,0,1.407-.448,1.912,1.912,0,0,0,.668-1.635V24.6a2.571,2.571,0,0,1-.452.228,3.783,3.783,0,0,1-.627.162l-.531.1a3.43,3.43,0,0,0-1.071.324,1.085,1.085,0,0,0-.548,1A1.039,1.039,0,0,0,138.308,27.29ZM3.254,48.363a2.237,2.237,0,0,0-.382,1.419H.664a5.937,5.937,0,0,1,.307-1.7,3.83,3.83,0,0,1,.913-1.3,3.181,3.181,0,0,1,1.1-.647,4.778,4.778,0,0,1,1.569-.224,4.175,4.175,0,0,1,2.785.892A2.972,2.972,0,0,1,8.4,49.193a2.648,2.648,0,0,1-.631,1.793,2.154,2.154,0,0,1-.83.623,1.707,1.707,0,0,1,.93.556,2.97,2.97,0,0,1,.9,2.291,3.859,3.859,0,0,1-1.058,2.685A4.034,4.034,0,0,1,4.582,58.3,3.791,3.791,0,0,1,1.029,56.63a4.952,4.952,0,0,1-.581-2.324H2.772A2.706,2.706,0,0,0,3,55.5a1.593,1.593,0,0,0,1.569.872A1.738,1.738,0,0,0,5.79,55.9a1.773,1.773,0,0,0,.519-1.374,1.548,1.548,0,0,0-.963-1.585,4.888,4.888,0,0,0-1.727-.224V51.019a4.479,4.479,0,0,0,1.61-.224,1.384,1.384,0,0,0,.789-1.411,1.577,1.577,0,0,0-.4-1.121,1.473,1.473,0,0,0-1.133-.432A1.422,1.422,0,0,0,3.254,48.363Zm7.263,7.164h2.515V58H10.517Zm18.353-7.6H22.736v2.814h5.371V52.87H22.736V58H20.2V45.781H28.87ZM37.935,50.1a5.622,5.622,0,0,1,0,6.8,4.209,4.209,0,0,1-3.478,1.415A4.209,4.209,0,0,1,30.979,56.9a5.622,5.622,0,0,1,0-6.8,4.18,4.18,0,0,1,3.478-1.436A4.18,4.18,0,0,1,37.935,50.1Zm-3.486.564a1.89,1.89,0,0,0-1.6.735,4.208,4.208,0,0,0,0,4.2,2.093,2.093,0,0,0,3.192,0,4.235,4.235,0,0,0,0-4.2A1.879,1.879,0,0,0,34.448,50.662Zm10.874.473a1.962,1.962,0,0,0-1.917.93,3.617,3.617,0,0,0-.274,1.61V58H40.749V48.952h2.258v1.577a5,5,0,0,1,.955-1.237,2.6,2.6,0,0,1,1.727-.556q.066,0,.112,0l.2.012v2.424q-.224-.025-.4-.033T45.322,51.135Zm7.147.307a1.159,1.159,0,0,0-1.17-.656,1.4,1.4,0,0,0-1.361.656,2.527,2.527,0,0,0-.191,1.112V58h-2.4V48.969h2.3v1.32a3.807,3.807,0,0,1,.83-1,3.284,3.284,0,0,1,3.461-.075,2.656,2.656,0,0,1,.78,1.087,3.008,3.008,0,0,1,1.154-1.17,3.521,3.521,0,0,1,1.627-.374,3.149,3.149,0,0,1,1.179.232,2.63,2.63,0,0,1,1.054.813,2.6,2.6,0,0,1,.515,1.162A8.032,8.032,0,0,1,60.33,52.3L60.313,58H57.89V52.239a1.891,1.891,0,0,0-.166-.847,1.18,1.18,0,0,0-1.162-.631,1.36,1.36,0,0,0-1.353.813,2.555,2.555,0,0,0-.191,1.038V58H52.635V52.613A3.026,3.026,0,0,0,52.469,51.442Zm15.838,5.279q-.033.042-.166.249a1.666,1.666,0,0,1-.315.365,3.294,3.294,0,0,1-1.075.681,3.663,3.663,0,0,1-1.216.183,2.711,2.711,0,0,1-2.706-1.444,5.527,5.527,0,0,1-.39-2.349V48.952h2.424v5.454a2.855,2.855,0,0,0,.183,1.162,1.264,1.264,0,0,0,1.27.689,1.66,1.66,0,0,0,1.66-.979,3.546,3.546,0,0,0,.232-1.4V48.952h2.4V58h-2.3Zm4.632-10.957H75.3V58H72.939Zm5.014,4.167a3.863,3.863,0,0,1,3.221-1.2,5.722,5.722,0,0,1,2.64.589,2.263,2.263,0,0,1,1.154,2.225V55.7q0,.432.017,1.046a1.315,1.315,0,0,0,.141.631.848.848,0,0,0,.349.274V58H82.9a2.635,2.635,0,0,1-.149-.515q-.042-.241-.066-.548a4.861,4.861,0,0,1-1.129.9,3.4,3.4,0,0,1-1.727.44,2.969,2.969,0,0,1-2.03-.7,2.5,2.5,0,0,1-.8-1.988,2.58,2.58,0,0,1,1.287-2.416A5.713,5.713,0,0,1,80.36,52.6l.805-.1a3.693,3.693,0,0,0,.938-.208.711.711,0,0,0,.506-.672.8.8,0,0,0-.386-.768,2.411,2.411,0,0,0-1.133-.212,1.476,1.476,0,0,0-1.187.415,1.725,1.725,0,0,0-.332.83H77.289A3.472,3.472,0,0,1,77.953,49.932Zm1.76,6.358a1.236,1.236,0,0,0,.813.274,2.409,2.409,0,0,0,1.407-.448A1.912,1.912,0,0,0,82.6,54.48V53.6a2.571,2.571,0,0,1-.452.228,3.783,3.783,0,0,1-.627.162l-.531.1a3.431,3.431,0,0,0-1.071.324,1.085,1.085,0,0,0-.548,1A1.039,1.039,0,0,0,79.712,56.29Zm11.9-5.155a1.962,1.962,0,0,0-1.917.93,3.617,3.617,0,0,0-.274,1.61V58H87.042V48.952H89.3v1.577a5,5,0,0,1,.955-1.237,2.6,2.6,0,0,1,1.727-.556q.066,0,.112,0l.2.012v2.424q-.224-.025-.4-.033T91.616,51.135Zm14.369-1.212a4.854,4.854,0,0,1,1.1,3.437A5.451,5.451,0,0,1,106.005,57a3.48,3.48,0,0,1-2.768,1.253,2.889,2.889,0,0,1-1.793-.54,3.479,3.479,0,0,1-.764-.872v4.715H98.339V48.952h2.266v1.336a3.8,3.8,0,0,1,.813-.93,2.989,2.989,0,0,1,1.876-.606A3.558,3.558,0,0,1,105.984,49.923Zm-1.345,3.553a3.561,3.561,0,0,0-.477-1.851,1.662,1.662,0,0,0-1.548-.805,1.761,1.761,0,0,0-1.768,1.22,4.628,4.628,0,0,0-.249,1.644,2.621,2.621,0,0,0,.838,2.216,1.909,1.909,0,0,0,1.179.374,1.708,1.708,0,0,0,1.507-.764A3.561,3.561,0,0,0,104.64,53.476Zm4.2-7.711h2.366V58H108.84Zm5.014,4.167a3.863,3.863,0,0,1,3.221-1.2,5.722,5.722,0,0,1,2.64.589,2.263,2.263,0,0,1,1.154,2.225V55.7q0,.432.017,1.046a1.315,1.315,0,0,0,.141.631.848.848,0,0,0,.349.274V58H118.8a2.635,2.635,0,0,1-.149-.515q-.042-.241-.066-.548a4.861,4.861,0,0,1-1.129.9,3.4,3.4,0,0,1-1.727.44,2.969,2.969,0,0,1-2.03-.7,2.5,2.5,0,0,1-.8-1.988,2.58,2.58,0,0,1,1.287-2.416,5.713,5.713,0,0,1,2.075-.581l.805-.1a3.693,3.693,0,0,0,.938-.208.711.711,0,0,0,.506-.672.8.8,0,0,0-.386-.768,2.411,2.411,0,0,0-1.133-.212,1.476,1.476,0,0,0-1.187.415,1.725,1.725,0,0,0-.332.83h-2.283A3.472,3.472,0,0,1,113.854,49.932Zm1.76,6.358a1.236,1.236,0,0,0,.813.274,2.409,2.409,0,0,0,1.407-.448,1.912,1.912,0,0,0,.668-1.635V53.6a2.571,2.571,0,0,1-.452.228,3.783,3.783,0,0,1-.627.162l-.531.1a3.431,3.431,0,0,0-1.071.324,1.085,1.085,0,0,0-.548,1A1.039,1.039,0,0,0,115.613,56.29ZM127.226,50.7a1.647,1.647,0,0,0-1.652,1.021,3.507,3.507,0,0,0-.232,1.378V58h-2.357V48.969h2.283v1.32a4.016,4.016,0,0,1,.863-1,3,3,0,0,1,1.851-.548,3.493,3.493,0,0,1,2.3.735,2.987,2.987,0,0,1,.892,2.436V58h-2.424V52.5a2.511,2.511,0,0,0-.191-1.1A1.343,1.343,0,0,0,127.226,50.7Zm11.189-.772a3.863,3.863,0,0,1,3.221-1.2,5.722,5.722,0,0,1,2.64.589,2.263,2.263,0,0,1,1.154,2.225V55.7q0,.432.017,1.046a1.315,1.315,0,0,0,.141.631.848.848,0,0,0,.349.274V58h-2.573a2.634,2.634,0,0,1-.149-.515q-.041-.241-.066-.548a4.861,4.861,0,0,1-1.129.9,3.4,3.4,0,0,1-1.727.44,2.968,2.968,0,0,1-2.03-.7,2.5,2.5,0,0,1-.8-1.988,2.58,2.58,0,0,1,1.287-2.416,5.713,5.713,0,0,1,2.075-.581l.805-.1a3.693,3.693,0,0,0,.938-.208.711.711,0,0,0,.506-.672.8.8,0,0,0-.386-.768,2.411,2.411,0,0,0-1.133-.212,1.476,1.476,0,0,0-1.187.415,1.725,1.725,0,0,0-.332.83h-2.283A3.472,3.472,0,0,1,138.416,49.932Zm1.76,6.358a1.236,1.236,0,0,0,.813.274,2.409,2.409,0,0,0,1.407-.448,1.912,1.912,0,0,0,.668-1.635V53.6a2.571,2.571,0,0,1-.452.228,3.783,3.783,0,0,1-.627.162l-.531.1a3.431,3.431,0,0,0-1.071.324,1.085,1.085,0,0,0-.548,1A1.039,1.039,0,0,0,140.175,56.29ZM151.788,50.7a1.647,1.647,0,0,0-1.652,1.021A3.507,3.507,0,0,0,149.9,53.1V58h-2.357V48.969h2.283v1.32a4.016,4.016,0,0,1,.863-1,3,3,0,0,1,1.851-.548,3.493,3.493,0,0,1,2.3.735,2.987,2.987,0,0,1,.892,2.436V58h-2.424V52.5a2.511,2.511,0,0,0-.191-1.1A1.343,1.343,0,0,0,151.788,50.7Zm11.928,6.018q-.033.042-.166.249a1.666,1.666,0,0,1-.315.365,3.294,3.294,0,0,1-1.075.681,3.663,3.663,0,0,1-1.216.183,2.711,2.711,0,0,1-2.706-1.444,5.527,5.527,0,0,1-.39-2.349V48.952h2.424v5.454a2.855,2.855,0,0,0,.183,1.162,1.264,1.264,0,0,0,1.27.689,1.66,1.66,0,0,0,1.66-.979,3.546,3.546,0,0,0,.232-1.4V48.952h2.4V58h-2.3Zm4.922-6.79a3.863,3.863,0,0,1,3.221-1.2,5.722,5.722,0,0,1,2.64.589,2.263,2.263,0,0,1,1.154,2.225V55.7q0,.432.017,1.046a1.315,1.315,0,0,0,.141.631.848.848,0,0,0,.349.274V58h-2.573a2.634,2.634,0,0,1-.149-.515q-.041-.241-.066-.548a4.861,4.861,0,0,1-1.129.9,3.4,3.4,0,0,1-1.727.44,2.968,2.968,0,0,1-2.03-.7,2.5,2.5,0,0,1-.8-1.988,2.58,2.58,0,0,1,1.287-2.416,5.713,5.713,0,0,1,2.075-.581l.805-.1a3.693,3.693,0,0,0,.938-.208.711.711,0,0,0,.506-.672.8.8,0,0,0-.386-.768,2.411,2.411,0,0,0-1.133-.212,1.476,1.476,0,0,0-1.187.415,1.725,1.725,0,0,0-.332.83h-2.283A3.472,3.472,0,0,1,168.639,49.932Zm1.76,6.358a1.236,1.236,0,0,0,.813.274,2.409,2.409,0,0,0,1.407-.448,1.912,1.912,0,0,0,.668-1.635V53.6a2.571,2.571,0,0,1-.452.228,3.783,3.783,0,0,1-.627.162l-.531.1a3.431,3.431,0,0,0-1.071.324,1.085,1.085,0,0,0-.548,1A1.039,1.039,0,0,0,170.4,56.29Zm7.4-10.525h2.366V58H177.8Zm14.2,2.648a1.726,1.726,0,0,0-2.681.3,3.993,3.993,0,0,0-.266,1.478h-2.3a5.815,5.815,0,0,1,.556-2.482,3.464,3.464,0,0,1,3.362-1.8,4.263,4.263,0,0,1,3.038,1.058,3.659,3.659,0,0,1,1.129,2.8,3.793,3.793,0,0,1-.8,2.374,7.939,7.939,0,0,1-1.718,1.536l-.946.672q-.888.631-1.216.913a2.676,2.676,0,0,0-.552.656h5.254V58h-8.243a5.656,5.656,0,0,1,.556-2.366,6.688,6.688,0,0,1,2.391-2.548,17.532,17.532,0,0,0,2.117-1.677,2.478,2.478,0,0,0,.739-1.727A1.913,1.913,0,0,0,192.005,48.413Zm8.226,9.886a3.406,3.406,0,0,1-3.225-1.61,9.316,9.316,0,0,1-.926-4.59,9.366,9.366,0,0,1,.926-4.6,4.026,4.026,0,0,1,6.454,0,9.4,9.4,0,0,1,.921,4.6,9.316,9.316,0,0,1-.926,4.59A3.406,3.406,0,0,1,200.231,58.3Zm1.386-3.03a11.842,11.842,0,0,0,.324-3.171,11.617,11.617,0,0,0-.328-3.221,1.339,1.339,0,0,0-1.382-1.046,1.359,1.359,0,0,0-1.395,1.046,11.211,11.211,0,0,0-.34,3.221,11.337,11.337,0,0,0,.34,3.175,1.428,1.428,0,0,0,2.781,0Zm9.3-6.856a1.726,1.726,0,0,0-2.681.3,3.993,3.993,0,0,0-.266,1.478h-2.3a5.815,5.815,0,0,1,.556-2.482,3.464,3.464,0,0,1,3.362-1.8,4.263,4.263,0,0,1,3.038,1.058,3.659,3.659,0,0,1,1.129,2.8,3.793,3.793,0,0,1-.8,2.374,7.939,7.939,0,0,1-1.718,1.536l-.946.672q-.888.631-1.216.913a2.676,2.676,0,0,0-.552.656h5.254V58h-8.243a5.656,5.656,0,0,1,.556-2.366,6.688,6.688,0,0,1,2.391-2.548,17.532,17.532,0,0,0,2.117-1.677,2.478,2.478,0,0,0,.739-1.727A1.913,1.913,0,0,0,210.915,48.413ZM220.892,58h-2.424V49.7h-2.831v-1.61a10.486,10.486,0,0,0,1.569-.149,2.213,2.213,0,0,0,1.162-.631,2.077,2.077,0,0,0,.465-.863,1.982,1.982,0,0,0,.091-.481h1.967Z" transform="translate(357.062 9680.608)" fill="#0b0a0a"/>
    <path id="Trazado_988213" data-name="Trazado 988213" d="M6.491-4.4h-2.6V0H1.353V-12.235H6.682a4.341,4.341,0,0,1,2.938.946,3.667,3.667,0,0,1,1.1,2.93A3.755,3.755,0,0,1,9.621-5.3,4.825,4.825,0,0,1,6.491-4.4Zm1.2-2.548a1.77,1.77,0,0,0,.5-1.395,1.656,1.656,0,0,0-.5-1.361,2.179,2.179,0,0,0-1.407-.407H3.893v3.6H6.275A2.082,2.082,0,0,0,7.687-6.948Zm4.806-5.288h2.366V0H12.493Zm5.014,4.167a3.863,3.863,0,0,1,3.221-1.2,5.722,5.722,0,0,1,2.64.589A2.263,2.263,0,0,1,24.521-6.45V-2.3q0,.432.017,1.046a1.315,1.315,0,0,0,.141.631.848.848,0,0,0,.349.274V0H22.454A2.635,2.635,0,0,1,22.3-.515q-.042-.241-.066-.548a4.861,4.861,0,0,1-1.129.9,3.4,3.4,0,0,1-1.727.44,2.969,2.969,0,0,1-2.03-.7,2.5,2.5,0,0,1-.8-1.988,2.58,2.58,0,0,1,1.287-2.416A5.713,5.713,0,0,1,19.914-5.4l.805-.1a3.693,3.693,0,0,0,.938-.208.711.711,0,0,0,.506-.672.8.8,0,0,0-.386-.768,2.411,2.411,0,0,0-1.133-.212,1.476,1.476,0,0,0-1.187.415,1.725,1.725,0,0,0-.332.83H16.842A3.472,3.472,0,0,1,17.506-8.068Zm1.76,6.358a1.236,1.236,0,0,0,.813.274,2.409,2.409,0,0,0,1.407-.448,1.912,1.912,0,0,0,.668-1.635V-4.4a2.571,2.571,0,0,1-.452.228,3.783,3.783,0,0,1-.627.162l-.531.1a3.43,3.43,0,0,0-1.071.324,1.085,1.085,0,0,0-.548,1A1.039,1.039,0,0,0,19.266-1.71ZM30.879-7.3a1.647,1.647,0,0,0-1.652,1.021A3.507,3.507,0,0,0,28.995-4.9V0H26.637V-9.031H28.92v1.32a4.016,4.016,0,0,1,.863-1,3,3,0,0,1,1.851-.548,3.493,3.493,0,0,1,2.3.735,2.987,2.987,0,0,1,.892,2.436V0H32.4V-5.5a2.511,2.511,0,0,0-.191-1.1A1.343,1.343,0,0,0,30.879-7.3ZM48.46-2.515H43.953L43.106,0H40.433L44.8-12.235h2.889L52.021,0H49.249Zm-.714-2.108L46.219-9.438,44.642-4.624ZM57.641-7.3a1.647,1.647,0,0,0-1.652,1.021A3.507,3.507,0,0,0,55.756-4.9V0H53.4V-9.031h2.283v1.32a4.016,4.016,0,0,1,.863-1A3,3,0,0,1,58.4-9.264a3.493,3.493,0,0,1,2.3.735,2.987,2.987,0,0,1,.892,2.436V0H59.16V-5.5a2.511,2.511,0,0,0-.191-1.1A1.343,1.343,0,0,0,57.641-7.3ZM69.569-1.278q-.033.042-.166.249a1.666,1.666,0,0,1-.315.365,3.294,3.294,0,0,1-1.075.681A3.663,3.663,0,0,1,66.8.2,2.711,2.711,0,0,1,64.09-1.245a5.527,5.527,0,0,1-.39-2.349V-9.048h2.424v5.454a2.855,2.855,0,0,0,.183,1.162,1.264,1.264,0,0,0,1.27.689,1.66,1.66,0,0,0,1.66-.979,3.546,3.546,0,0,0,.232-1.4V-9.048h2.4V0h-2.3Zm4.922-6.79a3.863,3.863,0,0,1,3.221-1.2,5.722,5.722,0,0,1,2.64.589A2.263,2.263,0,0,1,81.505-6.45V-2.3q0,.432.017,1.046a1.315,1.315,0,0,0,.141.631.848.848,0,0,0,.349.274V0H79.438a2.635,2.635,0,0,1-.149-.515q-.042-.241-.066-.548a4.861,4.861,0,0,1-1.129.9,3.4,3.4,0,0,1-1.727.44,2.969,2.969,0,0,1-2.03-.7,2.5,2.5,0,0,1-.8-1.988,2.58,2.58,0,0,1,1.287-2.416A5.713,5.713,0,0,1,76.9-5.4l.805-.1a3.693,3.693,0,0,0,.938-.208.711.711,0,0,0,.506-.672.8.8,0,0,0-.386-.768,2.411,2.411,0,0,0-1.133-.212,1.476,1.476,0,0,0-1.187.415,1.725,1.725,0,0,0-.332.83H73.827A3.472,3.472,0,0,1,74.491-8.068Zm1.76,6.358a1.236,1.236,0,0,0,.813.274,2.409,2.409,0,0,0,1.407-.448A1.912,1.912,0,0,0,79.14-3.52V-4.4a2.571,2.571,0,0,1-.452.228,3.783,3.783,0,0,1-.627.162l-.531.1a3.43,3.43,0,0,0-1.071.324,1.085,1.085,0,0,0-.548,1A1.039,1.039,0,0,0,76.251-1.71Zm7.4-10.525h2.366V0H83.655Z" transform="translate(411.098 9941.75)" fill="#0b0a0a"/>
    <path id="Trazado_988214" data-name="Trazado 988214" d="M6.491-4.4h-2.6V0H1.353V-12.235H6.682a4.341,4.341,0,0,1,2.938.946,3.667,3.667,0,0,1,1.1,2.93A3.755,3.755,0,0,1,9.621-5.3,4.825,4.825,0,0,1,6.491-4.4Zm1.2-2.548a1.77,1.77,0,0,0,.5-1.395,1.656,1.656,0,0,0-.5-1.361,2.179,2.179,0,0,0-1.407-.407H3.893v3.6H6.275A2.082,2.082,0,0,0,7.687-6.948Zm4.806-5.288h2.366V0H12.493Zm5.014,4.167a3.863,3.863,0,0,1,3.221-1.2,5.722,5.722,0,0,1,2.64.589A2.263,2.263,0,0,1,24.521-6.45V-2.3q0,.432.017,1.046a1.315,1.315,0,0,0,.141.631.848.848,0,0,0,.349.274V0H22.454A2.635,2.635,0,0,1,22.3-.515q-.042-.241-.066-.548a4.861,4.861,0,0,1-1.129.9,3.4,3.4,0,0,1-1.727.44,2.969,2.969,0,0,1-2.03-.7,2.5,2.5,0,0,1-.8-1.988,2.58,2.58,0,0,1,1.287-2.416A5.713,5.713,0,0,1,19.914-5.4l.805-.1a3.693,3.693,0,0,0,.938-.208.711.711,0,0,0,.506-.672.8.8,0,0,0-.386-.768,2.411,2.411,0,0,0-1.133-.212,1.476,1.476,0,0,0-1.187.415,1.725,1.725,0,0,0-.332.83H16.842A3.472,3.472,0,0,1,17.506-8.068Zm1.76,6.358a1.236,1.236,0,0,0,.813.274,2.409,2.409,0,0,0,1.407-.448,1.912,1.912,0,0,0,.668-1.635V-4.4a2.571,2.571,0,0,1-.452.228,3.783,3.783,0,0,1-.627.162l-.531.1a3.43,3.43,0,0,0-1.071.324,1.085,1.085,0,0,0-.548,1A1.039,1.039,0,0,0,19.266-1.71ZM30.879-7.3a1.647,1.647,0,0,0-1.652,1.021A3.507,3.507,0,0,0,28.995-4.9V0H26.637V-9.031H28.92v1.32a4.016,4.016,0,0,1,.863-1,3,3,0,0,1,1.851-.548,3.493,3.493,0,0,1,2.3.735,2.987,2.987,0,0,1,.892,2.436V0H32.4V-5.5a2.511,2.511,0,0,0-.191-1.1A1.343,1.343,0,0,0,30.879-7.3ZM48.46-2.515H43.953L43.106,0H40.433L44.8-12.235h2.889L52.021,0H49.249Zm-.714-2.108L46.219-9.438,44.642-4.624ZM57.641-7.3a1.647,1.647,0,0,0-1.652,1.021A3.507,3.507,0,0,0,55.756-4.9V0H53.4V-9.031h2.283v1.32a4.016,4.016,0,0,1,.863-1A3,3,0,0,1,58.4-9.264a3.493,3.493,0,0,1,2.3.735,2.987,2.987,0,0,1,.892,2.436V0H59.16V-5.5a2.511,2.511,0,0,0-.191-1.1A1.343,1.343,0,0,0,57.641-7.3ZM69.569-1.278q-.033.042-.166.249a1.666,1.666,0,0,1-.315.365,3.294,3.294,0,0,1-1.075.681A3.663,3.663,0,0,1,66.8.2,2.711,2.711,0,0,1,64.09-1.245a5.527,5.527,0,0,1-.39-2.349V-9.048h2.424v5.454a2.855,2.855,0,0,0,.183,1.162,1.264,1.264,0,0,0,1.27.689,1.66,1.66,0,0,0,1.66-.979,3.546,3.546,0,0,0,.232-1.4V-9.048h2.4V0h-2.3Zm4.922-6.79a3.863,3.863,0,0,1,3.221-1.2,5.722,5.722,0,0,1,2.64.589A2.263,2.263,0,0,1,81.505-6.45V-2.3q0,.432.017,1.046a1.315,1.315,0,0,0,.141.631.848.848,0,0,0,.349.274V0H79.438a2.635,2.635,0,0,1-.149-.515q-.042-.241-.066-.548a4.861,4.861,0,0,1-1.129.9,3.4,3.4,0,0,1-1.727.44,2.969,2.969,0,0,1-2.03-.7,2.5,2.5,0,0,1-.8-1.988,2.58,2.58,0,0,1,1.287-2.416A5.713,5.713,0,0,1,76.9-5.4l.805-.1a3.693,3.693,0,0,0,.938-.208.711.711,0,0,0,.506-.672.8.8,0,0,0-.386-.768,2.411,2.411,0,0,0-1.133-.212,1.476,1.476,0,0,0-1.187.415,1.725,1.725,0,0,0-.332.83H73.827A3.472,3.472,0,0,1,74.491-8.068Zm1.76,6.358a1.236,1.236,0,0,0,.813.274,2.409,2.409,0,0,0,1.407-.448A1.912,1.912,0,0,0,79.14-3.52V-4.4a2.571,2.571,0,0,1-.452.228,3.783,3.783,0,0,1-.627.162l-.531.1a3.43,3.43,0,0,0-1.071.324,1.085,1.085,0,0,0-.548,1A1.039,1.039,0,0,0,76.251-1.71Zm7.4-10.525h2.366V0H83.655Z" transform="translate(829.471 9941.75)" fill="#0b0a0a"/>
    <path id="Trazado_988215" data-name="Trazado 988215" d="M6.491-4.4h-2.6V0H1.353V-12.235H6.682a4.341,4.341,0,0,1,2.938.946,3.667,3.667,0,0,1,1.1,2.93A3.755,3.755,0,0,1,9.621-5.3,4.825,4.825,0,0,1,6.491-4.4Zm1.2-2.548a1.77,1.77,0,0,0,.5-1.395,1.656,1.656,0,0,0-.5-1.361,2.179,2.179,0,0,0-1.407-.407H3.893v3.6H6.275A2.082,2.082,0,0,0,7.687-6.948Zm4.806-5.288h2.366V0H12.493Zm5.014,4.167a3.863,3.863,0,0,1,3.221-1.2,5.722,5.722,0,0,1,2.64.589A2.263,2.263,0,0,1,24.521-6.45V-2.3q0,.432.017,1.046a1.315,1.315,0,0,0,.141.631.848.848,0,0,0,.349.274V0H22.454A2.635,2.635,0,0,1,22.3-.515q-.042-.241-.066-.548a4.861,4.861,0,0,1-1.129.9,3.4,3.4,0,0,1-1.727.44,2.969,2.969,0,0,1-2.03-.7,2.5,2.5,0,0,1-.8-1.988,2.58,2.58,0,0,1,1.287-2.416A5.713,5.713,0,0,1,19.914-5.4l.805-.1a3.693,3.693,0,0,0,.938-.208.711.711,0,0,0,.506-.672.8.8,0,0,0-.386-.768,2.411,2.411,0,0,0-1.133-.212,1.476,1.476,0,0,0-1.187.415,1.725,1.725,0,0,0-.332.83H16.842A3.472,3.472,0,0,1,17.506-8.068Zm1.76,6.358a1.236,1.236,0,0,0,.813.274,2.409,2.409,0,0,0,1.407-.448,1.912,1.912,0,0,0,.668-1.635V-4.4a2.571,2.571,0,0,1-.452.228,3.783,3.783,0,0,1-.627.162l-.531.1a3.43,3.43,0,0,0-1.071.324,1.085,1.085,0,0,0-.548,1A1.039,1.039,0,0,0,19.266-1.71ZM30.879-7.3a1.647,1.647,0,0,0-1.652,1.021A3.507,3.507,0,0,0,28.995-4.9V0H26.637V-9.031H28.92v1.32a4.016,4.016,0,0,1,.863-1,3,3,0,0,1,1.851-.548,3.493,3.493,0,0,1,2.3.735,2.987,2.987,0,0,1,.892,2.436V0H32.4V-5.5a2.511,2.511,0,0,0-.191-1.1A1.343,1.343,0,0,0,30.879-7.3ZM48.46-2.515H43.953L43.106,0H40.433L44.8-12.235h2.889L52.021,0H49.249Zm-.714-2.108L46.219-9.438,44.642-4.624ZM57.641-7.3a1.647,1.647,0,0,0-1.652,1.021A3.507,3.507,0,0,0,55.756-4.9V0H53.4V-9.031h2.283v1.32a4.016,4.016,0,0,1,.863-1A3,3,0,0,1,58.4-9.264a3.493,3.493,0,0,1,2.3.735,2.987,2.987,0,0,1,.892,2.436V0H59.16V-5.5a2.511,2.511,0,0,0-.191-1.1A1.343,1.343,0,0,0,57.641-7.3ZM69.569-1.278q-.033.042-.166.249a1.666,1.666,0,0,1-.315.365,3.294,3.294,0,0,1-1.075.681A3.663,3.663,0,0,1,66.8.2,2.711,2.711,0,0,1,64.09-1.245a5.527,5.527,0,0,1-.39-2.349V-9.048h2.424v5.454a2.855,2.855,0,0,0,.183,1.162,1.264,1.264,0,0,0,1.27.689,1.66,1.66,0,0,0,1.66-.979,3.546,3.546,0,0,0,.232-1.4V-9.048h2.4V0h-2.3Zm4.922-6.79a3.863,3.863,0,0,1,3.221-1.2,5.722,5.722,0,0,1,2.64.589A2.263,2.263,0,0,1,81.505-6.45V-2.3q0,.432.017,1.046a1.315,1.315,0,0,0,.141.631.848.848,0,0,0,.349.274V0H79.438a2.635,2.635,0,0,1-.149-.515q-.042-.241-.066-.548a4.861,4.861,0,0,1-1.129.9,3.4,3.4,0,0,1-1.727.44,2.969,2.969,0,0,1-2.03-.7,2.5,2.5,0,0,1-.8-1.988,2.58,2.58,0,0,1,1.287-2.416A5.713,5.713,0,0,1,76.9-5.4l.805-.1a3.693,3.693,0,0,0,.938-.208.711.711,0,0,0,.506-.672.8.8,0,0,0-.386-.768,2.411,2.411,0,0,0-1.133-.212,1.476,1.476,0,0,0-1.187.415,1.725,1.725,0,0,0-.332.83H73.827A3.472,3.472,0,0,1,74.491-8.068Zm1.76,6.358a1.236,1.236,0,0,0,.813.274,2.409,2.409,0,0,0,1.407-.448A1.912,1.912,0,0,0,79.14-3.52V-4.4a2.571,2.571,0,0,1-.452.228,3.783,3.783,0,0,1-.627.162l-.531.1a3.43,3.43,0,0,0-1.071.324,1.085,1.085,0,0,0-.548,1A1.039,1.039,0,0,0,76.251-1.71Zm7.4-10.525h2.366V0H83.655Z" transform="translate(1168.098 9941.75)" fill="#0b0a0a"/>
    <path id="Trazado_988216" data-name="Trazado 988216" d="M5.91-9.587A1.491,1.491,0,0,0,4.7-10.094a1.478,1.478,0,0,0-1.469.805,3.993,3.993,0,0,0-.266,1.478H.664a5.815,5.815,0,0,1,.556-2.482,3.464,3.464,0,0,1,3.362-1.8A4.263,4.263,0,0,1,7.62-11.036a3.66,3.66,0,0,1,1.129,2.8,3.793,3.793,0,0,1-.8,2.374A7.939,7.939,0,0,1,6.234-4.325l-.946.672q-.888.631-1.216.913a2.676,2.676,0,0,0-.552.656H8.774V0H.531a5.656,5.656,0,0,1,.556-2.366A6.688,6.688,0,0,1,3.478-4.914,17.531,17.531,0,0,0,5.595-6.591a2.478,2.478,0,0,0,.739-1.727A1.913,1.913,0,0,0,5.91-9.587ZM14.136.3a3.406,3.406,0,0,1-3.225-1.61A9.316,9.316,0,0,1,9.986-5.9a9.366,9.366,0,0,1,.926-4.6,3.4,3.4,0,0,1,3.225-1.619A3.41,3.41,0,0,1,17.365-10.5a9.4,9.4,0,0,1,.921,4.6,9.316,9.316,0,0,1-.926,4.59A3.406,3.406,0,0,1,14.136.3Zm1.386-3.03A11.842,11.842,0,0,0,15.846-5.9a11.616,11.616,0,0,0-.328-3.221,1.339,1.339,0,0,0-1.382-1.046,1.359,1.359,0,0,0-1.395,1.046A11.211,11.211,0,0,0,12.4-5.9a11.337,11.337,0,0,0,.34,3.175,1.37,1.37,0,0,0,1.395,1.1A1.359,1.359,0,0,0,15.522-2.731Zm9.3-6.856a1.491,1.491,0,0,0-1.212-.506,1.478,1.478,0,0,0-1.469.805,3.993,3.993,0,0,0-.266,1.478h-2.3a5.815,5.815,0,0,1,.556-2.482,3.464,3.464,0,0,1,3.362-1.8,4.263,4.263,0,0,1,3.038,1.058,3.66,3.66,0,0,1,1.129,2.8,3.793,3.793,0,0,1-.8,2.374,7.939,7.939,0,0,1-1.718,1.536l-.946.672q-.888.631-1.216.913a2.676,2.676,0,0,0-.552.656h5.254V0H19.44A5.656,5.656,0,0,1,20-2.366a6.688,6.688,0,0,1,2.391-2.548A17.531,17.531,0,0,0,24.5-6.591a2.478,2.478,0,0,0,.739-1.727A1.913,1.913,0,0,0,24.819-9.587ZM33.045.3a3.406,3.406,0,0,1-3.225-1.61A9.316,9.316,0,0,1,28.9-5.9a9.366,9.366,0,0,1,.926-4.6,3.4,3.4,0,0,1,3.225-1.619A3.41,3.41,0,0,1,36.274-10.5,9.4,9.4,0,0,1,37.2-5.9a9.316,9.316,0,0,1-.926,4.59A3.406,3.406,0,0,1,33.045.3Zm1.386-3.03A11.842,11.842,0,0,0,34.755-5.9a11.616,11.616,0,0,0-.328-3.221,1.339,1.339,0,0,0-1.382-1.046,1.359,1.359,0,0,0-1.395,1.046,11.211,11.211,0,0,0-.34,3.221,11.337,11.337,0,0,0,.34,3.175,1.37,1.37,0,0,0,1.395,1.1A1.359,1.359,0,0,0,34.432-2.731Z" transform="translate(435.098 9999.75)" fill="#0b0a0a"/>
    <path id="Trazado_988217" data-name="Trazado 988217" d="M5.91-9.587A1.491,1.491,0,0,0,4.7-10.094a1.478,1.478,0,0,0-1.469.805,3.993,3.993,0,0,0-.266,1.478H.664a5.815,5.815,0,0,1,.556-2.482,3.464,3.464,0,0,1,3.362-1.8A4.263,4.263,0,0,1,7.62-11.036a3.66,3.66,0,0,1,1.129,2.8,3.793,3.793,0,0,1-.8,2.374A7.939,7.939,0,0,1,6.234-4.325l-.946.672q-.888.631-1.216.913a2.676,2.676,0,0,0-.552.656H8.774V0H.531a5.656,5.656,0,0,1,.556-2.366A6.688,6.688,0,0,1,3.478-4.914,17.531,17.531,0,0,0,5.595-6.591a2.478,2.478,0,0,0,.739-1.727A1.913,1.913,0,0,0,5.91-9.587ZM14.136.3a3.406,3.406,0,0,1-3.225-1.61A9.316,9.316,0,0,1,9.986-5.9a9.366,9.366,0,0,1,.926-4.6,3.4,3.4,0,0,1,3.225-1.619A3.41,3.41,0,0,1,17.365-10.5a9.4,9.4,0,0,1,.921,4.6,9.316,9.316,0,0,1-.926,4.59A3.406,3.406,0,0,1,14.136.3Zm1.386-3.03A11.842,11.842,0,0,0,15.846-5.9a11.616,11.616,0,0,0-.328-3.221,1.339,1.339,0,0,0-1.382-1.046,1.359,1.359,0,0,0-1.395,1.046A11.211,11.211,0,0,0,12.4-5.9a11.337,11.337,0,0,0,.34,3.175,1.37,1.37,0,0,0,1.395,1.1A1.359,1.359,0,0,0,15.522-2.731Zm9.3-6.856a1.491,1.491,0,0,0-1.212-.506,1.478,1.478,0,0,0-1.469.805,3.993,3.993,0,0,0-.266,1.478h-2.3a5.815,5.815,0,0,1,.556-2.482,3.464,3.464,0,0,1,3.362-1.8,4.263,4.263,0,0,1,3.038,1.058,3.66,3.66,0,0,1,1.129,2.8,3.793,3.793,0,0,1-.8,2.374,7.939,7.939,0,0,1-1.718,1.536l-.946.672q-.888.631-1.216.913a2.676,2.676,0,0,0-.552.656h5.254V0H19.44A5.656,5.656,0,0,1,20-2.366a6.688,6.688,0,0,1,2.391-2.548A17.531,17.531,0,0,0,24.5-6.591a2.478,2.478,0,0,0,.739-1.727A1.913,1.913,0,0,0,24.819-9.587ZM34.8,0H32.373V-8.3H29.542v-1.61a10.486,10.486,0,0,0,1.569-.149,2.213,2.213,0,0,0,1.162-.631,2.077,2.077,0,0,0,.465-.863,1.982,1.982,0,0,0,.091-.481H34.8Z" transform="translate(847.448 9999.75)" fill="#0b0a0a"/>
    <path id="Trazado_988218" data-name="Trazado 988218" d="M5.91-9.587A1.491,1.491,0,0,0,4.7-10.094a1.478,1.478,0,0,0-1.469.805,3.993,3.993,0,0,0-.266,1.478H.664a5.815,5.815,0,0,1,.556-2.482,3.464,3.464,0,0,1,3.362-1.8A4.263,4.263,0,0,1,7.62-11.036a3.66,3.66,0,0,1,1.129,2.8,3.793,3.793,0,0,1-.8,2.374A7.939,7.939,0,0,1,6.234-4.325l-.946.672q-.888.631-1.216.913a2.676,2.676,0,0,0-.552.656H8.774V0H.531a5.656,5.656,0,0,1,.556-2.366A6.688,6.688,0,0,1,3.478-4.914,17.531,17.531,0,0,0,5.595-6.591a2.478,2.478,0,0,0,.739-1.727A1.913,1.913,0,0,0,5.91-9.587ZM14.136.3a3.406,3.406,0,0,1-3.225-1.61A9.316,9.316,0,0,1,9.986-5.9a9.366,9.366,0,0,1,.926-4.6,3.4,3.4,0,0,1,3.225-1.619A3.41,3.41,0,0,1,17.365-10.5a9.4,9.4,0,0,1,.921,4.6,9.316,9.316,0,0,1-.926,4.59A3.406,3.406,0,0,1,14.136.3Zm1.386-3.03A11.842,11.842,0,0,0,15.846-5.9a11.616,11.616,0,0,0-.328-3.221,1.339,1.339,0,0,0-1.382-1.046,1.359,1.359,0,0,0-1.395,1.046A11.211,11.211,0,0,0,12.4-5.9a11.337,11.337,0,0,0,.34,3.175,1.37,1.37,0,0,0,1.395,1.1A1.359,1.359,0,0,0,15.522-2.731Zm9.3-6.856a1.491,1.491,0,0,0-1.212-.506,1.478,1.478,0,0,0-1.469.805,3.993,3.993,0,0,0-.266,1.478h-2.3a5.815,5.815,0,0,1,.556-2.482,3.464,3.464,0,0,1,3.362-1.8,4.263,4.263,0,0,1,3.038,1.058,3.66,3.66,0,0,1,1.129,2.8,3.793,3.793,0,0,1-.8,2.374,7.939,7.939,0,0,1-1.718,1.536l-.946.672q-.888.631-1.216.913a2.676,2.676,0,0,0-.552.656h5.254V0H19.44A5.656,5.656,0,0,1,20-2.366a6.688,6.688,0,0,1,2.391-2.548A17.531,17.531,0,0,0,24.5-6.591a2.478,2.478,0,0,0,.739-1.727A1.913,1.913,0,0,0,24.819-9.587Zm9.455,0a1.491,1.491,0,0,0-1.212-.506,1.478,1.478,0,0,0-1.469.805,3.993,3.993,0,0,0-.266,1.478h-2.3a5.815,5.815,0,0,1,.556-2.482,3.464,3.464,0,0,1,3.362-1.8,4.263,4.263,0,0,1,3.038,1.058,3.66,3.66,0,0,1,1.129,2.8,3.793,3.793,0,0,1-.8,2.374A7.939,7.939,0,0,1,34.6-4.325l-.946.672q-.888.631-1.216.913a2.676,2.676,0,0,0-.552.656h5.254V0H28.9a5.656,5.656,0,0,1,.556-2.366,6.688,6.688,0,0,1,2.391-2.548,17.532,17.532,0,0,0,2.117-1.677A2.478,2.478,0,0,0,34.7-8.317,1.913,1.913,0,0,0,34.274-9.587Z" transform="translate(1192.098 9999.75)" fill="#0b0a0a"/>
    <path id="Trazado_988219" data-name="Trazado 988219" d="M6.433,0H4.009V-8.3H1.179v-1.61a10.486,10.486,0,0,0,1.569-.149,2.213,2.213,0,0,0,1.162-.631,2.077,2.077,0,0,0,.465-.863,1.982,1.982,0,0,0,.091-.481H6.433Zm4.084-2.474h2.515V0H10.517Zm16.22-.042H22.229L21.383,0H18.71l4.366-12.235h2.889L30.3,0H27.525Zm-.714-2.108L24.5-9.438,22.918-4.624ZM37.461-1.278q-.033.042-.166.249a1.666,1.666,0,0,1-.315.365,3.294,3.294,0,0,1-1.075.681A3.663,3.663,0,0,1,34.689.2a2.711,2.711,0,0,1-2.706-1.444,5.527,5.527,0,0,1-.39-2.349V-9.048h2.424v5.454A2.855,2.855,0,0,0,34.2-2.432a1.264,1.264,0,0,0,1.27.689,1.66,1.66,0,0,0,1.66-.979,3.546,3.546,0,0,0,.232-1.4V-9.048h2.4V0h-2.3Zm8.724-.407V.083L45.065.125a3.007,3.007,0,0,1-2.291-.581,1.73,1.73,0,0,1-.4-1.253V-7.28H41.114V-8.965h1.262v-2.523h2.341v2.523h1.469V-7.28H44.716V-2.5a1.077,1.077,0,0,0,.141.693,1.554,1.554,0,0,0,.863.137q.108,0,.228,0T46.186-1.685ZM55.25-7.9a5.28,5.28,0,0,1,1.146,3.4A5.245,5.245,0,0,1,55.25-1.1,4.209,4.209,0,0,1,51.772.315,4.209,4.209,0,0,1,48.294-1.1a5.245,5.245,0,0,1-1.146-3.407,5.28,5.28,0,0,1,1.146-3.4,4.18,4.18,0,0,1,3.478-1.436A4.18,4.18,0,0,1,55.25-7.9Zm-3.486.564a1.89,1.89,0,0,0-1.6.735,3.4,3.4,0,0,0-.56,2.1,3.418,3.418,0,0,0,.56,2.1,1.886,1.886,0,0,0,1.6.739,1.875,1.875,0,0,0,1.594-.739,3.437,3.437,0,0,0,.556-2.1,3.418,3.418,0,0,0-.556-2.1A1.879,1.879,0,0,0,51.764-7.338Zm14.07,4.682A3,3,0,0,1,65-1.021,4.107,4.107,0,0,1,61.741.3,4.588,4.588,0,0,1,58.695-.813a4.486,4.486,0,0,1-1.32-3.619,5.03,5.03,0,0,1,1.191-3.6,4.073,4.073,0,0,1,3.092-1.253,4.742,4.742,0,0,1,2.034.423,3.563,3.563,0,0,1,1.494,1.336,4.56,4.56,0,0,1,.689,1.868,12.061,12.061,0,0,1,.075,1.793H59.757a2.248,2.248,0,0,0,.855,1.909,2.014,2.014,0,0,0,1.179.34,1.7,1.7,0,0,0,1.187-.415,1.971,1.971,0,0,0,.44-.623ZM63.493-5.429a2.059,2.059,0,0,0-.569-1.424,1.766,1.766,0,0,0-1.266-.486,1.607,1.607,0,0,0-1.274.515,2.569,2.569,0,0,0-.569,1.395Zm3.163-3.619h2.656L71.2-2.374l1.926-6.674h2.54L72.4,0H69.9Zm10.683.979a3.863,3.863,0,0,1,3.221-1.2,5.722,5.722,0,0,1,2.64.589A2.263,2.263,0,0,1,84.353-6.45V-2.3q0,.432.017,1.046a1.315,1.315,0,0,0,.141.631.848.848,0,0,0,.349.274V0H82.286a2.635,2.635,0,0,1-.149-.515q-.042-.241-.066-.548a4.861,4.861,0,0,1-1.129.9,3.4,3.4,0,0,1-1.727.44,2.969,2.969,0,0,1-2.03-.7,2.5,2.5,0,0,1-.8-1.988A2.58,2.58,0,0,1,77.67-4.823,5.713,5.713,0,0,1,79.746-5.4l.805-.1a3.693,3.693,0,0,0,.938-.208A.711.711,0,0,0,82-6.383a.8.8,0,0,0-.386-.768,2.411,2.411,0,0,0-1.133-.212,1.476,1.476,0,0,0-1.187.415,1.725,1.725,0,0,0-.332.83H76.674A3.472,3.472,0,0,1,77.338-8.068ZM79.1-1.71a1.236,1.236,0,0,0,.813.274,2.409,2.409,0,0,0,1.407-.448,1.912,1.912,0,0,0,.668-1.635V-4.4a2.571,2.571,0,0,1-.452.228,3.783,3.783,0,0,1-.627.162l-.531.1a3.43,3.43,0,0,0-1.071.324,1.085,1.085,0,0,0-.548,1A1.039,1.039,0,0,0,79.1-1.71Zm7.4-10.525h2.366V0H86.5ZM96.978-1.278q-.033.042-.166.249a1.666,1.666,0,0,1-.315.365,3.294,3.294,0,0,1-1.075.681A3.663,3.663,0,0,1,94.206.2,2.711,2.711,0,0,1,91.5-1.245a5.527,5.527,0,0,1-.39-2.349V-9.048h2.424v5.454a2.855,2.855,0,0,0,.183,1.162,1.264,1.264,0,0,0,1.27.689,1.66,1.66,0,0,0,1.66-.979,3.546,3.546,0,0,0,.232-1.4V-9.048h2.4V0h-2.3Zm4.922-6.79a3.863,3.863,0,0,1,3.221-1.2,5.722,5.722,0,0,1,2.64.589,2.263,2.263,0,0,1,1.154,2.225V-2.3q0,.432.017,1.046a1.315,1.315,0,0,0,.141.631.848.848,0,0,0,.349.274V0h-2.573a2.635,2.635,0,0,1-.149-.515q-.042-.241-.066-.548a4.861,4.861,0,0,1-1.129.9,3.4,3.4,0,0,1-1.727.44,2.969,2.969,0,0,1-2.03-.7,2.5,2.5,0,0,1-.8-1.988,2.58,2.58,0,0,1,1.287-2.416,5.713,5.713,0,0,1,2.075-.581l.805-.1a3.693,3.693,0,0,0,.938-.208.711.711,0,0,0,.506-.672.8.8,0,0,0-.386-.768,2.411,2.411,0,0,0-1.133-.212,1.476,1.476,0,0,0-1.187.415,1.725,1.725,0,0,0-.332.83h-2.283A3.472,3.472,0,0,1,101.9-8.068Zm1.76,6.358a1.236,1.236,0,0,0,.813.274,2.409,2.409,0,0,0,1.407-.448,1.912,1.912,0,0,0,.668-1.635V-4.4a2.571,2.571,0,0,1-.452.228,3.783,3.783,0,0,1-.627.162l-.531.1a3.43,3.43,0,0,0-1.071.324,1.085,1.085,0,0,0-.548,1A1.039,1.039,0,0,0,103.66-1.71ZM118.842-5.8h-2.424a2.1,2.1,0,0,0-.34-.913,1.427,1.427,0,0,0-1.237-.548,1.629,1.629,0,0,0-1.635,1.187,4.963,4.963,0,0,0-.232,1.677,4.563,4.563,0,0,0,.232,1.6A1.579,1.579,0,0,0,114.8-1.668a1.405,1.405,0,0,0,1.179-.448,2.231,2.231,0,0,0,.423-1.162h2.416a3.958,3.958,0,0,1-.78,2.042,3.793,3.793,0,0,1-3.3,1.552,3.855,3.855,0,0,1-3.212-1.295A5.24,5.24,0,0,1,110.5-4.341a5.317,5.317,0,0,1,1.137-3.627,3.958,3.958,0,0,1,3.138-1.295,4.725,4.725,0,0,1,2.785.764A3.552,3.552,0,0,1,118.842-5.8ZM122.9-9.048V0h-2.4V-9.048Zm0-3.262v2.183h-2.4V-12.31ZM132.738-7.9a5.28,5.28,0,0,1,1.146,3.4A5.245,5.245,0,0,1,132.738-1.1,4.209,4.209,0,0,1,129.26.315,4.209,4.209,0,0,1,125.782-1.1a5.245,5.245,0,0,1-1.146-3.407,5.28,5.28,0,0,1,1.146-3.4,4.18,4.18,0,0,1,3.478-1.436A4.18,4.18,0,0,1,132.738-7.9Zm-3.486.564a1.89,1.89,0,0,0-1.6.735,3.4,3.4,0,0,0-.56,2.1,3.418,3.418,0,0,0,.56,2.1,1.886,1.886,0,0,0,1.6.739,1.875,1.875,0,0,0,1.594-.739,3.437,3.437,0,0,0,.556-2.1,3.418,3.418,0,0,0-.556-2.1A1.879,1.879,0,0,0,129.251-7.338Zm-1.395-2.93,1.594-2.482h2.64l-2.523,2.482ZM139.835-7.3a1.647,1.647,0,0,0-1.652,1.021,3.507,3.507,0,0,0-.232,1.378V0h-2.357V-9.031h2.283v1.32a4.016,4.016,0,0,1,.863-1,3,3,0,0,1,1.851-.548,3.493,3.493,0,0,1,2.3.735,2.987,2.987,0,0,1,.892,2.436V0h-2.424V-5.5a2.511,2.511,0,0,0-.191-1.1A1.343,1.343,0,0,0,139.835-7.3ZM5.91,19.413A1.491,1.491,0,0,0,4.7,18.906a1.478,1.478,0,0,0-1.469.805,3.993,3.993,0,0,0-.266,1.478H.664a5.815,5.815,0,0,1,.556-2.482,3.464,3.464,0,0,1,3.362-1.8A4.263,4.263,0,0,1,7.62,17.964a3.66,3.66,0,0,1,1.129,2.8,3.793,3.793,0,0,1-.8,2.374,7.939,7.939,0,0,1-1.718,1.536l-.946.672q-.888.631-1.216.913a2.676,2.676,0,0,0-.552.656H8.774V29H.531a5.656,5.656,0,0,1,.556-2.366,6.688,6.688,0,0,1,2.391-2.548,17.531,17.531,0,0,0,2.117-1.677,2.478,2.478,0,0,0,.739-1.727A1.913,1.913,0,0,0,5.91,19.413Zm9.33,7.114h2.515V29H15.24ZM30.115,24.6h-2.6V29h-2.54V16.765h5.329a4.341,4.341,0,0,1,2.938.946,3.667,3.667,0,0,1,1.1,2.93,3.755,3.755,0,0,1-1.1,3.063A4.825,4.825,0,0,1,30.115,24.6Zm1.2-2.548a1.77,1.77,0,0,0,.5-1.395,1.656,1.656,0,0,0-.5-1.361A2.179,2.179,0,0,0,29.9,18.89H27.517v3.6H29.9A2.082,2.082,0,0,0,31.311,22.052Zm4.806-5.288h2.366V29H36.117Zm5.014,4.167a3.863,3.863,0,0,1,3.221-1.2,5.722,5.722,0,0,1,2.64.589,2.263,2.263,0,0,1,1.154,2.225V26.7q0,.432.017,1.046a1.315,1.315,0,0,0,.141.631.848.848,0,0,0,.349.274V29H46.078a2.635,2.635,0,0,1-.149-.515q-.042-.241-.066-.548a4.861,4.861,0,0,1-1.129.9,3.4,3.4,0,0,1-1.727.44,2.968,2.968,0,0,1-2.03-.7,2.5,2.5,0,0,1-.8-1.988,2.58,2.58,0,0,1,1.287-2.416,5.713,5.713,0,0,1,2.075-.581l.805-.1a3.693,3.693,0,0,0,.938-.208.711.711,0,0,0,.506-.672.8.8,0,0,0-.386-.768,2.411,2.411,0,0,0-1.133-.212,1.476,1.476,0,0,0-1.187.415,1.725,1.725,0,0,0-.332.83H40.466A3.472,3.472,0,0,1,41.13,20.932Zm1.76,6.358a1.236,1.236,0,0,0,.813.274,2.409,2.409,0,0,0,1.407-.448,1.912,1.912,0,0,0,.668-1.635V24.6a2.571,2.571,0,0,1-.452.228,3.783,3.783,0,0,1-.627.162l-.531.1a3.43,3.43,0,0,0-1.071.324,1.085,1.085,0,0,0-.548,1A1.039,1.039,0,0,0,42.89,27.29ZM54.5,21.7a1.647,1.647,0,0,0-1.652,1.021,3.507,3.507,0,0,0-.232,1.378V29H50.261V19.969h2.283v1.32a4.016,4.016,0,0,1,.863-1,3,3,0,0,1,1.851-.548,3.493,3.493,0,0,1,2.3.735,2.987,2.987,0,0,1,.892,2.436V29H56.022V23.5a2.511,2.511,0,0,0-.191-1.1A1.343,1.343,0,0,0,54.5,21.7Zm19.083-4.922V29h-2.3V27.747a3.337,3.337,0,0,1-1.154,1.17,3.239,3.239,0,0,1-1.61.365A3.362,3.362,0,0,1,65.854,28a4.925,4.925,0,0,1-1.083-3.291,5.664,5.664,0,0,1,1.067-3.644,3.47,3.47,0,0,1,2.851-1.328,2.918,2.918,0,0,1,1.461.361,2.874,2.874,0,0,1,1.038,1V16.781Zm-6.375,7.753a3.557,3.557,0,0,0,.5,2,1.658,1.658,0,0,0,1.494.755,1.747,1.747,0,0,0,1.527-.747,3.3,3.3,0,0,0,.523-1.934,2.966,2.966,0,0,0-.838-2.374,1.8,1.8,0,0,0-1.2-.432,1.662,1.662,0,0,0-1.523.784A3.634,3.634,0,0,0,67.211,24.534Zm16.27,1.81a3,3,0,0,1-.838,1.635,4.107,4.107,0,0,1-3.254,1.32,4.588,4.588,0,0,1-3.046-1.112,4.486,4.486,0,0,1-1.32-3.619,5.03,5.03,0,0,1,1.191-3.6,4.073,4.073,0,0,1,3.092-1.253,4.742,4.742,0,0,1,2.034.423,3.563,3.563,0,0,1,1.494,1.336,4.56,4.56,0,0,1,.689,1.868,12.061,12.061,0,0,1,.075,1.793H77.4a2.248,2.248,0,0,0,.855,1.909,2.014,2.014,0,0,0,1.179.34,1.7,1.7,0,0,0,1.187-.415,1.971,1.971,0,0,0,.44-.623ZM81.14,23.571a2.059,2.059,0,0,0-.569-1.424,1.766,1.766,0,0,0-1.266-.486,1.607,1.607,0,0,0-1.274.515,2.569,2.569,0,0,0-.569,1.395Zm13.854-1.129a1.159,1.159,0,0,0-1.17-.656,1.4,1.4,0,0,0-1.361.656,2.527,2.527,0,0,0-.191,1.112V29h-2.4V19.969h2.3v1.32a3.807,3.807,0,0,1,.83-1,3.284,3.284,0,0,1,3.461-.075,2.656,2.656,0,0,1,.78,1.087,3.008,3.008,0,0,1,1.154-1.17,3.521,3.521,0,0,1,1.627-.374,3.149,3.149,0,0,1,1.179.232,2.63,2.63,0,0,1,1.054.813,2.6,2.6,0,0,1,.515,1.162,8.032,8.032,0,0,1,.083,1.336l-.017,5.7h-2.424V23.239a1.891,1.891,0,0,0-.166-.847,1.18,1.18,0,0,0-1.162-.631,1.36,1.36,0,0,0-1.353.813,2.555,2.555,0,0,0-.191,1.038V29H95.16V23.613A3.026,3.026,0,0,0,94.994,22.442Zm17.78,3.9a3,3,0,0,1-.838,1.635,4.107,4.107,0,0,1-3.254,1.32,4.588,4.588,0,0,1-3.046-1.112,4.486,4.486,0,0,1-1.32-3.619,5.03,5.03,0,0,1,1.191-3.6,4.073,4.073,0,0,1,3.092-1.253,4.742,4.742,0,0,1,2.034.423,3.563,3.563,0,0,1,1.494,1.336,4.56,4.56,0,0,1,.689,1.868,12.061,12.061,0,0,1,.075,1.793H106.7a2.248,2.248,0,0,0,.855,1.909,2.014,2.014,0,0,0,1.179.34,1.7,1.7,0,0,0,1.187-.415,1.971,1.971,0,0,0,.44-.623Zm-2.341-2.772a2.059,2.059,0,0,0-.569-1.424,1.766,1.766,0,0,0-1.266-.486,1.607,1.607,0,0,0-1.274.515,2.569,2.569,0,0,0-.569,1.395Zm4.159-3.578h2.366v9.978a3.153,3.153,0,0,1-.54,2.025,2.669,2.669,0,0,1-2.117.656q-.108,0-.32-.008t-.527-.017V30.735q.2.017.282.021t.149,0a.736.736,0,0,0,.527-.17.915.915,0,0,0,.178-.66Zm0-3.3h2.366v2.183h-2.366ZM126.753,21.1a5.622,5.622,0,0,1,0,6.8,4.981,4.981,0,0,1-6.956,0,5.622,5.622,0,0,1,0-6.8,4.93,4.93,0,0,1,6.956,0Zm-3.486.564a1.89,1.89,0,0,0-1.6.735,3.4,3.4,0,0,0-.56,2.1,3.418,3.418,0,0,0,.56,2.1,2.093,2.093,0,0,0,3.192,0,3.437,3.437,0,0,0,.556-2.1,3.418,3.418,0,0,0-.556-2.1A1.879,1.879,0,0,0,123.267,21.662Zm10.874.473a1.962,1.962,0,0,0-1.917.93,3.617,3.617,0,0,0-.274,1.61V29h-2.382V19.952h2.258v1.577a5,5,0,0,1,.955-1.237,2.6,2.6,0,0,1,1.727-.556q.066,0,.112,0l.2.012v2.424q-.224-.025-.4-.033T134.141,22.135Zm2.407-1.2a3.863,3.863,0,0,1,3.221-1.2,5.722,5.722,0,0,1,2.64.589,2.263,2.263,0,0,1,1.154,2.225V26.7q0,.432.017,1.046a1.315,1.315,0,0,0,.141.631.848.848,0,0,0,.349.274V29H141.5a2.634,2.634,0,0,1-.149-.515q-.041-.241-.066-.548a4.861,4.861,0,0,1-1.129.9,3.4,3.4,0,0,1-1.727.44,2.968,2.968,0,0,1-2.03-.7,2.5,2.5,0,0,1-.8-1.988,2.58,2.58,0,0,1,1.287-2.416,5.713,5.713,0,0,1,2.075-.581l.805-.1a3.693,3.693,0,0,0,.938-.208.711.711,0,0,0,.506-.672.8.8,0,0,0-.386-.768,2.411,2.411,0,0,0-1.133-.212,1.476,1.476,0,0,0-1.187.415,1.725,1.725,0,0,0-.332.83h-2.283A3.472,3.472,0,0,1,136.548,20.932Zm1.76,6.358a1.236,1.236,0,0,0,.813.274,2.409,2.409,0,0,0,1.407-.448,1.912,1.912,0,0,0,.668-1.635V24.6a2.571,2.571,0,0,1-.452.228,3.783,3.783,0,0,1-.627.162l-.531.1a3.43,3.43,0,0,0-1.071.324,1.085,1.085,0,0,0-.548,1A1.039,1.039,0,0,0,138.308,27.29ZM3.254,48.363a2.237,2.237,0,0,0-.382,1.419H.664a5.937,5.937,0,0,1,.307-1.7,3.83,3.83,0,0,1,.913-1.3,3.181,3.181,0,0,1,1.1-.647,4.778,4.778,0,0,1,1.569-.224,4.175,4.175,0,0,1,2.785.892A2.972,2.972,0,0,1,8.4,49.193a2.648,2.648,0,0,1-.631,1.793,2.154,2.154,0,0,1-.83.623,1.707,1.707,0,0,1,.93.556,2.97,2.97,0,0,1,.9,2.291,3.859,3.859,0,0,1-1.058,2.685A4.034,4.034,0,0,1,4.582,58.3,3.791,3.791,0,0,1,1.029,56.63a4.952,4.952,0,0,1-.581-2.324H2.772A2.706,2.706,0,0,0,3,55.5a1.593,1.593,0,0,0,1.569.872A1.738,1.738,0,0,0,5.79,55.9a1.773,1.773,0,0,0,.519-1.374,1.548,1.548,0,0,0-.963-1.585,4.888,4.888,0,0,0-1.727-.224V51.019a4.479,4.479,0,0,0,1.61-.224,1.384,1.384,0,0,0,.789-1.411,1.577,1.577,0,0,0-.4-1.121,1.473,1.473,0,0,0-1.133-.432A1.422,1.422,0,0,0,3.254,48.363Zm7.263,7.164h2.515V58H10.517Zm18.353-7.6H22.736v2.814h5.371V52.87H22.736V58H20.2V45.781H28.87ZM37.935,50.1a5.622,5.622,0,0,1,0,6.8,4.209,4.209,0,0,1-3.478,1.415A4.209,4.209,0,0,1,30.979,56.9a5.622,5.622,0,0,1,0-6.8,4.18,4.18,0,0,1,3.478-1.436A4.18,4.18,0,0,1,37.935,50.1Zm-3.486.564a1.89,1.89,0,0,0-1.6.735,4.208,4.208,0,0,0,0,4.2,2.093,2.093,0,0,0,3.192,0,4.235,4.235,0,0,0,0-4.2A1.879,1.879,0,0,0,34.448,50.662Zm10.874.473a1.962,1.962,0,0,0-1.917.93,3.617,3.617,0,0,0-.274,1.61V58H40.749V48.952h2.258v1.577a5,5,0,0,1,.955-1.237,2.6,2.6,0,0,1,1.727-.556q.066,0,.112,0l.2.012v2.424q-.224-.025-.4-.033T45.322,51.135Zm7.147.307a1.159,1.159,0,0,0-1.17-.656,1.4,1.4,0,0,0-1.361.656,2.527,2.527,0,0,0-.191,1.112V58h-2.4V48.969h2.3v1.32a3.807,3.807,0,0,1,.83-1,3.284,3.284,0,0,1,3.461-.075,2.656,2.656,0,0,1,.78,1.087,3.008,3.008,0,0,1,1.154-1.17,3.521,3.521,0,0,1,1.627-.374,3.149,3.149,0,0,1,1.179.232,2.63,2.63,0,0,1,1.054.813,2.6,2.6,0,0,1,.515,1.162A8.032,8.032,0,0,1,60.33,52.3L60.313,58H57.89V52.239a1.891,1.891,0,0,0-.166-.847,1.18,1.18,0,0,0-1.162-.631,1.36,1.36,0,0,0-1.353.813,2.555,2.555,0,0,0-.191,1.038V58H52.635V52.613A3.026,3.026,0,0,0,52.469,51.442Zm15.838,5.279q-.033.042-.166.249a1.666,1.666,0,0,1-.315.365,3.294,3.294,0,0,1-1.075.681,3.663,3.663,0,0,1-1.216.183,2.711,2.711,0,0,1-2.706-1.444,5.527,5.527,0,0,1-.39-2.349V48.952h2.424v5.454a2.855,2.855,0,0,0,.183,1.162,1.264,1.264,0,0,0,1.27.689,1.66,1.66,0,0,0,1.66-.979,3.546,3.546,0,0,0,.232-1.4V48.952h2.4V58h-2.3Zm4.632-10.957H75.3V58H72.939Zm5.014,4.167a3.863,3.863,0,0,1,3.221-1.2,5.722,5.722,0,0,1,2.64.589,2.263,2.263,0,0,1,1.154,2.225V55.7q0,.432.017,1.046a1.315,1.315,0,0,0,.141.631.848.848,0,0,0,.349.274V58H82.9a2.635,2.635,0,0,1-.149-.515q-.042-.241-.066-.548a4.861,4.861,0,0,1-1.129.9,3.4,3.4,0,0,1-1.727.44,2.969,2.969,0,0,1-2.03-.7,2.5,2.5,0,0,1-.8-1.988,2.58,2.58,0,0,1,1.287-2.416A5.713,5.713,0,0,1,80.36,52.6l.805-.1a3.693,3.693,0,0,0,.938-.208.711.711,0,0,0,.506-.672.8.8,0,0,0-.386-.768,2.411,2.411,0,0,0-1.133-.212,1.476,1.476,0,0,0-1.187.415,1.725,1.725,0,0,0-.332.83H77.289A3.472,3.472,0,0,1,77.953,49.932Zm1.76,6.358a1.236,1.236,0,0,0,.813.274,2.409,2.409,0,0,0,1.407-.448A1.912,1.912,0,0,0,82.6,54.48V53.6a2.571,2.571,0,0,1-.452.228,3.783,3.783,0,0,1-.627.162l-.531.1a3.431,3.431,0,0,0-1.071.324,1.085,1.085,0,0,0-.548,1A1.039,1.039,0,0,0,79.712,56.29Zm11.9-5.155a1.962,1.962,0,0,0-1.917.93,3.617,3.617,0,0,0-.274,1.61V58H87.042V48.952H89.3v1.577a5,5,0,0,1,.955-1.237,2.6,2.6,0,0,1,1.727-.556q.066,0,.112,0l.2.012v2.424q-.224-.025-.4-.033T91.616,51.135Zm14.369-1.212a4.854,4.854,0,0,1,1.1,3.437A5.451,5.451,0,0,1,106.005,57a3.48,3.48,0,0,1-2.768,1.253,2.889,2.889,0,0,1-1.793-.54,3.479,3.479,0,0,1-.764-.872v4.715H98.339V48.952h2.266v1.336a3.8,3.8,0,0,1,.813-.93,2.989,2.989,0,0,1,1.876-.606A3.558,3.558,0,0,1,105.984,49.923Zm-1.345,3.553a3.561,3.561,0,0,0-.477-1.851,1.662,1.662,0,0,0-1.548-.805,1.761,1.761,0,0,0-1.768,1.22,4.628,4.628,0,0,0-.249,1.644,2.621,2.621,0,0,0,.838,2.216,1.909,1.909,0,0,0,1.179.374,1.708,1.708,0,0,0,1.507-.764A3.561,3.561,0,0,0,104.64,53.476Zm4.2-7.711h2.366V58H108.84Zm5.014,4.167a3.863,3.863,0,0,1,3.221-1.2,5.722,5.722,0,0,1,2.64.589,2.263,2.263,0,0,1,1.154,2.225V55.7q0,.432.017,1.046a1.315,1.315,0,0,0,.141.631.848.848,0,0,0,.349.274V58H118.8a2.635,2.635,0,0,1-.149-.515q-.042-.241-.066-.548a4.861,4.861,0,0,1-1.129.9,3.4,3.4,0,0,1-1.727.44,2.969,2.969,0,0,1-2.03-.7,2.5,2.5,0,0,1-.8-1.988,2.58,2.58,0,0,1,1.287-2.416,5.713,5.713,0,0,1,2.075-.581l.805-.1a3.693,3.693,0,0,0,.938-.208.711.711,0,0,0,.506-.672.8.8,0,0,0-.386-.768,2.411,2.411,0,0,0-1.133-.212,1.476,1.476,0,0,0-1.187.415,1.725,1.725,0,0,0-.332.83h-2.283A3.472,3.472,0,0,1,113.854,49.932Zm1.76,6.358a1.236,1.236,0,0,0,.813.274,2.409,2.409,0,0,0,1.407-.448,1.912,1.912,0,0,0,.668-1.635V53.6a2.571,2.571,0,0,1-.452.228,3.783,3.783,0,0,1-.627.162l-.531.1a3.431,3.431,0,0,0-1.071.324,1.085,1.085,0,0,0-.548,1A1.039,1.039,0,0,0,115.613,56.29ZM127.226,50.7a1.647,1.647,0,0,0-1.652,1.021,3.507,3.507,0,0,0-.232,1.378V58h-2.357V48.969h2.283v1.32a4.016,4.016,0,0,1,.863-1,3,3,0,0,1,1.851-.548,3.493,3.493,0,0,1,2.3.735,2.987,2.987,0,0,1,.892,2.436V58h-2.424V52.5a2.511,2.511,0,0,0-.191-1.1A1.343,1.343,0,0,0,127.226,50.7Zm11.189-.772a3.863,3.863,0,0,1,3.221-1.2,5.722,5.722,0,0,1,2.64.589,2.263,2.263,0,0,1,1.154,2.225V55.7q0,.432.017,1.046a1.315,1.315,0,0,0,.141.631.848.848,0,0,0,.349.274V58h-2.573a2.634,2.634,0,0,1-.149-.515q-.041-.241-.066-.548a4.861,4.861,0,0,1-1.129.9,3.4,3.4,0,0,1-1.727.44,2.968,2.968,0,0,1-2.03-.7,2.5,2.5,0,0,1-.8-1.988,2.58,2.58,0,0,1,1.287-2.416,5.713,5.713,0,0,1,2.075-.581l.805-.1a3.693,3.693,0,0,0,.938-.208.711.711,0,0,0,.506-.672.8.8,0,0,0-.386-.768,2.411,2.411,0,0,0-1.133-.212,1.476,1.476,0,0,0-1.187.415,1.725,1.725,0,0,0-.332.83h-2.283A3.472,3.472,0,0,1,138.416,49.932Zm1.76,6.358a1.236,1.236,0,0,0,.813.274,2.409,2.409,0,0,0,1.407-.448,1.912,1.912,0,0,0,.668-1.635V53.6a2.571,2.571,0,0,1-.452.228,3.783,3.783,0,0,1-.627.162l-.531.1a3.431,3.431,0,0,0-1.071.324,1.085,1.085,0,0,0-.548,1A1.039,1.039,0,0,0,140.175,56.29ZM151.788,50.7a1.647,1.647,0,0,0-1.652,1.021A3.507,3.507,0,0,0,149.9,53.1V58h-2.357V48.969h2.283v1.32a4.016,4.016,0,0,1,.863-1,3,3,0,0,1,1.851-.548,3.493,3.493,0,0,1,2.3.735,2.987,2.987,0,0,1,.892,2.436V58h-2.424V52.5a2.511,2.511,0,0,0-.191-1.1A1.343,1.343,0,0,0,151.788,50.7Zm11.928,6.018q-.033.042-.166.249a1.666,1.666,0,0,1-.315.365,3.294,3.294,0,0,1-1.075.681,3.663,3.663,0,0,1-1.216.183,2.711,2.711,0,0,1-2.706-1.444,5.527,5.527,0,0,1-.39-2.349V48.952h2.424v5.454a2.855,2.855,0,0,0,.183,1.162,1.264,1.264,0,0,0,1.27.689,1.66,1.66,0,0,0,1.66-.979,3.546,3.546,0,0,0,.232-1.4V48.952h2.4V58h-2.3Zm4.922-6.79a3.863,3.863,0,0,1,3.221-1.2,5.722,5.722,0,0,1,2.64.589,2.263,2.263,0,0,1,1.154,2.225V55.7q0,.432.017,1.046a1.315,1.315,0,0,0,.141.631.848.848,0,0,0,.349.274V58h-2.573a2.634,2.634,0,0,1-.149-.515q-.041-.241-.066-.548a4.861,4.861,0,0,1-1.129.9,3.4,3.4,0,0,1-1.727.44,2.968,2.968,0,0,1-2.03-.7,2.5,2.5,0,0,1-.8-1.988,2.58,2.58,0,0,1,1.287-2.416,5.713,5.713,0,0,1,2.075-.581l.805-.1a3.693,3.693,0,0,0,.938-.208.711.711,0,0,0,.506-.672.8.8,0,0,0-.386-.768,2.411,2.411,0,0,0-1.133-.212,1.476,1.476,0,0,0-1.187.415,1.725,1.725,0,0,0-.332.83h-2.283A3.472,3.472,0,0,1,168.639,49.932Zm1.76,6.358a1.236,1.236,0,0,0,.813.274,2.409,2.409,0,0,0,1.407-.448,1.912,1.912,0,0,0,.668-1.635V53.6a2.571,2.571,0,0,1-.452.228,3.783,3.783,0,0,1-.627.162l-.531.1a3.431,3.431,0,0,0-1.071.324,1.085,1.085,0,0,0-.548,1A1.039,1.039,0,0,0,170.4,56.29Zm7.4-10.525h2.366V58H177.8Zm14.2,2.648a1.726,1.726,0,0,0-2.681.3,3.993,3.993,0,0,0-.266,1.478h-2.3a5.815,5.815,0,0,1,.556-2.482,3.464,3.464,0,0,1,3.362-1.8,4.263,4.263,0,0,1,3.038,1.058,3.659,3.659,0,0,1,1.129,2.8,3.793,3.793,0,0,1-.8,2.374,7.939,7.939,0,0,1-1.718,1.536l-.946.672q-.888.631-1.216.913a2.676,2.676,0,0,0-.552.656h5.254V58h-8.243a5.656,5.656,0,0,1,.556-2.366,6.688,6.688,0,0,1,2.391-2.548,17.532,17.532,0,0,0,2.117-1.677,2.478,2.478,0,0,0,.739-1.727A1.913,1.913,0,0,0,192.005,48.413Zm8.226,9.886a3.406,3.406,0,0,1-3.225-1.61,9.316,9.316,0,0,1-.926-4.59,9.366,9.366,0,0,1,.926-4.6,4.026,4.026,0,0,1,6.454,0,9.4,9.4,0,0,1,.921,4.6,9.316,9.316,0,0,1-.926,4.59A3.406,3.406,0,0,1,200.231,58.3Zm1.386-3.03a11.842,11.842,0,0,0,.324-3.171,11.617,11.617,0,0,0-.328-3.221,1.339,1.339,0,0,0-1.382-1.046,1.359,1.359,0,0,0-1.395,1.046,11.211,11.211,0,0,0-.34,3.221,11.337,11.337,0,0,0,.34,3.175,1.428,1.428,0,0,0,2.781,0Zm9.3-6.856a1.726,1.726,0,0,0-2.681.3,3.993,3.993,0,0,0-.266,1.478h-2.3a5.815,5.815,0,0,1,.556-2.482,3.464,3.464,0,0,1,3.362-1.8,4.263,4.263,0,0,1,3.038,1.058,3.659,3.659,0,0,1,1.129,2.8,3.793,3.793,0,0,1-.8,2.374,7.939,7.939,0,0,1-1.718,1.536l-.946.672q-.888.631-1.216.913a2.676,2.676,0,0,0-.552.656h5.254V58h-8.243a5.656,5.656,0,0,1,.556-2.366,6.688,6.688,0,0,1,2.391-2.548,17.532,17.532,0,0,0,2.117-1.677,2.478,2.478,0,0,0,.739-1.727A1.913,1.913,0,0,0,210.915,48.413Zm9.455,0a1.726,1.726,0,0,0-2.681.3,3.993,3.993,0,0,0-.266,1.478h-2.3a5.815,5.815,0,0,1,.556-2.482,3.464,3.464,0,0,1,3.362-1.8,4.263,4.263,0,0,1,3.038,1.058,3.659,3.659,0,0,1,1.129,2.8,3.793,3.793,0,0,1-.8,2.374,7.939,7.939,0,0,1-1.718,1.536l-.946.672q-.888.631-1.216.913a2.676,2.676,0,0,0-.552.656h5.254V58H214.99a5.656,5.656,0,0,1,.556-2.366,6.688,6.688,0,0,1,2.391-2.548,17.532,17.532,0,0,0,2.117-1.677,2.478,2.478,0,0,0,.739-1.727A1.913,1.913,0,0,0,220.369,48.413Z" transform="translate(779.062 9680.608)" fill="#0b0a0a"/>
    <path id="Trazado_988220" data-name="Trazado 988220" d="M5.273-1.245A4.028,4.028,0,0,0,6.489-1.4,2.674,2.674,0,0,0,7.881-2.5,4.5,4.5,0,0,0,8.5-4.167,6.37,6.37,0,0,0,8.613-5.3,5.253,5.253,0,0,0,7.819-8.4a2.936,2.936,0,0,0-2.56-1.106H2.673v8.262ZM1.208-10.759H5.566A4.108,4.108,0,0,1,9.009-9.185,5.806,5.806,0,0,1,10.1-5.544a7.253,7.253,0,0,1-.645,3.1A3.977,3.977,0,0,1,5.552,0H1.208ZM11.8-7.808h1.34V0H11.8Zm0-2.952h1.34v1.494H11.8Zm6.357,2.688a3.42,3.42,0,0,1,2.157.645,3.088,3.088,0,0,1,1,2.219H20.032a2.366,2.366,0,0,0-.535-1.2,1.689,1.689,0,0,0-1.34-.48,1.852,1.852,0,0,0-1.8,1.23A4.888,4.888,0,0,0,16-3.691a3.708,3.708,0,0,0,.5,1.985A1.708,1.708,0,0,0,18.069-.9a1.714,1.714,0,0,0,1.3-.5,2.759,2.759,0,0,0,.663-1.373h1.282a3.44,3.44,0,0,1-1.1,2.281,3.428,3.428,0,0,1-2.249.721A3,3,0,0,1,15.513-.9,4.3,4.3,0,0,1,14.6-3.706a4.732,4.732,0,0,1,1-3.215A3.242,3.242,0,0,1,18.157-8.071Zm4.475.264h1.34V0h-1.34Zm0-2.952h1.34v1.494h-1.34Zm6.6,2.739a3.578,3.578,0,0,1,1.619.392,2.985,2.985,0,0,1,1.194,1.014,3.5,3.5,0,0,1,.527,1.384A9.057,9.057,0,0,1,32.688-3.5h-5.75A3.355,3.355,0,0,0,27.5-1.586a1.888,1.888,0,0,0,1.633.721,2.111,2.111,0,0,0,1.648-.681,2.3,2.3,0,0,0,.5-.916h1.3a2.73,2.73,0,0,1-.341.963,3.426,3.426,0,0,1-.648.868A3.072,3.072,0,0,1,30.1.161a4.517,4.517,0,0,1-1.077.117A3.3,3.3,0,0,1,26.543-.787a4.146,4.146,0,0,1-1.018-2.985A4.508,4.508,0,0,1,26.55-6.841,3.383,3.383,0,0,1,29.231-8.02Zm2.1,3.472a3.416,3.416,0,0,0-.374-1.37A1.915,1.915,0,0,0,29.15-6.87a2.005,2.005,0,0,0-1.523.656,2.476,2.476,0,0,0-.652,1.666Zm2.974-3.3h1.3v1.113a4.382,4.382,0,0,1,.85-.842,2.555,2.555,0,0,1,1.479-.447,2.328,2.328,0,0,1,1.509.461,2.412,2.412,0,0,1,.586.776,2.85,2.85,0,0,1,1.033-.934,2.881,2.881,0,0,1,1.333-.3,2.18,2.18,0,0,1,2.153,1.143,3.735,3.735,0,0,1,.308,1.655V0h-1.37V-5.449A1.269,1.269,0,0,0,43.1-6.526a1.551,1.551,0,0,0-.956-.293,1.9,1.9,0,0,0-1.337.52,2.284,2.284,0,0,0-.56,1.736V0h-1.34V-5.12a2.66,2.66,0,0,0-.19-1.165A1.161,1.161,0,0,0,37.6-6.833a1.934,1.934,0,0,0-1.359.579,2.836,2.836,0,0,0-.612,2.095V0H34.307ZM46.7-10.8h1.282v3.9a2.923,2.923,0,0,1,1.033-.861,2.9,2.9,0,0,1,1.3-.3,3.056,3.056,0,0,1,2.377,1.007,4.29,4.29,0,0,1,.912,2.97,5.094,5.094,0,0,1-.9,3.091,2.922,2.922,0,0,1-2.5,1.23A2.559,2.559,0,0,1,48.7-.183,3.644,3.644,0,0,1,47.915-1V0H46.7Zm3.428,9.88a1.762,1.762,0,0,0,1.6-.85,4.183,4.183,0,0,0,.531-2.241,3.679,3.679,0,0,0-.531-2.051,1.749,1.749,0,0,0-1.564-.813,2.181,2.181,0,0,0-1.578.667,2.993,2.993,0,0,0-.677,2.2,4.856,4.856,0,0,0,.278,1.794A1.923,1.923,0,0,0,50.127-.916Zm5.054-6.929h1.252v1.355a2.994,2.994,0,0,1,.754-.963,1.956,1.956,0,0,1,1.384-.568q.037,0,.125.007l.3.029v1.392a1.969,1.969,0,0,0-.216-.029q-.1-.007-.216-.007a1.881,1.881,0,0,0-1.531.641A2.237,2.237,0,0,0,56.5-4.512V0H55.181Zm8.225-.176a3.578,3.578,0,0,1,1.619.392,2.985,2.985,0,0,1,1.194,1.014,3.5,3.5,0,0,1,.527,1.384A9.057,9.057,0,0,1,66.863-3.5h-5.75a3.355,3.355,0,0,0,.564,1.915,1.888,1.888,0,0,0,1.633.721,2.111,2.111,0,0,0,1.648-.681,2.3,2.3,0,0,0,.5-.916h1.3a2.73,2.73,0,0,1-.341.963,3.426,3.426,0,0,1-.648.868,3.072,3.072,0,0,1-1.487.791A4.517,4.517,0,0,1,63.2.278,3.3,3.3,0,0,1,60.718-.787,4.146,4.146,0,0,1,59.7-3.772a4.508,4.508,0,0,1,1.025-3.069A3.383,3.383,0,0,1,63.406-8.02Zm2.1,3.472a3.416,3.416,0,0,0-.374-1.37,1.915,1.915,0,0,0-1.809-.952,2.005,2.005,0,0,0-1.523.656,2.476,2.476,0,0,0-.652,1.666Z" transform="translate(493.204 9898.965)" fill="#0b0a0a"/>
    <path id="Trazado_988221" data-name="Trazado 988221" d="M5.273-1.245A4.028,4.028,0,0,0,6.489-1.4,2.674,2.674,0,0,0,7.881-2.5,4.5,4.5,0,0,0,8.5-4.167,6.37,6.37,0,0,0,8.613-5.3,5.253,5.253,0,0,0,7.819-8.4a2.936,2.936,0,0,0-2.56-1.106H2.673v8.262ZM1.208-10.759H5.566A4.108,4.108,0,0,1,9.009-9.185,5.806,5.806,0,0,1,10.1-5.544a7.253,7.253,0,0,1-.645,3.1A3.977,3.977,0,0,1,5.552,0H1.208ZM11.8-7.808h1.34V0H11.8Zm0-2.952h1.34v1.494H11.8Zm6.357,2.688a3.42,3.42,0,0,1,2.157.645,3.088,3.088,0,0,1,1,2.219H20.032a2.366,2.366,0,0,0-.535-1.2,1.689,1.689,0,0,0-1.34-.48,1.852,1.852,0,0,0-1.8,1.23A4.888,4.888,0,0,0,16-3.691a3.708,3.708,0,0,0,.5,1.985A1.708,1.708,0,0,0,18.069-.9a1.714,1.714,0,0,0,1.3-.5,2.759,2.759,0,0,0,.663-1.373h1.282a3.44,3.44,0,0,1-1.1,2.281,3.428,3.428,0,0,1-2.249.721A3,3,0,0,1,15.513-.9,4.3,4.3,0,0,1,14.6-3.706a4.732,4.732,0,0,1,1-3.215A3.242,3.242,0,0,1,18.157-8.071Zm4.475.264h1.34V0h-1.34Zm0-2.952h1.34v1.494h-1.34Zm6.6,2.739a3.578,3.578,0,0,1,1.619.392,2.985,2.985,0,0,1,1.194,1.014,3.5,3.5,0,0,1,.527,1.384A9.057,9.057,0,0,1,32.688-3.5h-5.75A3.355,3.355,0,0,0,27.5-1.586a1.888,1.888,0,0,0,1.633.721,2.111,2.111,0,0,0,1.648-.681,2.3,2.3,0,0,0,.5-.916h1.3a2.73,2.73,0,0,1-.341.963,3.426,3.426,0,0,1-.648.868A3.072,3.072,0,0,1,30.1.161a4.517,4.517,0,0,1-1.077.117A3.3,3.3,0,0,1,26.543-.787a4.146,4.146,0,0,1-1.018-2.985A4.508,4.508,0,0,1,26.55-6.841,3.383,3.383,0,0,1,29.231-8.02Zm2.1,3.472a3.416,3.416,0,0,0-.374-1.37A1.915,1.915,0,0,0,29.15-6.87a2.005,2.005,0,0,0-1.523.656,2.476,2.476,0,0,0-.652,1.666Zm2.974-3.3h1.3v1.113a4.382,4.382,0,0,1,.85-.842,2.555,2.555,0,0,1,1.479-.447,2.328,2.328,0,0,1,1.509.461,2.412,2.412,0,0,1,.586.776,2.85,2.85,0,0,1,1.033-.934,2.881,2.881,0,0,1,1.333-.3,2.18,2.18,0,0,1,2.153,1.143,3.735,3.735,0,0,1,.308,1.655V0h-1.37V-5.449A1.269,1.269,0,0,0,43.1-6.526a1.551,1.551,0,0,0-.956-.293,1.9,1.9,0,0,0-1.337.52,2.284,2.284,0,0,0-.56,1.736V0h-1.34V-5.12a2.66,2.66,0,0,0-.19-1.165A1.161,1.161,0,0,0,37.6-6.833a1.934,1.934,0,0,0-1.359.579,2.836,2.836,0,0,0-.612,2.095V0H34.307ZM46.7-10.8h1.282v3.9a2.923,2.923,0,0,1,1.033-.861,2.9,2.9,0,0,1,1.3-.3,3.056,3.056,0,0,1,2.377,1.007,4.29,4.29,0,0,1,.912,2.97,5.094,5.094,0,0,1-.9,3.091,2.922,2.922,0,0,1-2.5,1.23A2.559,2.559,0,0,1,48.7-.183,3.644,3.644,0,0,1,47.915-1V0H46.7Zm3.428,9.88a1.762,1.762,0,0,0,1.6-.85,4.183,4.183,0,0,0,.531-2.241,3.679,3.679,0,0,0-.531-2.051,1.749,1.749,0,0,0-1.564-.813,2.181,2.181,0,0,0-1.578.667,2.993,2.993,0,0,0-.677,2.2,4.856,4.856,0,0,0,.278,1.794A1.923,1.923,0,0,0,50.127-.916Zm5.054-6.929h1.252v1.355a2.994,2.994,0,0,1,.754-.963,1.956,1.956,0,0,1,1.384-.568q.037,0,.125.007l.3.029v1.392a1.969,1.969,0,0,0-.216-.029q-.1-.007-.216-.007a1.881,1.881,0,0,0-1.531.641A2.237,2.237,0,0,0,56.5-4.512V0H55.181Zm8.225-.176a3.578,3.578,0,0,1,1.619.392,2.985,2.985,0,0,1,1.194,1.014,3.5,3.5,0,0,1,.527,1.384A9.057,9.057,0,0,1,66.863-3.5h-5.75a3.355,3.355,0,0,0,.564,1.915,1.888,1.888,0,0,0,1.633.721,2.111,2.111,0,0,0,1.648-.681,2.3,2.3,0,0,0,.5-.916h1.3a2.73,2.73,0,0,1-.341.963,3.426,3.426,0,0,1-.648.868,3.072,3.072,0,0,1-1.487.791A4.517,4.517,0,0,1,63.2.278,3.3,3.3,0,0,1,60.718-.787,4.146,4.146,0,0,1,59.7-3.772a4.508,4.508,0,0,1,1.025-3.069A3.383,3.383,0,0,1,63.406-8.02Zm2.1,3.472a3.416,3.416,0,0,0-.374-1.37,1.915,1.915,0,0,0-1.809-.952,2.005,2.005,0,0,0-1.523.656,2.476,2.476,0,0,0-.652,1.666Z" transform="translate(933.459 9898.965)" fill="#0b0a0a"/>
    <g transform="matrix(1, 0, 0, 1, 180.29, 9573.43)" filter="url(#Trazado_988222)">
      <path id="Trazado_988222-2" data-name="Trazado 988222" d="M2,0H7.01a2,2,0,0,1,2,2V90.072a2,2,0,0,1-2,2H2a2,2,0,0,1-2-2V2A2,2,0,0,1,2,0Z" transform="translate(291.27 240.96)" fill="#fff"/>
    </g>
    <g transform="matrix(1, 0, 0, 1, 180.29, 9573.43)" filter="url(#Trazado_988223)">
      <path id="Trazado_988223-2" data-name="Trazado 988223" d="M2,0H7.01a2,2,0,0,1,2,2V90.072a2,2,0,0,1-2,2H2a2,2,0,0,1-2-2V2A2,2,0,0,1,2,0Z" transform="translate(711.53 240.96)" fill="#fff"/>
    </g>
    <g transform="matrix(1, 0, 0, 1, 180.29, 9573.43)" filter="url(#Trazado_988224)">
      <path id="Trazado_988224-2" data-name="Trazado 988224" d="M2,0H7.01a2,2,0,0,1,2,2V90.072a2,2,0,0,1-2,2H2a2,2,0,0,1-2-2V2A2,2,0,0,1,2,0Z" transform="translate(481.18 240.96)" fill="#fff"/>
    </g>
    <g transform="matrix(1, 0, 0, 1, 180.29, 9573.43)" filter="url(#Trazado_988225)">
      <path id="Trazado_988225-2" data-name="Trazado 988225" d="M2,0H7.01a2,2,0,0,1,2,2V90.072a2,2,0,0,1-2,2H2a2,2,0,0,1-2-2V2A2,2,0,0,1,2,0Z" transform="translate(904.44 240.96)" fill="#fff"/>
    </g>
    <g transform="matrix(1, 0, 0, 1, 180.29, 9573.43)" filter="url(#Trazado_987423)">
      <path id="Trazado_987423-2" data-name="Trazado 987423" d="M43.437,6.155l-8.246.007A35.024,35.024,0,0,0,20.675,9.369,35.58,35.58,0,0,0,7.7,19.512,35.183,35.183,0,0,0,.527,35.564c-.111.747-.231,1.5-.343,2.249-.058.754-.1,1.512-.136,2.27a35.517,35.517,0,0,0,.094,4.563c.041.762.194,1.517.3,2.276a21.547,21.547,0,0,0,.415,2.263l.573,2.234a8.959,8.959,0,0,0,.343,1.1L2.159,53.6A35.263,35.263,0,0,0,28.373,76.114a35.877,35.877,0,0,0,16.46-.683c.32-.087.641-.164.954-.264l.925-.331,1.824-.676c1.191-.482,2.314-1.074,3.434-1.618,1.07-.63,2.121-1.257,3.122-1.917.959-.717,1.92-1.4,2.8-2.141a34.849,34.849,0,0,0,7.969-9.628,10.855,10.855,0,0,0,.654-1.216l.582-1.2q.28-.593.55-1.166c.157-.392.3-.781.44-1.161.279-.761.548-1.492.785-2.2q.283-1.078.538-2.057a27.986,27.986,0,0,0,.669-3.524c.071-.518.159-.995.191-1.434s.048-.945.069-1.3c.066-1.434.1-2.3.1-2.3H52.425s-.033.482-.066,1.19c-.006.178-.014.427-.021.645s-.071.474-.1.727a11.566,11.566,0,0,1-.327,1.734c-.084.317-.167.658-.248,1.013-.127.339-.258.7-.4,1.069-.066.186-.133.378-.2.572-.091.185-.185.374-.28.565s-.186.39-.28.59a3.212,3.212,0,0,1-.319.6,16.864,16.864,0,0,1-3.912,4.73,16.579,16.579,0,0,1-6.363,3.382,17.9,17.9,0,0,1-8.032.339c-.346-.06-.678-.181-1.022-.259a6.936,6.936,0,0,1-1.021-.289,15.251,15.251,0,0,1-1.986-.817,17.088,17.088,0,0,1-8.77-9.666l-.2-.528a2.473,2.473,0,0,1-.168-.536c-.086-.366-.179-.728-.279-1.09a7.388,7.388,0,0,1-.195-1.107c-.042-.373-.15-.736-.156-1.114a17.589,17.589,0,0,1-.038-2.252l.05-1.122q.1-.548.177-1.1a17.118,17.118,0,0,1,3.5-7.852,7.264,7.264,0,0,1,.691-.8c.243-.254.453-.536.709-.771l.77-.7c.128-.116.248-.239.377-.35l.415-.3.807-.615c.274-.193.574-.343.853-.523a8.172,8.172,0,0,1,.849-.5l.877-.42a17.306,17.306,0,0,1,7.167-1.566l8.155-.007v6.156L58.6,15.163,43.437,0Z" transform="translate(527.14 204.25) rotate(90)" fill="#fff"/>
    </g>
    <g id="Trazado_987424" data-name="Trazado 987424" transform="translate(629.798 9776.984)" fill="#fff">
      <path d="M 87.09994506835938 69.392578125 L 51.36700057983398 69.392578125 L 37.27822113037109 48.90130233764648 L 37.17419815063477 48.75 L 36.99699783325195 48.70198822021484 L 20.78091049194336 44.30743789672852 L 20.71667289733887 44.2900276184082 L 20.65012168884277 44.2900276184082 L -9.500002861022949 44.2900276184082 L -9.500002861022949 -9.499998092651367 L 87.09994506835938 -9.499998092651367 L 87.09994506835938 69.392578125 Z" stroke="none"/>
      <path d="M -9 -9.000007629394531 L -9 43.79002380371094 L 20.78321075439453 43.79002380371094 L 37.48220062255859 48.31543731689453 L 51.63000106811523 68.892578125 L 86.59994506835938 68.892578125 L 86.59994506835938 -9.000007629394531 L -9 -9.000007629394531 M -10 -10.00000762939453 L 87.59994506835938 -10.00000762939453 L 87.59994506835938 69.892578125 L 51.10398864746094 69.892578125 L 36.8662109375 49.1845703125 L 20.65011978149414 44.79002380371094 L -10 44.79002380371094 L -10 -10.00000762939453 Z" stroke="none" fill="#707070"/>
    </g>
    <g transform="matrix(1, 0, 0, 1, 180.29, 9573.43)" filter="url(#Trazado_987433)">
      <path id="Trazado_987433-2" data-name="Trazado 987433" d="M43.437,6.155l-8.246.007A35.024,35.024,0,0,0,20.675,9.369,35.58,35.58,0,0,0,7.7,19.512,35.183,35.183,0,0,0,.527,35.564c-.111.747-.231,1.5-.343,2.249-.058.754-.1,1.512-.136,2.27a35.517,35.517,0,0,0,.094,4.563c.041.762.194,1.517.3,2.276a21.547,21.547,0,0,0,.415,2.263l.573,2.234a8.959,8.959,0,0,0,.343,1.1L2.159,53.6A35.263,35.263,0,0,0,28.373,76.114a35.877,35.877,0,0,0,16.46-.683c.32-.087.641-.164.954-.264l.925-.331,1.824-.676c1.191-.482,2.314-1.074,3.434-1.618,1.07-.63,2.121-1.257,3.122-1.917.959-.717,1.92-1.4,2.8-2.141a34.849,34.849,0,0,0,7.969-9.628,10.855,10.855,0,0,0,.654-1.216l.582-1.2q.28-.593.55-1.166c.157-.392.3-.781.44-1.161.279-.761.548-1.492.785-2.2q.283-1.078.538-2.057a27.986,27.986,0,0,0,.669-3.524c.071-.518.159-.995.191-1.434s.048-.945.069-1.3c.066-1.434.1-2.3.1-2.3H52.425s-.033.482-.066,1.19c-.006.178-.014.427-.021.645s-.071.474-.1.727a11.566,11.566,0,0,1-.327,1.734c-.084.317-.167.658-.248,1.013-.127.339-.258.7-.4,1.069-.066.186-.133.378-.2.572-.091.185-.185.374-.28.565s-.186.39-.28.59a3.212,3.212,0,0,1-.319.6,16.864,16.864,0,0,1-3.912,4.73,16.579,16.579,0,0,1-6.363,3.382,17.9,17.9,0,0,1-8.032.339c-.346-.06-.678-.181-1.022-.259a6.936,6.936,0,0,1-1.021-.289,15.251,15.251,0,0,1-1.986-.817,17.088,17.088,0,0,1-8.77-9.666l-.2-.528a2.473,2.473,0,0,1-.168-.536c-.086-.366-.179-.728-.279-1.09a7.388,7.388,0,0,1-.195-1.107c-.042-.373-.15-.736-.156-1.114a17.589,17.589,0,0,1-.038-2.252l.05-1.122q.1-.548.177-1.1a17.118,17.118,0,0,1,3.5-7.852,7.264,7.264,0,0,1,.691-.8c.243-.254.453-.536.709-.771l.77-.7c.128-.116.248-.239.377-.35l.415-.3.807-.615c.274-.193.574-.343.853-.523a8.172,8.172,0,0,1,.849-.5l.877-.42a17.306,17.306,0,0,1,7.167-1.566l8.155-.007v6.156L58.6,15.163,43.437,0Z" transform="translate(949.44 204.25) rotate(90)" fill="#fff"/>
    </g>
    <g id="Trazado_987434" data-name="Trazado 987434" transform="translate(1052.092 9776.984)" fill="#fff">
      <path d="M 87.09994506835938 69.392578125 L 51.36700057983398 69.392578125 L 37.27822113037109 48.90130233764648 L 37.17419815063477 48.75 L 36.99699783325195 48.70198822021484 L 20.78091049194336 44.30743789672852 L 20.71667289733887 44.2900276184082 L 20.65012168884277 44.2900276184082 L -9.500002861022949 44.2900276184082 L -9.500002861022949 -9.499998092651367 L 87.09994506835938 -9.499998092651367 L 87.09994506835938 69.392578125 Z" stroke="none"/>
      <path d="M -9 -9.000007629394531 L -9 43.79002380371094 L 20.78321075439453 43.79002380371094 L 37.48220062255859 48.31543731689453 L 51.63000106811523 68.892578125 L 86.59994506835938 68.892578125 L 86.59994506835938 -9.000007629394531 L -9 -9.000007629394531 M -10 -10.00000762939453 L 87.59994506835938 -10.00000762939453 L 87.59994506835938 69.892578125 L 51.10398864746094 69.892578125 L 36.8662109375 49.1845703125 L 20.65011978149414 44.79002380371094 L -10 44.79002380371094 L -10 -10.00000762939453 Z" stroke="none" fill="#707070"/>
    </g>
    <g transform="matrix(1, 0, 0, 1, 180.29, 9573.43)" filter="url(#Trazado_988226)">
      <path id="Trazado_988226-2" data-name="Trazado 988226" d="M0,0H1056.467V24.329H0Z" transform="translate(64.11 278.84)" fill="#fff"/>
    </g>
    <g transform="matrix(1, 0, 0, 1, 180.29, 9573.43)" filter="url(#Trazado_987425)">
      <path id="Trazado_987425-2" data-name="Trazado 987425" d="M28.06,0l28.06,48.977-28.06-8.69L0,48.977Z" transform="translate(1155.07 262.94) rotate(90)" fill="#fff"/>
    </g>
    <g transform="matrix(1, 0, 0, 1, 180.29, 9573.43)" filter="url(#Trazado_988227)">
      <path id="Trazado_988227-2" data-name="Trazado 988227" d="M0,0H15.01V103.637H0Z" transform="translate(783.53 199.38)" fill="#fff"/>
    </g>
    <g transform="matrix(1, 0, 0, 1, 180.29, 9573.43)" filter="url(#Trazado_987426)">
      <path id="Trazado_987426-2" data-name="Trazado 987426" d="M16.6,0l16.6,28.979L16.6,23.837,0,28.979Z" transform="translate(774.57 178.18)" fill="#fff"/>
    </g>
    <g transform="matrix(1, 0, 0, 1, 180.29, 9573.43)" filter="url(#Trazado_988228)">
      <path id="Trazado_988228-2" data-name="Trazado 988228" d="M0,0H15.01V103.637H0Z" transform="translate(342.27 199.38)" fill="#fff"/>
    </g>
    <g transform="matrix(1, 0, 0, 1, 180.29, 9573.43)" filter="url(#Trazado_987429)">
      <path id="Trazado_987429-2" data-name="Trazado 987429" d="M16.6,0l16.6,28.979L16.6,23.837,0,28.979Z" transform="translate(333.31 178.18)" fill="#fff"/>
    </g>
    <g transform="matrix(1, 0, 0, 1, 180.29, 9573.43)" filter="url(#Trazado_987430)">
      <path id="Trazado_987430-2" data-name="Trazado 987430" d="M9144.926,10089.547v55.494h373.913v-55.494" transform="translate(-9056.62 -9760.01)" fill="none" stroke="#fff" stroke-width="12"/>
    </g>
    <g transform="matrix(1, 0, 0, 1, 180.29, 9573.43)" filter="url(#Trazado_987431)">
      <path id="Trazado_987431-2" data-name="Trazado 987431" d="M9144.926,10089.547v55.494h373.913v-55.494" transform="translate(-8638.2 -9760.01)" fill="none" stroke="#fff" stroke-width="12"/>
    </g>
    <g transform="matrix(1, 0, 0, 1, 180.29, 9573.43)" filter="url(#Trazado_987432)">
      <path id="Trazado_987432-2" data-name="Trazado 987432" d="M9144.926,10089.547v55.494h246.129v-55.494" transform="translate(-8235.62 -9760.01)" fill="none" stroke="#fff" stroke-width="12"/>
    </g>
  </g>
</svg>
